<svg xmlns="http://www.w3.org/2000/svg" xmlns:xlink="http://www.w3.org/1999/xlink" width="1920" zoomAndPan="magnify" viewBox="0 0 1440 809.999993" height="1080" preserveAspectRatio="xMidYMid meet" version="1.0"><defs><g/><clipPath id="8161b17e7b"><path d="M 0 137.558594 L 389.25 137.558594 L 389.25 526.808594 L 0 526.808594 Z M 0 137.558594 " clip-rule="nonzero"/></clipPath><clipPath id="c5d40222fd"><path d="M 49.203125 244.347656 L 254 244.347656 L 254 395.847656 L 49.203125 395.847656 Z M 49.203125 244.347656 " clip-rule="nonzero"/></clipPath><clipPath id="c491e55ddd"><path d="M 202 244.347656 L 340.203125 244.347656 L 340.203125 395.847656 L 202 395.847656 Z M 202 244.347656 " clip-rule="nonzero"/></clipPath></defs><g clip-path="url(#8161b17e7b)"><path fill="#004a98" d="M 194.695312 137.558594 C 87.300781 137.558594 0 224.9375 0 332.253906 C 0 439.648438 87.300781 526.949219 194.695312 526.949219 C 302.011719 526.949219 389.390625 439.648438 389.390625 332.253906 C 389.390625 224.9375 302.011719 137.558594 194.695312 137.558594 Z M 194.695312 511.765625 C 95.710938 511.765625 15.1875 431.238281 15.1875 332.253906 C 15.1875 233.273438 95.710938 152.746094 194.695312 152.746094 C 293.679688 152.746094 374.203125 233.273438 374.203125 332.253906 C 374.203125 431.238281 293.679688 511.765625 194.695312 511.765625 Z M 194.695312 511.765625 " fill-opacity="1" fill-rule="nonzero"/></g><path fill="#004a98" d="M 194.695312 162.871094 C 101.320312 162.871094 25.308594 238.878906 25.308594 332.253906 C 25.308594 425.628906 101.320312 501.640625 194.695312 501.640625 C 288.070312 501.640625 364.082031 425.628906 364.082031 332.253906 C 364.082031 238.878906 288.070312 162.871094 194.695312 162.871094 Z M 194.695312 162.871094 " fill-opacity="1" fill-rule="nonzero"/><g clip-path="url(#c5d40222fd)"><path fill="#ffffff" d="M 154.882812 244.347656 L 49.253906 396.066406 L 158.992188 396.066406 L 190.894531 350.234375 L 180.304688 333.234375 L 149.378906 377.65625 L 84.5 377.65625 L 154.304688 277.390625 L 230.835938 396.066406 L 253.109375 396.066406 Z M 154.882812 244.347656 " fill-opacity="1" fill-rule="nonzero"/></g><g clip-path="url(#c491e55ddd)"><path fill="#ffffff" d="M 242.1875 244.347656 L 202.699219 301.066406 L 213.480469 317.792969 L 241.609375 277.390625 L 318.210938 396.066406 L 340.144531 396.066406 Z M 242.1875 244.347656 " fill-opacity="1" fill-rule="nonzero"/></g><g fill="#004a98" fill-opacity="1"><g transform="translate(399.85485, 421.213256)"><g><path d="M 145.84375 -46.09375 L 159.953125 -30.90625 C 159.046875 -29.632812 156.921875 -27.238281 153.578125 -23.71875 C 150.234375 -20.195312 145.710938 -16.359375 140.015625 -12.203125 C 134.328125 -8.046875 127.460938 -4.472656 119.421875 -1.484375 C 111.378906 1.492188 102.113281 2.984375 91.625 2.984375 C 81.144531 2.984375 71.113281 1.175781 61.53125 -2.4375 C 51.957031 -6.050781 43.421875 -11.519531 35.921875 -18.84375 C 28.421875 -26.164062 22.5 -35.425781 18.15625 -46.625 C 13.820312 -57.832031 11.65625 -71.023438 11.65625 -86.203125 C 11.65625 -101.390625 13.914062 -114.539062 18.4375 -125.65625 C 22.957031 -136.769531 28.921875 -145.941406 36.328125 -153.171875 C 43.734375 -160.398438 51.816406 -165.773438 60.578125 -169.296875 C 69.347656 -172.816406 77.890625 -174.578125 86.203125 -174.578125 C 97.410156 -174.578125 106.445312 -173.085938 113.3125 -170.109375 C 120.1875 -167.128906 125.472656 -163.785156 129.171875 -160.078125 C 132.878906 -156.378906 135.457031 -153.441406 136.90625 -151.265625 L 136.90625 -172.140625 L 157.234375 -172.140625 L 157.234375 -109.796875 L 137.171875 -109.796875 L 136.625 -114.9375 C 135.90625 -121.445312 133.828125 -127.679688 130.390625 -133.640625 C 126.960938 -139.609375 122.039062 -144.488281 115.625 -148.28125 C 109.207031 -152.082031 101.03125 -153.984375 91.09375 -153.984375 C 81.144531 -153.984375 72.195312 -151.316406 64.25 -145.984375 C 56.300781 -140.648438 50.019531 -132.96875 45.40625 -122.9375 C 40.800781 -112.90625 38.5 -100.84375 38.5 -86.75 C 38.5 -72.65625 40.890625 -60.59375 45.671875 -50.5625 C 50.460938 -40.53125 56.96875 -32.847656 65.1875 -27.515625 C 73.414062 -22.179688 82.769531 -19.515625 93.25 -19.515625 C 101.207031 -19.515625 108.257812 -20.644531 114.40625 -22.90625 C 120.550781 -25.164062 125.789062 -27.921875 130.125 -31.171875 C 134.457031 -34.429688 137.976562 -37.457031 140.6875 -40.25 C 143.40625 -43.050781 145.125 -45 145.84375 -46.09375 Z M 145.84375 -46.09375 "/></g></g></g><g fill="#004a98" fill-opacity="1"><g transform="translate(572.003751, 421.213256)"><g><path d="M 76.453125 0 L 6.5 0 L 6.5 -18.703125 L 28.734375 -18.703125 L 28.734375 -153.4375 L 6.5 -153.4375 L 6.5 -172.140625 L 76.453125 -172.140625 L 76.453125 -153.4375 L 54.21875 -153.4375 L 54.21875 -18.703125 L 76.453125 -18.703125 Z M 76.453125 0 "/></g></g></g><g fill="#004a98" fill-opacity="1"><g transform="translate(654.960543, 421.213256)"><g><path d="M 159.953125 0 L 120.90625 0 L 79.703125 -71.296875 L 54.21875 -71.296875 L 54.21875 -18.703125 L 74.828125 -18.703125 L 74.828125 0 L 6.5 0 L 6.5 -18.703125 L 28.734375 -18.703125 L 28.734375 -153.4375 L 6.5 -153.4375 L 6.5 -172.140625 L 85.671875 -172.140625 C 102.835938 -172.140625 116.390625 -168.253906 126.328125 -160.484375 C 131.210938 -156.691406 135.414062 -151.453125 138.9375 -144.765625 C 142.457031 -138.078125 144.21875 -130.125 144.21875 -120.90625 C 144.21875 -114.757812 142.953125 -108.476562 140.421875 -102.0625 C 137.890625 -95.644531 133.820312 -89.859375 128.21875 -84.703125 C 122.625 -79.554688 115.304688 -75.898438 106.265625 -73.734375 L 139.890625 -18.703125 L 159.953125 -18.703125 Z M 54.21875 -90 L 80.25 -90 C 86.03125 -90 90.90625 -90.359375 94.875 -91.078125 C 98.851562 -91.804688 102.472656 -93.253906 105.734375 -95.421875 C 108.984375 -97.585938 111.875 -100.882812 114.40625 -105.3125 C 116.9375 -109.75 118.203125 -115.21875 118.203125 -121.71875 C 118.203125 -128.226562 116.9375 -133.695312 114.40625 -138.125 C 111.875 -142.550781 108.984375 -145.847656 105.734375 -148.015625 C 102.472656 -150.179688 98.851562 -151.625 94.875 -152.34375 C 90.90625 -153.070312 86.03125 -153.4375 80.25 -153.4375 L 54.21875 -153.4375 Z M 54.21875 -90 "/></g></g></g><g fill="#004a98" fill-opacity="1"><g transform="translate(815.994322, 421.213256)"><g><path d="M 145.84375 -46.09375 L 159.953125 -30.90625 C 159.046875 -29.632812 156.921875 -27.238281 153.578125 -23.71875 C 150.234375 -20.195312 145.710938 -16.359375 140.015625 -12.203125 C 134.328125 -8.046875 127.460938 -4.472656 119.421875 -1.484375 C 111.378906 1.492188 102.113281 2.984375 91.625 2.984375 C 81.144531 2.984375 71.113281 1.175781 61.53125 -2.4375 C 51.957031 -6.050781 43.421875 -11.519531 35.921875 -18.84375 C 28.421875 -26.164062 22.5 -35.425781 18.15625 -46.625 C 13.820312 -57.832031 11.65625 -71.023438 11.65625 -86.203125 C 11.65625 -101.390625 13.914062 -114.539062 18.4375 -125.65625 C 22.957031 -136.769531 28.921875 -145.941406 36.328125 -153.171875 C 43.734375 -160.398438 51.816406 -165.773438 60.578125 -169.296875 C 69.347656 -172.816406 77.890625 -174.578125 86.203125 -174.578125 C 97.410156 -174.578125 106.445312 -173.085938 113.3125 -170.109375 C 120.1875 -167.128906 125.472656 -163.785156 129.171875 -160.078125 C 132.878906 -156.378906 135.457031 -153.441406 136.90625 -151.265625 L 136.90625 -172.140625 L 157.234375 -172.140625 L 157.234375 -109.796875 L 137.171875 -109.796875 L 136.625 -114.9375 C 135.90625 -121.445312 133.828125 -127.679688 130.390625 -133.640625 C 126.960938 -139.609375 122.039062 -144.488281 115.625 -148.28125 C 109.207031 -152.082031 101.03125 -153.984375 91.09375 -153.984375 C 81.144531 -153.984375 72.195312 -151.316406 64.25 -145.984375 C 56.300781 -140.648438 50.019531 -132.96875 45.40625 -122.9375 C 40.800781 -112.90625 38.5 -100.84375 38.5 -86.75 C 38.5 -72.65625 40.890625 -60.59375 45.671875 -50.5625 C 50.460938 -40.53125 56.96875 -32.847656 65.1875 -27.515625 C 73.414062 -22.179688 82.769531 -19.515625 93.25 -19.515625 C 101.207031 -19.515625 108.257812 -20.644531 114.40625 -22.90625 C 120.550781 -25.164062 125.789062 -27.921875 130.125 -31.171875 C 134.457031 -34.429688 137.976562 -37.457031 140.6875 -40.25 C 143.40625 -43.050781 145.125 -45 145.84375 -46.09375 Z M 145.84375 -46.09375 "/></g></g></g><g fill="#004a98" fill-opacity="1"><g transform="translate(988.143202, 421.213256)"><g><path d="M 135.546875 0 L 6.5 0 L 6.5 -18.703125 L 28.734375 -18.703125 L 28.734375 -153.4375 L 6.5 -153.4375 L 6.5 -172.140625 L 78.625 -172.140625 L 78.625 -153.4375 L 54.21875 -153.4375 L 54.21875 -18.703125 L 114.9375 -18.703125 L 114.9375 -59.640625 L 135.546875 -59.640625 Z M 135.546875 0 "/></g></g></g><g fill="#004a98" fill-opacity="1"><g transform="translate(1132.368702, 421.213256)"><g><path d="M 144.21875 0 L 6.5 0 L 6.5 -18.703125 L 28.734375 -18.703125 L 28.734375 -153.4375 L 6.5 -153.4375 L 6.5 -172.140625 L 138.265625 -172.140625 L 138.265625 -126.328125 L 118.203125 -126.328125 L 118.203125 -153.4375 L 54.21875 -153.4375 L 54.21875 -98.140625 L 88.640625 -98.140625 L 88.640625 -118.203125 L 107.359375 -118.203125 L 107.359375 -59.09375 L 88.640625 -59.09375 L 88.640625 -79.96875 L 54.21875 -79.96875 L 54.21875 -18.703125 L 123.625 -18.703125 L 123.625 -55.84375 L 144.21875 -55.84375 Z M 144.21875 0 "/></g></g></g><g fill="#004a98" fill-opacity="1"><g transform="translate(1287.980471, 421.213256)"><g><path d="M 31.453125 0 L 10.84375 0 L 10.84375 -60.71875 L 31.171875 -60.71875 L 31.71875 -54.21875 C 32.4375 -45.539062 34.738281 -38.488281 38.625 -33.0625 C 42.507812 -27.644531 47.34375 -23.671875 53.125 -21.140625 C 58.914062 -18.609375 65.0625 -17.34375 71.5625 -17.34375 C 81.320312 -17.34375 89.179688 -19.738281 95.140625 -24.53125 C 101.109375 -29.320312 104.09375 -35.601562 104.09375 -43.375 C 104.09375 -51.320312 101.5625 -57.191406 96.5 -60.984375 C 91.445312 -64.785156 85.125 -68.222656 77.53125 -71.296875 L 45 -84.578125 C 40.664062 -86.390625 35.921875 -89.007812 30.765625 -92.4375 C 25.617188 -95.875 21.191406 -100.484375 17.484375 -106.265625 C 13.773438 -112.046875 11.921875 -119.457031 11.921875 -128.5 C 11.921875 -137.53125 14.085938 -145.523438 18.421875 -152.484375 C 22.765625 -159.441406 28.773438 -164.953125 36.453125 -169.015625 C 44.140625 -173.085938 52.953125 -175.125 62.890625 -175.125 C 72.828125 -175.125 80.734375 -173.675781 86.609375 -170.78125 C 92.484375 -167.894531 96.820312 -164.820312 99.625 -161.5625 C 102.425781 -158.3125 104.097656 -156.144531 104.640625 -155.0625 L 104.640625 -172.140625 L 124.96875 -172.140625 L 124.96875 -117.65625 L 104.90625 -117.65625 L 104.375 -123.625 C 103.46875 -133.738281 99.535156 -141.6875 92.578125 -147.46875 C 85.617188 -153.257812 77.351562 -156.15625 67.78125 -156.15625 C 58.375 -156.15625 51.003906 -153.984375 45.671875 -149.640625 C 40.347656 -145.304688 37.6875 -139.34375 37.6875 -131.75 C 37.6875 -124.15625 40.171875 -118.503906 45.140625 -114.796875 C 50.109375 -111.097656 56.390625 -107.710938 63.984375 -104.640625 L 95.96875 -91.625 C 100.125 -90 104.910156 -87.46875 110.328125 -84.03125 C 115.753906 -80.601562 120.5 -75.90625 124.5625 -69.9375 C 128.632812 -63.976562 130.671875 -56.207031 130.671875 -46.625 C 130.671875 -37.226562 128.273438 -28.78125 123.484375 -21.28125 C 118.691406 -13.78125 112.140625 -7.859375 103.828125 -3.515625 C 95.515625 0.816406 86.023438 2.984375 75.359375 2.984375 C 67.410156 2.984375 60.722656 2.03125 55.296875 0.125 C 49.878906 -1.769531 45.5 -4.023438 42.15625 -6.640625 C 38.8125 -9.265625 36.28125 -11.660156 34.5625 -13.828125 C 32.84375 -15.992188 31.804688 -17.347656 31.453125 -17.890625 Z M 31.453125 0 "/></g></g></g></svg>