<?xml version="1.0" encoding="UTF-8"?>
<svg version="1.1" xmlns="http://www.w3.org/2000/svg" width="5920" height="1650">
<path d="M0 0 C0.78777832 0.11857361 1.57555664 0.23714722 2.38720703 0.35931396 C22.76556392 3.44645334 42.97550199 7.07785457 63 12 C64.27955566 12.31275879 65.55911133 12.62551758 66.87744141 12.94775391 C88.63620956 18.30759974 109.86065577 24.94520427 131.01824951 32.31121826 C132.87427053 32.95630118 134.73223428 33.59578682 136.59033203 34.23486328 C162.21539097 43.06550207 186.70174297 54.02932399 211 66 C212.49320289 66.72715152 213.98665436 67.45379304 215.48046875 68.1796875 C247.88658278 84.03063537 278.73572179 102.94120737 308 124 C308.81098145 124.58281738 309.62196289 125.16563477 310.45751953 125.76611328 C321.0082034 133.37613272 331.25760077 141.27929815 341.27636719 149.57617188 C343.71230065 151.58840473 346.17042475 153.5730775 348.625 155.5625 C366.20938449 169.99744249 382.63938726 185.46435374 398.70068359 201.5703125 C401.02196315 203.89701445 403.34862663 206.21823828 405.67578125 208.5390625 C407.18000867 210.04394988 408.68392631 211.54914697 410.1875 213.0546875 C410.86989746 213.73506073 411.55229492 214.41543396 412.25537109 215.11642456 C416.15797435 219.03790166 419.88403386 223.06288259 423.493927 227.2558136 C425.56773901 229.65749978 427.72196483 231.98185755 429.875 234.3125 C434.7957178 239.71491457 439.42792553 245.30168859 444 251 C444.91225289 252.12020516 445.82503803 253.23997705 446.73828125 254.359375 C454.20884672 263.55671657 461.28476818 273.01635484 468.25195312 282.59912109 C469.95798097 284.94228839 471.67341837 287.27829906 473.390625 289.61328125 C486.41195498 307.38410826 497.82301428 326.02421424 509 345 C509.53850586 345.9089502 510.07701172 346.81790039 510.63183594 347.75439453 C552.89498364 419.4150945 581.10296751 499.77247171 582.01605225 876.35873413 C578.20909209 891.06687287 573.71112828 905.55989278 569 920 C568.43031494 921.76053711 568.43031494 921.76053711 567.84912109 923.55664062 C552.7323061 969.90491759 532.00903725 1015.50071794 506.71484375 1057.17333984 C504.9310227 1060.11369863 503.16776351 1063.06576225 501.40625 1066.01953125 C494.65099497 1077.29537147 487.64471307 1088.30741201 480 1099 C479.49114258 1099.71462402 478.98228516 1100.42924805 478.45800781 1101.16552734 C466.79834601 1117.51386165 454.81924709 1133.54043075 442 1149 C441.27466064 1149.87615967 441.27466064 1149.87615967 440.53466797 1150.77001953 C434.40388774 1158.15448608 428.06393697 1165.30400419 421.52612305 1172.33032227 C420.43530323 1173.52375 419.36030726 1174.73171903 418.29614258 1175.94897461 C411.01294494 1184.22989488 403.1848941 1191.96592401 395.37963867 1199.75073242 C392.93618078 1202.18881632 390.49813193 1204.63221789 388.06054688 1207.07617188 C386.48729979 1208.64875833 384.91374263 1210.22103464 383.33984375 1211.79296875 C382.62191147 1212.51292526 381.90397919 1213.23288177 381.16429138 1213.97465515 C376.6018909 1218.51624598 371.87815549 1222.80153179 367 1227 C365.39231627 1228.45445517 363.78760285 1229.91220895 362.1875 1231.375 C353.15415317 1239.51463671 343.56090205 1246.9743697 333.97900391 1254.45068359 C331.86969852 1256.10201002 329.76866689 1257.76352199 327.66796875 1259.42578125 C318.68177831 1266.51173946 309.56459793 1273.27214809 300.04931641 1279.63037109 C297.91742438 1281.05518814 295.79250728 1282.49002654 293.66796875 1283.92578125 C276.9958334 1295.15757409 260.04337948 1305.75921454 242.50634766 1315.59033203 C240.1573016 1316.91152743 237.81781931 1318.24809826 235.48046875 1319.58984375 C223.61339358 1326.35851115 211.39085397 1332.25722783 199 1338 C197.81680176 1338.55236328 196.63360352 1339.10472656 195.41455078 1339.67382812 C177.53919396 1348.00802834 159.52217855 1355.64031433 140.9440918 1362.30206299 C138.93596731 1363.022988 136.92986926 1363.74937424 134.92382812 1364.47607422 C112.59414583 1372.53754268 90.04160185 1379.2892675 67 1385 C65.90229279 1385.27296906 65.90229279 1385.27296906 64.78240967 1385.55145264 C29.49589446 1394.28478399 -6.74988784 1400.2322186 -43 1403 C-44.95607178 1403.15227051 -44.95607178 1403.15227051 -46.95166016 1403.30761719 C-126.08817076 1409.29064578 -206.3123148 1402.33452058 -401.93896484 1338.45263672 C-404.93880997 1337.02903818 -407.94676639 1335.62406364 -410.95703125 1334.22265625 C-439.30372571 1320.95303062 -466.09113255 1305.08034087 -492.125 1287.75 C-492.80793121 1287.29627014 -493.49086243 1286.84254028 -494.19448853 1286.37506104 C-513.63822805 1273.42977132 -532.10511991 1259.28645107 -550.17089844 1244.49267578 C-551.78732209 1243.17356017 -553.41254521 1241.86524325 -555.0390625 1240.55859375 C-560.98030683 1235.77306698 -566.63085629 1230.74949726 -572.21875 1225.5625 C-574.50787222 1223.4534211 -576.82475164 1221.40021288 -579.1875 1219.375 C-582.89593731 1216.16562775 -586.31345151 1212.70714829 -589.75 1209.2109375 C-592.52814845 1206.4810208 -595.46021885 1203.97910594 -598.46875 1201.5078125 C-600 1200 -600 1200 -601 1197 C-601.85851562 1196.58621094 -601.85851562 1196.58621094 -602.734375 1196.1640625 C-605.90601385 1194.53449633 -607.93356319 1192.01609509 -610.25 1189.375 C-611.22768354 1188.28252506 -612.20685737 1187.19138204 -613.1875 1186.1015625 C-613.66574219 1185.56950195 -614.14398437 1185.03744141 -614.63671875 1184.48925781 C-616.44659871 1182.5121325 -618.33629172 1180.62633116 -620.25 1178.75 C-624.04598725 1174.99983955 -627.52500239 1171.046586 -631 1167 C-631.95616783 1165.90679629 -632.91328155 1164.81441953 -633.87109375 1163.72265625 C-647.32367579 1148.35829381 -659.87656241 1132.43130778 -672 1116 C-672.8353125 1114.87489014 -672.8353125 1114.87489014 -673.6875 1113.72705078 C-728.8549619 1039.31396891 -768.30389814 952.28101057 -806 759 C-806.10441406 757.81293457 -806.20882812 756.62586914 -806.31640625 755.40283203 C-809.57007079 716.93030814 -809.6385579 677.44289445 -806 639 C-805.92458984 638.19530273 -805.84917969 637.39060547 -805.77148438 636.56152344 C-801.05648393 586.78997878 -791.97260777 537.73940898 -777 490 C-776.66838867 488.94135742 -776.66838867 488.94135742 -776.33007812 487.86132812 C-759.62080808 434.70407526 -736.81968935 383.71102484 -708 336 C-707.45102051 335.08782715 -706.90204102 334.1756543 -706.33642578 333.23583984 C-688.83868301 304.25991022 -668.92176443 276.99728458 -647.48828125 250.82470703 C-646.18131341 249.22229928 -644.88652979 247.60996982 -643.59375 245.99609375 C-638.57277049 239.74715729 -633.25020716 233.85365067 -627.78125 228 C-625.58932351 225.64983283 -623.46347694 223.25562396 -621.375 220.8125 C-617.92640251 216.81717364 -614.1707917 213.15662176 -610.41796875 209.44921875 C-607.69382113 206.68986405 -605.16658369 203.80627028 -602.640625 200.8671875 C-598.16912921 195.77819943 -593.22737025 191.29615277 -588.1015625 186.8828125 C-585.81334889 184.83277726 -583.65739418 182.68704908 -581.5 180.5 C-577.49243772 176.45161366 -573.33285379 172.69417517 -569 169 C-567.98255917 168.1190826 -566.96567721 167.23751948 -565.94921875 166.35546875 C-552.98970118 155.13826549 -539.72997454 144.26374395 -526 134 C-525.39655762 133.54786133 -524.79311523 133.09572266 -524.17138672 132.62988281 C-503.016421 116.86693853 -480.86918411 102.15114321 -458 89 C-457.11892578 88.48953125 -456.23785156 87.9790625 -455.33007812 87.453125 C-448.5952393 83.55873399 -441.81727057 79.74814975 -435 76 C-434.05125 75.47825195 -433.1025 74.95650391 -432.125 74.41894531 C-357.36517427 33.66163543 -274.29548977 9.27806898 0 0 Z " fill="#FEFEFE" transform="translate(913,121)"/>
<path d="M0 0 C2.93593596 0.0000806 5.87171367 -0.00677288 8.80761719 -0.02050781 C37.52602485 -0.15239525 66.01687349 1.13607851 94.5637207 4.43530273 C95.50169495 4.5416806 96.43966919 4.64805847 97.40606689 4.75765991 C116.14599461 6.89563953 134.71702523 9.69590783 153.2512207 13.18530273 C154.02320801 13.32989929 154.79519531 13.47449585 155.59057617 13.62347412 C217.31310657 25.2272719 277.54253401 43.65059869 334.7644043 69.60717773 C337.98863333 71.0664563 341.22118338 72.50478665 344.45825195 73.93530273 C355.52871715 78.85383181 366.28700329 84.20140049 376.9465332 89.95288086 C379.22520037 91.17138847 381.51606804 92.36240954 383.8137207 93.54467773 C434.0937971 119.4690083 480.88947402 151.96165036 524.2512207 188.18530273 C525.15445068 188.9377124 525.15445068 188.9377124 526.07592773 189.70532227 C532.6935156 195.22461688 539.18430832 200.85810213 545.52075195 206.70092773 C547.68935235 208.67407488 549.87877947 210.60964197 552.09106445 212.53295898 C563.09513684 222.13749807 573.53577878 232.37646832 583.8762207 242.68530273 C584.70476562 243.50925537 585.53331055 244.33320801 586.38696289 245.18212891 C590.6179781 249.42388928 594.68719251 253.74037743 598.59350586 258.2824707 C601.34515804 261.44099458 604.24514181 264.4578319 607.1262207 267.49780273 C611.96426895 272.64245193 616.58540318 277.87794094 620.9934082 283.40014648 C623.10644978 286.00671854 625.28004336 288.54075239 627.48486328 291.0690918 C634.21503674 298.79725105 640.45100769 306.84131443 646.61450195 315.02514648 C648.21856039 317.14219736 649.84038594 319.24410666 651.4699707 321.34155273 C675.36564007 352.14388353 696.4208423 385.0767156 715.2512207 419.18530273 C716.08024902 420.67876221 716.08024902 420.67876221 716.92602539 422.20239258 C738.04614565 460.35388505 755.85958494 500.01154989 770.2512207 541.18530273 C770.4813385 541.84278503 770.7114563 542.50026733 770.94854736 543.17767334 C793.93846233 608.99742737 808.35431504 677.16923111 813.9387207 746.68530273 C813.99974976 747.43870941 814.06077881 748.19211609 814.12365723 748.96835327 C815.93047896 771.63911631 816.48838838 794.32293841 816.5012207 817.06030273 C816.50222778 818.31721924 816.50323486 819.57413574 816.50427246 820.86914062 C816.49198276 843.75835512 815.50934656 866.41107816 813.2512207 889.18530273 C813.17861023 889.9294342 813.10599976 890.67356567 813.03118896 891.44024658 C805.22327981 970.97334532 785.41652164 1049.1594287 713.8996582 1206.29418945 C712.26380571 1209.16323051 710.65913842 1212.04751438 709.0637207 1214.93920898 C701.89485909 1227.89420104 694.1575009 1240.35091613 685.93481445 1252.6628418 C684.4476679 1254.89097379 682.97142952 1257.12566472 681.5012207 1259.36499023 C672.54890089 1272.96569754 663.1327852 1286.24432147 653.2512207 1299.18530273 C652.48551758 1300.19592773 651.71981445 1301.20655273 650.9309082 1302.24780273 C641.23643681 1314.99529446 631.06386577 1327.36268217 620.65893555 1339.53491211 C619.14939282 1341.30468472 617.64739098 1343.08069552 616.14575195 1344.85717773 C606.97980234 1355.66902542 606.97980234 1355.66902542 601.9389801 1360.49659729 C600.19835258 1362.23820049 598.60175625 1364.05276963 597.00097656 1365.92333984 C593.50556902 1369.94256776 589.83914195 1373.74257021 586.06762695 1377.50170898 C585.40842758 1378.16186508 584.74922821 1378.82202118 584.0700531 1379.50218201 C582.68725235 1380.88565779 581.30320995 1382.26789357 579.91796875 1383.64892578 C577.81891727 1385.74261943 575.7252613 1387.84160148 573.63208008 1389.94116211 C572.27758284 1391.29499844 570.92277539 1392.64852449 569.56762695 1394.00170898 C568.95278946 1394.61857071 568.33795197 1395.23543243 567.70448303 1395.87098694 C563.96229761 1399.59342834 560.10512495 1403.12995272 556.10296631 1406.57167053 C552.96199026 1409.30875282 549.96215006 1412.19492176 546.9387207 1415.06030273 C541.77537383 1419.91559084 536.52144656 1424.55918798 530.98168945 1428.98608398 C527.91689554 1431.45458037 524.92900774 1434.00269101 521.9387207 1436.56030273 C515.7422303 1441.83497071 509.38525692 1446.88403311 502.95239258 1451.86645508 C501.33486465 1453.12045707 499.72258153 1454.38121572 498.1105957 1455.64233398 C431.37241293 1507.5404937 355.60308663 1548.07609829 92.1262207 1618.37280273 C91.45276611 1618.45170746 90.77931152 1618.53061218 90.08544922 1618.61190796 C62.73249088 1621.78083802 35.38051309 1622.56451442 7.87579727 1622.50315857 C5.33462628 1622.49771361 2.79346461 1622.49534968 0.25228882 1622.49328613 C-24.13114702 1622.46244353 -48.36735376 1622.05052361 -72.63079834 1619.41314697 C-74.78398591 1619.18151534 -76.93815991 1618.96281832 -79.09301758 1618.74731445 C-156.36914016 1610.96064247 -233.18597392 1591.78345895 -417.49536133 1504.19555664 C-420.53023402 1502.32033964 -423.57318223 1500.45920572 -426.61987305 1498.60327148 C-437.23371394 1492.11976772 -447.61164069 1485.39163597 -457.7487793 1478.18530273 C-458.46098633 1477.6803125 -459.17319336 1477.17532227 -459.90698242 1476.6550293 C-476.03961291 1465.18717079 -491.70435871 1453.18475938 -506.99731445 1440.62084961 C-508.54853211 1439.34943062 -510.10710864 1438.08700163 -511.66674805 1436.82592773 C-524.19971488 1426.68107423 -536.18167656 1415.98091296 -547.90454102 1404.91625977 C-549.67659934 1403.25304908 -551.46148864 1401.60520468 -553.25268555 1399.96264648 C-561.09425584 1392.75468374 -568.70871486 1385.33139194 -576.2487793 1377.81030273 C-577.18085205 1376.88282227 -578.1129248 1375.9553418 -579.07324219 1374.99975586 C-583.60847481 1370.45429677 -588.01237641 1365.85991284 -592.19311523 1360.98608398 C-594.59234437 1358.20882188 -597.11340427 1355.54918439 -599.6237793 1352.87280273 C-604.09976039 1348.06121028 -608.34980531 1343.12648503 -612.4675293 1338.00170898 C-615.86270536 1333.81006182 -619.37395014 1329.71992012 -622.87768555 1325.61889648 C-636.09015628 1309.95870185 -648.37757963 1293.50673056 -659.8112793 1276.51342773 C-661.95738532 1273.32754166 -664.16719293 1270.20372832 -666.44189453 1267.10888672 C-684.0793158 1243.06646926 -698.74780806 1216.46660183 -712.7487793 1190.18530273 C-713.29115234 1189.17435547 -713.83352539 1188.1634082 -714.39233398 1187.12182617 C-735.14687747 1148.33130895 -751.68102505 1107.8357709 -765.7487793 1066.18530273 C-765.96707397 1065.54197998 -766.18536865 1064.89865723 -766.41027832 1064.23583984 C-786.49639065 1004.92816659 -798.40509316 942.51144229 -803.7487793 880.18530273 C-803.84202484 879.13669571 -803.93527039 878.08808868 -804.03134155 877.00770569 C-805.86626472 855.95513557 -806.09252593 834.97824676 -806.06445312 813.85961914 C-806.05983455 810.09094262 -806.06671624 806.32258987 -806.08496094 802.55395508 C-806.20604021 777.27429627 -805.32106829 752.3384815 -802.7487793 727.18530273 C-802.64409332 726.14764771 -802.53940735 725.10999268 -802.43154907 724.04089355 C-801.87244892 718.61832236 -801.22381455 713.21301198 -800.4987793 707.81030273 C-800.39617798 707.02887909 -800.29357666 706.24745544 -800.18786621 705.44235229 C-794.17720544 659.91458986 -784.40387339 615.02564737 -770.7487793 571.18530273 C-770.39749969 570.05668823 -770.39749969 570.05668823 -770.03912354 568.90527344 C-753.62665739 516.38877834 -731.90602597 465.06605527 -704.7487793 417.18530273 C-704.17160156 416.16130371 -703.59442383 415.13730469 -702.99975586 414.08227539 C-690.58371057 392.09841636 -677.19590414 370.88659418 -662.7487793 350.18530273 C-662.22509766 349.43345703 -661.70141602 348.68161133 -661.16186523 347.90698242 C-641.62587445 319.90337953 -620.41290296 292.92457464 -597.20581055 267.86108398 C-595.13483699 265.60573122 -593.11727305 263.32125408 -591.1237793 260.99780273 C-587.90607653 257.27973949 -584.43526577 253.85575561 -580.9362793 250.40405273 C-578.95157588 248.39099641 -577.08781013 246.33083871 -575.2487793 244.18530273 C-569.59903134 237.6222006 -563.41620013 231.69356989 -556.84643555 226.06420898 C-554.38452029 223.85902977 -552.07154289 221.53643596 -549.7487793 219.18530273 C-546.2370138 215.63612116 -542.65869029 212.26561816 -538.8659668 209.02124023 C-536.34278475 206.83324104 -533.8932341 204.57237161 -531.4362793 202.31030273 C-526.55945347 197.86712079 -521.53363229 193.66681836 -516.39916992 189.52661133 C-514.50039129 187.98343237 -512.61622191 186.42339477 -510.7331543 184.86108398 C-502.20379109 177.78616095 -493.62295201 170.82614592 -484.7487793 164.18530273 C-484.03995605 163.65437012 -483.33113281 163.1234375 -482.60083008 162.57641602 C-458.8651237 144.84341726 -434.26747543 128.25394726 -408.7487793 113.18530273 C-407.78004883 112.61263672 -406.81131836 112.0399707 -405.81323242 111.44995117 C-339.60160273 72.51751291 -268.28796262 42.84484597 -193.7487793 24.18530273 C-192.58185547 23.89059082 -191.41493164 23.59587891 -190.21264648 23.29223633 C-127.98371432 7.72199194 -64.10967685 -0.00908906 0 0 Z M-55.7487793 66.18530273 C-57.59463623 66.33008057 -57.59463623 66.33008057 -59.4777832 66.4777832 C-94.96337582 69.3565265 -130.02205791 75.46566005 -164.7487793 83.18530273 C-165.86494629 83.4321582 -166.98111328 83.67901367 -168.13110352 83.93334961 C-219.73303512 95.56717833 -270.25295304 114.20984192 -317.80682373 137.24523926 C-319.7842784 138.20248717 -321.76375863 139.15545508 -323.7434082 140.1081543 C-341.61307114 148.7279178 -358.8347586 158.01410243 -375.76391602 168.37036133 C-378.52670702 170.05027204 -381.305246 171.69766664 -384.09643555 173.32983398 C-407.76567773 187.20308622 -430.15109641 203.28860804 -451.7487793 220.18530273 C-452.89961396 221.07749689 -454.05066162 221.96941637 -455.2019043 222.86108398 C-461.61205273 227.84272549 -467.90548555 232.93332657 -474.07397461 238.21166992 C-477.33263876 240.99944028 -480.64114822 243.7039165 -483.9987793 246.37280273 C-491.19910199 252.23547477 -497.83717821 258.70647588 -504.55688477 265.10668945 C-507.34943416 267.75491462 -510.16664799 270.37596006 -512.98461914 272.99707031 C-527.45526138 286.44642811 -527.45526138 286.44642811 -540.8190918 300.97436523 C-542.9599164 303.42721285 -545.17729893 305.79612404 -547.40600586 308.16894531 C-552.71593899 313.82225814 -557.79684118 319.56033639 -562.6472168 325.61889648 C-564.72879356 328.16089637 -566.8991631 330.58059609 -569.1237793 332.99780273 C-574.68383306 339.12344817 -579.72980993 345.61715411 -584.7487793 352.18530273 C-585.60415283 353.30388672 -585.60415283 353.30388672 -586.47680664 354.44506836 C-614.54586235 391.26635318 -639.39158538 430.10962034 -660.7487793 471.18530273 C-661.53913574 472.69809814 -661.53913574 472.69809814 -662.34545898 474.24145508 C-699.50792183 545.71415578 -723.18285054 624.02927262 -741.9519043 785.89624023 C-741.95892706 787.46300789 -741.96601388 789.02977526 -741.97315979 790.59654236 C-741.99258303 795.58446661 -741.99759484 800.57234449 -741.9987793 805.56030273 C-741.99922115 806.41052883 -741.99966301 807.26075493 -742.00011826 808.13674545 C-742.00732902 834.59443262 -741.63572498 860.85905783 -738.7487793 887.18530273 C-738.66392273 887.98087585 -738.57906616 888.77644897 -738.49163818 889.59613037 C-735.81156046 914.67386715 -731.79646348 939.47846152 -726.7487793 964.18530273 C-726.59944946 964.91710754 -726.45011963 965.64891235 -726.29626465 966.40289307 C-711.17353959 1040.02798491 -683.98779181 1111.89752182 -646.7487793 1177.18530273 C-646.20543945 1178.14162598 -645.66209961 1179.09794922 -645.10229492 1180.08325195 C-619.12004633 1225.65587897 -588.39790774 1268.87710482 -553.0144043 1307.67358398 C-551.13039525 1309.7622354 -549.27772066 1311.87129539 -547.43237305 1313.99389648 C-537.8127446 1325.00479351 -527.56835105 1335.45909055 -517.2487793 1345.81030273 C-516.42482666 1346.63884766 -515.60087402 1347.46739258 -514.75195312 1348.32104492 C-510.50003406 1352.56219309 -506.17342191 1356.64309239 -501.62036133 1360.55883789 C-498.64727014 1363.14254954 -495.80128453 1365.85816175 -492.9362793 1368.56030273 C-488.02764724 1373.14887761 -483.03030535 1377.5445256 -477.78393555 1381.74780273 C-474.69168105 1384.2311577 -471.63798622 1386.75660566 -468.58618164 1389.28930664 C-455.05102567 1400.50636925 -441.07481994 1411.00288654 -426.7487793 1421.18530273 C-425.85304199 1421.82306641 -424.95730469 1422.46083008 -424.03442383 1423.11791992 C-410.57782209 1432.67138305 -396.91668103 1441.72242463 -382.7487793 1450.18530273 C-381.82548828 1450.73895508 -380.90219727 1451.29260742 -379.95092773 1451.86303711 C-334.13785859 1479.24161404 -286.16600327 1501.70077799 -235.7487793 1519.18530273 C-234.64856445 1519.56847656 -233.54834961 1519.95165039 -232.41479492 1520.34643555 C-172.29899673 1541.04820863 -109.05046208 1552.56439777 -45.7487793 1557.18530273 C-45.05353149 1557.23831543 -44.35828369 1557.29132813 -43.64196777 1557.34594727 C-28.03734857 1558.50716915 -12.38780929 1558.42939844 3.2512207 1558.43530273 C3.96713379 1558.43589188 4.68304687 1558.43648102 5.4206543 1558.43708801 C30.13894628 1558.45140856 54.64563849 1557.69017265 79.2512207 1555.18530273 C80.67845912 1555.04459988 82.10570509 1554.90397352 83.53295898 1554.76342773 C160.89762942 1547.00658954 236.93404796 1526.15110095 374.48364258 1460.78686523 C377.12240876 1459.25984458 379.77158511 1457.75255016 382.4230957 1456.24780273 C405.90515489 1442.78673558 428.62011734 1427.44972882 450.2512207 1411.18530273 C450.97680176 1410.64083496 451.70238281 1410.09636719 452.44995117 1409.53540039 C472.17606294 1394.68874915 490.94908404 1378.74612364 509.2512207 1362.18530273 C510.52920532 1361.03759399 510.52920532 1361.03759399 511.83300781 1359.86669922 C519.79386411 1352.65703995 527.43463213 1345.15593614 535.01660156 1337.55029297 C537.07479227 1335.48670212 539.1383305 1333.42856598 541.20239258 1331.37084961 C542.53800004 1330.03458184 543.87329754 1328.69800417 545.20825195 1327.36108398 C545.81256546 1326.75879471 546.41687897 1326.15650543 547.039505 1325.53596497 C550.74677483 1321.80859492 554.26445732 1317.96012087 557.69673157 1313.97790527 C559.94583899 1311.38428426 562.28632146 1308.88485672 564.6262207 1306.37280273 C568.84520324 1301.80097817 572.86269538 1297.11275429 576.76293945 1292.26342773 C578.62182557 1289.96389515 580.49736846 1287.68616726 582.39575195 1285.41967773 C590.76843967 1275.40209877 598.72291183 1265.12550529 606.46362305 1254.61254883 C607.60638001 1253.06088402 608.75224052 1251.51149702 609.90209961 1249.96508789 C624.02867087 1230.96308969 636.92075054 1211.02479759 648.85375977 1190.57885742 C649.78086854 1188.99091639 650.7124724 1187.40559075 651.64868164 1185.82299805 C693.44980958 1115.12948744 722.49741331 1037.06784151 750.0012207 876.06030273 C750.06047729 875.39044342 750.11973389 874.72058411 750.18078613 874.03042603 C751.75750358 855.87819908 752.45957939 837.77863026 752.4387207 819.56030273 C752.43811646 818.57174286 752.43751221 817.58318298 752.43688965 816.56466675 C752.29928303 732.50464268 739.71299777 648.98004938 709.2512207 561.18530273 C708.82486328 559.96713867 708.39850586 558.74897461 707.95922852 557.49389648 C698.48984306 530.61015349 686.82418105 504.74524596 674.2512207 479.18530273 C673.56072642 477.7649194 672.87058164 476.34436606 672.1809082 474.92358398 C653.30374661 436.30566358 630.08005922 399.5367316 604.2512207 365.18530273 C603.70675293 364.45972168 603.16228516 363.73414063 602.60131836 362.98657227 C590.2052174 346.51640205 577.10553694 330.6646342 563.2512207 315.40014648 C561.45518541 313.41117772 559.69168767 311.39967079 557.9387207 309.37280273 C548.82602007 298.97576175 539.26254937 289.09306657 529.5012207 279.31030273 C528.95806213 278.76455597 528.41490356 278.2188092 527.85528564 277.65652466 C522.40102211 272.18180429 516.93679057 266.7699583 511.05737305 261.74633789 C507.92260348 259.03699528 504.94548535 256.15984831 501.9387207 253.31030273 C495.91912655 247.65065696 489.71799673 242.33133025 483.2512207 237.18530273 C481.56254791 235.79088847 479.87508748 234.39500495 478.1887207 232.99780273 C465.28233258 222.45636358 452.03010575 212.40625542 438.44946289 202.7512207 C436.29676253 201.21774446 434.15231602 199.67331061 432.0090332 198.12670898 C408.2953475 181.09293475 382.98095075 165.96133438 357.2512207 152.18530273 C355.85105713 151.43095947 355.85105713 151.43095947 354.42260742 150.66137695 C285.44689401 113.66159856 209.98550601 87.60337474 117.2512207 72.18530273 C116.14864929 72.01417969 116.14864929 72.01417969 115.02380371 71.83959961 C58.69966719 63.11796613 1.04242756 61.57358826 -55.7487793 66.18530273 Z " fill="#FEFEFE" transform="translate(805.748779296875,8.814697265625)"/>
<path d="M0 0 C43.04110554 -0.04420506 86.08218943 -0.0810892 129.12331123 -0.10213066 C134.22063526 -0.10463166 139.31795924 -0.10722034 144.4152832 -0.10986328 C145.42994183 -0.1103879 146.44460046 -0.11091252 147.49000632 -0.11145304 C163.85524939 -0.12012298 180.2204782 -0.13587387 196.58571286 -0.15430559 C213.41513635 -0.17310009 230.24455244 -0.18413676 247.07398599 -0.18817699 C257.43375167 -0.19090239 267.79347705 -0.19946606 278.1532303 -0.21583293 C285.28599984 -0.22651813 292.41874897 -0.22957498 299.5515259 -0.22700275 C303.64845791 -0.22573911 307.74532022 -0.22748159 311.84223938 -0.23841095 C349.16377031 -0.33289111 385.69850285 1.62411663 422 11 C422.89315918 11.23058105 423.78631836 11.46116211 424.70654297 11.69873047 C459.06391014 20.79507628 490.45204271 37.41823767 515.60546875 62.609375 C516.98636221 63.98801578 518.38223987 65.35264711 519.81640625 66.67578125 C548.23128619 93.31075819 563.88350689 133.57994234 571 171 C571.16516113 171.845625 571.33032227 172.69125 571.50048828 173.5625 C580.13361341 219.84390712 572.77392904 268.684517 550.91992188 310.24121094 C550.12104593 311.76857355 549.34728288 313.3090206 548.578125 314.8515625 C536.37151059 338.6185588 517.3065876 359.18425197 496 375 C495.45972168 375.40105957 494.91944336 375.80211914 494.36279297 376.21533203 C486.22648812 382.18663306 477.69591079 387.2426016 468.81933594 392.01708984 C467.2685904 392.85489198 465.73051405 393.71607494 464.1953125 394.58203125 C450.20679672 402.11590547 434.34101408 407.06821127 419 411 C419 414.33651708 419.50187924 415.16125123 421.24609375 417.90234375 C421.74471924 418.69535889 422.24334473 419.48837402 422.75708008 420.30541992 C423.31161865 421.17400635 423.86615723 422.04259277 424.4375 422.9375 C425.63932788 424.8481368 426.83977861 426.75964035 428.0390625 428.671875 C428.68262695 429.69603516 429.32619141 430.72019531 429.98925781 431.77539062 C433.11933047 436.79506033 436.18119919 441.85581935 439.24221802 446.91775513 C445.12032934 456.63739681 451.03657328 466.33238911 457 476 C462.89966601 485.56503996 468.74917238 495.15908013 474.57275391 504.77050781 C479.68183969 513.20108126 484.82494789 521.60967883 490 530 C495.89962187 539.56506741 501.74917218 549.1590798 507.57275391 558.77050781 C513.32781557 568.26701503 519.13345106 577.73128539 524.96289062 587.18237305 C530.70705529 596.50385688 536.39452601 605.85903774 542.06640625 615.22460938 C542.72511719 616.31193359 543.38382813 617.39925781 544.0625 618.51953125 C544.70316406 619.57865723 545.34382813 620.6377832 546.00390625 621.72900391 C547.4156794 624.04247464 548.83792294 626.34601246 550.27734375 628.64208984 C550.64915771 629.23761154 551.02097168 629.83313324 551.40405273 630.44670105 C552.44303615 632.10812845 553.48700051 633.76643795 554.53125 635.42456055 C556 638 556 638 556 640 C583.72 640 611.44 640 640 640 C640 665.74 640 691.48 640 718 C599.27602298 718.68515158 599.27602298 718.68515158 582.19140625 718.83007812 C570.40057481 718.93090224 558.61181055 719.04932241 546.82275391 719.2824707 C538.23591663 719.45220843 529.65075785 719.5616536 521.0622896 719.59950441 C516.51588904 719.6216266 511.97428876 719.67336997 507.42943192 719.79741096 C479.78144047 720.52335861 479.78144047 720.52335861 473.53497314 716.35508537 C469.87630158 712.45222361 468.06467483 708.19401665 466.64766312 703.09192657 C465.65571143 699.88796138 464.00962534 697.33395322 462.234375 694.49609375 C461.07232581 692.47690242 459.91087325 690.45736763 458.75 688.4375 C453.85913459 679.94310062 448.94612476 671.4623405 444 663 C437.25280507 651.45281274 430.56660602 639.87097832 423.89111328 628.28222656 C420.76319854 622.85340062 417.63146269 617.42677993 414.5 612 C410.73636081 605.47766725 406.97355378 598.95486238 403.21484375 592.4296875 C397.16944841 581.93767906 391.10889781 571.45518324 385 561 C378.25298806 549.45270484 371.56660682 537.87097973 364.89111328 526.28222656 C361.76319854 520.85340062 358.63146269 515.42677993 355.5 510 C351.73636081 503.47766725 347.97355378 496.95486238 344.21484375 490.4296875 C338.14636231 479.89740507 332.0640067 469.37365544 325.9375 458.875 C325.37393799 457.90852539 324.81037598 456.94205078 324.22973633 455.94628906 C321.16924739 450.70173386 318.09656235 445.46464481 315.01171875 440.234375 C314.36146729 439.12852051 313.71121582 438.02266602 313.04125977 436.88330078 C311.78624184 434.74933859 310.5277434 432.61741863 309.26538086 430.48779297 C308.42632202 429.05910889 308.42632202 429.05910889 307.5703125 427.6015625 C307.07289551 426.75932129 306.57547852 425.91708008 306.06298828 425.04931641 C305 423 305 423 305 421 C270.02 421 235.04 421 199 421 C199 493.27 199 565.54 199 640 C227.38 640 255.76 640 285 640 C285 665.74 285 691.48 285 718 C190.95 718 96.9 718 0 718 C0 692.26 0 666.52 0 640 C30.36 640 60.72 640 92 640 C92 454.87 92 269.74 92 79 C61.64 79 31.28 79 0 79 C0 52.93 0 26.86 0 0 Z M199 79 C199 166.12 199 253.24 199 343 C282.97376773 346.31492703 282.97376773 346.31492703 371 338 C372.25167969 337.73574219 373.50335937 337.47148438 374.79296875 337.19921875 C395.9205227 332.14552566 414.82537777 321.53881316 430 306 C430.70640625 305.27941406 431.4128125 304.55882812 432.140625 303.81640625 C458.04248201 276.13979237 465.96425039 239.19811441 465.140625 202.38720703 C464.58173376 188.92530251 462.30153227 175.76483583 458 163 C457.65324219 161.87851562 457.30648437 160.75703125 456.94921875 159.6015625 C452.05657552 144.63780829 443.89643808 132.09183508 434 120 C433.51402344 119.34902344 433.02804687 118.69804688 432.52734375 118.02734375 C414.9250776 95.25743983 382.78040575 84.89949877 355.5 81.25 C354.63640869 81.13438721 353.77281738 81.01877441 352.88305664 80.8996582 C303.32564035 74.9189822 242.96240126 79 199 79 Z " fill="#FEFEFE" transform="translate(2756,473)"/>
<path d="M0 0 C181.5 0 363 0 550 0 C550 63.36 550 126.72 550 192 C521.95 192 493.9 192 465 192 C465 154.71 465 117.42 465 79 C377.55 79 290.1 79 200 79 C200 154.9 200 230.8 200 309 C246.86 309 293.72 309 342 309 C342 281.28 342 253.56 342 225 C368.07 225 394.14 225 421 225 C421 306.51 421 388.02 421 472 C394.93 472 368.86 472 342 472 C342 443.29 342 414.58 342 385 C295.14 385 248.28 385 200 385 C200 469.15 200 553.3 200 640 C295.04 640 390.08 640 488 640 C488 588.85 488 537.7 488 485 C516.71 485 545.42 485 575 485 C575 561.89 575 638.78 575 718 C385.25 718 195.5 718 0 718 C0 692.26 0 666.52 0 640 C30.36 640 60.72 640 92 640 C92 454.87 92 269.74 92 79 C61.64 79 31.28 79 0 79 C0 52.93 0 26.86 0 0 Z " fill="#FEFEFE" transform="translate(4745,473)"/>
<path d="M0 0 C0.88977539 -0.00067474 1.77955078 -0.00134949 2.69628906 -0.00204468 C17.29764585 0.01549872 31.52724988 0.73309883 45.9375 3.25 C46.91992676 3.41628906 47.90235352 3.58257812 48.91455078 3.75390625 C74.85449702 8.27320645 100.84520803 16.59471721 122.9375 31.25 C124.41863281 32.21292969 124.41863281 32.21292969 125.9296875 33.1953125 C134.49040418 38.92298625 142.2969785 45.35057415 149.9375 52.25 C151.06285156 53.26513672 151.06285156 53.26513672 152.2109375 54.30078125 C159.83812169 61.56995475 166.52691344 70.23235573 171.9375 79.25 C172.2675 57.14 172.5975 35.03 172.9375 12.25 C201.3175 12.25 229.6975 12.25 258.9375 12.25 C258.9375 87.49 258.9375 162.73 258.9375 240.25 C230.8875 240.25 202.8375 240.25 173.9375 240.25 C172.6175 228.7 171.2975 217.15 169.9375 205.25 C164.41075321 173.4235616 151.19468464 141.26628323 125.9453125 119.953125 C124.66518259 118.86725605 123.40686867 117.75474409 122.1796875 116.609375 C110.44260964 105.73606478 96.52094339 98.51637435 81.9375 92.25 C80.21660156 91.50943359 80.21660156 91.50943359 78.4609375 90.75390625 C39.681675 75.61017965 -9.79198556 76.96740257 -48.0625 93.25 C-70.54296652 103.51530122 -88.97644079 119.79784716 -98.0625 143.25 C-106.49218086 169.02741199 -107.74315712 198.96004872 -95.30859375 223.74609375 C-91.30921145 231.1686592 -86.66147624 237.93262151 -81.0625 244.25 C-80.52238281 244.86101562 -79.98226562 245.47203125 -79.42578125 246.1015625 C-62.31514434 264.24795225 -37.49137311 275.08722881 -15.125 285.125 C-14.10929932 285.58253662 -13.09359863 286.04007324 -12.04711914 286.51147461 C-2.38119099 290.79605123 7.43902352 294.67798223 17.26147461 298.58642578 C28.11737111 302.90908648 38.93113833 307.33568594 49.75 311.75 C52.1010615 312.70869005 54.45213595 313.66734835 56.80322266 314.62597656 C63.84859671 317.49914507 70.89311423 320.37440947 77.9375 323.25 C80.06396426 324.11783997 82.19042909 324.98567856 84.31689453 325.85351562 C130.06312844 344.52597758 130.06312844 344.52597758 145.9375 351.25 C146.71480469 351.57548828 147.49210937 351.90097656 148.29296875 352.23632812 C172.69781006 362.4913336 196.924642 375.76664822 216.9375 393.25 C217.71351562 393.91773438 218.48953125 394.58546875 219.2890625 395.2734375 C258.19008738 429.48164033 278.99423404 473.18098897 282.54711914 524.8918457 C285.46935949 576.58246584 268.77823951 628.27908915 234.34765625 667.17578125 C225.5331689 676.96358048 216.5032328 686.32945777 205.9375 694.25 C205.42203613 694.63655762 204.90657227 695.02311523 204.37548828 695.42138672 C146.98474267 738.16350479 74.91126904 750.02420459 4.9375 740.25 C-44.13590892 732.59351296 -91.25638778 710.04323076 -122.0625 670.25 C-124.7025 666.62 -127.3425 662.99 -130.0625 659.25 C-130.3925 682.68 -130.7225 706.11 -131.0625 730.25 C-159.7725 730.25 -188.4825 730.25 -218.0625 730.25 C-218.0625 646.76 -218.0625 563.27 -218.0625 477.25 C-189.6825 477.25 -161.3025 477.25 -132.0625 477.25 C-130.0625 495.25 -130.0625 495.25 -129.38671875 502.10546875 C-125.69698871 539.50880579 -115.7584794 575.07755997 -91.0625 604.25 C-90.27488281 605.18328125 -89.48726562 606.1165625 -88.67578125 607.078125 C-78.55383188 618.74480471 -66.51001131 627.69259214 -53.0625 635.25 C-52.48902832 635.57564941 -51.91555664 635.90129883 -51.32470703 636.23681641 C-28.4765041 649.02308222 -1.33784974 656.30257748 24.86328125 656.453125 C25.68465576 656.46013931 26.50603027 656.46715363 27.35229492 656.47438049 C29.98491977 656.4917732 32.61731983 656.49823159 35.25 656.5 C36.14866791 656.50067474 37.04733582 656.50134949 37.97323608 656.50204468 C50.84783596 656.48665975 63.35066803 656.21612421 75.9375 653.25 C77.13874512 652.97663818 77.13874512 652.97663818 78.36425781 652.69775391 C98.60064753 648.00156188 118.38613169 640.52950063 134.1875 626.6484375 C135.9375 625.25 135.9375 625.25 137.9375 625.25 C137.9375 624.59 137.9375 623.93 137.9375 623.25 C139.00509565 622.31088291 140.11988751 621.42537146 141.25 620.5625 C158.71433136 605.60634389 168.05768106 581.66684085 169.9375 559.25 C171.33550665 533.47425234 166.27949805 507.72900737 149.1015625 487.6328125 C148.38742187 486.84648438 147.67328125 486.06015625 146.9375 485.25 C146.16148438 484.38117188 145.38546875 483.51234375 144.5859375 482.6171875 C117.50862054 453.90377888 76.47919117 440.59382901 40.71484375 426.1953125 C31.08421038 422.31807575 21.47714194 418.38468043 11.875 414.4375 C8.61726562 413.09876816 5.35944514 411.76024602 2.1015625 410.421875 C1.28024338 410.08443268 0.45892426 409.74699036 -0.38728333 409.39932251 C-6.60149301 406.84727099 -12.81952337 404.3046577 -19.0390625 401.765625 C-29.16787699 397.63068303 -39.29344058 393.48788378 -49.41522217 389.33575439 C-51.1682142 388.61678233 -52.92134549 387.89814969 -54.67462158 387.17987061 C-59.62826501 385.15031231 -64.57924724 383.11451102 -69.52627563 381.06887817 C-71.01303643 380.45506219 -72.50060557 379.84319924 -73.98910522 379.23361206 C-84.2610362 375.02427781 -94.19372352 370.33031192 -104.0625 365.25 C-105.40085749 364.56636433 -106.73923624 363.88277026 -108.07763672 363.19921875 C-122.08331852 355.99684749 -134.79326124 347.0893164 -147.0625 337.25 C-147.63258789 336.79496094 -148.20267578 336.33992188 -148.79003906 335.87109375 C-156.21551195 329.91744827 -156.21551195 329.91744827 -159.0625 327.25 C-159.0625 326.59 -159.0625 325.93 -159.0625 325.25 C-159.62066406 325.023125 -160.17882813 324.79625 -160.75390625 324.5625 C-183.27311002 311.75970395 -199.28974476 274.83550149 -206.0625 251.25 C-211.05056693 232.31846915 -213.47140828 213.60090926 -213.375 194.0625 C-213.37126877 192.8466925 -213.37126877 192.8466925 -213.36746216 191.60632324 C-213.14659486 144.94308674 -196.53348905 98.39549941 -163.48095703 64.70800781 C-162.01335098 63.19948056 -160.58274523 61.66097736 -159.15234375 60.1171875 C-125.752192 24.69018435 -76.51312951 6.45386218 -29.0625 1.25 C-28.34231689 1.1557373 -27.62213379 1.06147461 -26.88012695 0.96435547 C-17.96222328 -0.11315629 -8.96927156 0.0061124 0 0 Z " fill="#FEFEFE" transform="translate(5629.0625,460.75)"/>
<path d="M0 0 C0.76839203 0.00093658 1.53678406 0.00187317 2.32846069 0.00283813 C71.29301431 0.1838896 139.06157219 18.9527475 188.76904297 68.64355469 C196.56474059 76.59263676 202.66787131 85.1266427 209.3125 94.1875 C209.6425 66.4675 209.9725 38.7475 210.3125 10.1875 C238.6925 10.1875 267.0725 10.1875 296.3125 10.1875 C296.3125 96.3175 296.3125 182.4475 296.3125 271.1875 C268.2625 271.1875 240.2125 271.1875 211.3125 271.1875 C208.8375 253.3675 208.8375 253.3675 206.3125 235.1875 C196.19814304 186.8633501 173.01621183 144.68271309 131.26293945 116.90722656 C98.62217241 95.79510845 59.7968333 87.9661137 21.4375 87.9375 C20.62024445 87.93682526 19.80298889 87.93615051 18.96096802 87.93545532 C5.87940692 87.95255666 -6.83798602 88.53264174 -19.6875 91.1875 C-20.51910645 91.35910645 -21.35071289 91.53071289 -22.20751953 91.70751953 C-28.10334327 92.97260616 -33.90062025 94.49584351 -39.6875 96.1875 C-40.47237793 96.41356934 -41.25725586 96.63963867 -42.06591797 96.87255859 C-63.57654132 103.24722672 -84.32426623 113.97367012 -101.6875 128.1875 C-102.72003906 129.0021875 -103.75257813 129.816875 -104.81640625 130.65625 C-108.81860989 133.85374958 -112.67787548 137.07483343 -116.25 140.75 C-117.054375 141.554375 -117.85875 142.35875 -118.6875 143.1875 C-119.3475 143.1875 -120.0075 143.1875 -120.6875 143.1875 C-120.93628906 143.76757812 -121.18507813 144.34765625 -121.44140625 144.9453125 C-122.86667068 147.50989488 -124.47723824 149.06620788 -126.625 151.0625 C-136.37779129 160.62773761 -144.19128691 171.88652706 -151.51855469 183.36669922 C-152.59940064 185.05027254 -153.70866642 186.71550909 -154.8203125 188.37890625 C-179.17545022 226.4394259 -190.5858738 272.84259538 -195.6875 317.1875 C-195.86321533 318.6422876 -195.86321533 318.6422876 -196.04248047 320.12646484 C-205.05007364 397.50075333 -194.05558455 491.04321884 -146.6875 555.1875 C-145.81199213 556.42021237 -144.93703315 557.65331468 -144.0625 558.88671875 C-136.72544531 569.08813768 -128.54710587 578.2873849 -119.6875 587.1875 C-119.14512695 587.73390137 -118.60275391 588.28030273 -118.04394531 588.84326172 C-89.69500115 617.04207128 -51.74836994 635.00453176 -12.6875 642.1875 C-11.81673828 642.35121094 -10.94597656 642.51492188 -10.04882812 642.68359375 C16.81690886 647.51742895 45.44918378 646.42282221 72.3125 642.1875 C73.7960498 641.95401855 73.7960498 641.95401855 75.30957031 641.71582031 C99.90329016 637.63451735 124.00401612 629.23407109 146.3125 618.1875 C147.14475098 617.7848291 147.97700195 617.3821582 148.83447266 616.96728516 C172.97827859 605.2252156 194.71713865 589.58203629 214.16796875 571.14453125 C217.27370103 568.20250334 220.47938194 565.39611531 223.76171875 562.65234375 C225.43060727 561.16681564 225.43060727 561.16681564 226.89453125 559.00390625 C227.59642578 558.10478516 227.59642578 558.10478516 228.3125 557.1875 C228.9725 557.1875 229.6325 557.1875 230.3125 557.1875 C230.53164062 556.64996094 230.75078125 556.11242187 230.9765625 555.55859375 C232.77055839 552.37451332 235.1887216 549.88358092 237.6875 547.25 C241.05665128 543.66915071 244.29117199 540.07513296 247.3125 536.1875 C250.28886205 537.52329648 252.35201858 538.97984603 254.625 541.3125 C255.15738281 541.85132813 255.68976562 542.39015625 256.23828125 542.9453125 C258.04012166 544.89306466 259.78239061 546.8738077 261.51953125 548.87890625 C266.13142173 554.17519712 271.00385858 559.21829325 275.87890625 564.27148438 C276.56597656 564.99271484 277.25304688 565.71394531 277.9609375 566.45703125 C278.58145996 567.10260986 279.20198242 567.74818848 279.84130859 568.41333008 C281.3125 570.1875 281.3125 570.1875 282.3125 573.1875 C282.9725 573.1875 283.6325 573.1875 284.3125 573.1875 C285.74243164 574.62109375 285.74243164 574.62109375 287.41015625 576.625 C291.37730763 581.29054282 295.53940279 585.74191063 299.75 590.1875 C300.48154297 590.96222656 301.21308594 591.73695313 301.96679688 592.53515625 C303.74740214 594.420503 305.52931678 596.30459191 307.3125 598.1875 C306.1254778 601.45128889 304.93216883 603.95915558 302.6328125 606.5625 C302.11589844 607.15546875 301.59898437 607.7484375 301.06640625 608.359375 C300.52886719 608.96265625 299.99132813 609.5659375 299.4375 610.1875 C298.37688771 611.39520451 297.31697826 612.60352667 296.2578125 613.8125 C295.75282227 614.38355469 295.24783203 614.95460938 294.72753906 615.54296875 C293.45081334 617.02675489 292.24757344 618.57300998 291.0546875 620.125 C290.47976563 620.805625 289.90484375 621.48625 289.3125 622.1875 C288.6525 622.1875 287.9925 622.1875 287.3125 622.1875 C287.06193848 622.76330811 286.81137695 623.33911621 286.55322266 623.93237305 C285.14393301 626.49388593 283.53341237 628.2093495 281.4609375 630.26953125 C280.69136719 631.03716797 279.92179687 631.80480469 279.12890625 632.59570312 C278.32324219 633.38912109 277.51757812 634.18253906 276.6875 635 C275.90503906 635.78181641 275.12257813 636.56363281 274.31640625 637.36914062 C269.47363576 642.17577103 264.48894035 646.74496081 259.3125 651.1875 C258.25252522 652.12474253 257.19385787 653.06346648 256.13671875 654.00390625 C231.71022176 675.49968879 203.72338504 693.31889772 174.3125 707.1875 C173.54325195 707.55085449 172.77400391 707.91420898 171.98144531 708.28857422 C124.23588135 730.67229023 72.85377635 741.38887529 20.1875 741.4375 C19.41547241 741.43850708 18.64344482 741.43951416 17.84802246 741.44055176 C-38.73964202 741.39129722 -95.17052157 727.734488 -144.6875 700.1875 C-145.41710938 699.78273438 -146.14671875 699.37796875 -146.8984375 698.9609375 C-163.49589383 689.67355219 -178.54640762 678.62657177 -193.13134766 666.45263672 C-194.42741565 665.39894605 -195.77662332 664.41104366 -197.13671875 663.44140625 C-197.90435547 662.82072266 -197.90435547 662.82072266 -198.6875 662.1875 C-198.6875 661.5275 -198.6875 660.8675 -198.6875 660.1875 C-199.54661987 659.81516235 -199.54661987 659.81516235 -200.4230957 659.43530273 C-203.03454822 657.99625865 -204.80657661 656.32741252 -206.91796875 654.22265625 C-207.7164624 653.42827148 -208.51495605 652.63388672 -209.33764648 651.81542969 C-210.17497314 650.96883789 -211.0122998 650.12224609 -211.875 649.25 C-212.73488525 648.38407227 -213.59477051 647.51814453 -214.48071289 646.62597656 C-220.28942267 640.72608258 -225.63062541 634.74341058 -230.6875 628.1875 C-231.59657586 627.08679027 -232.50961904 625.98934979 -233.42578125 624.89453125 C-299.54172576 545.3292489 -314.14529955 438.14209113 -310.5625 320.6875 C-304.63635228 262.41432872 -289.33317088 203.55092812 -258.6875 153.1875 C-258.31302734 152.56359375 -257.93855469 151.9396875 -257.55273438 151.296875 C-238.49839747 119.61241297 -213.2254024 88.58633233 -183.6875 66.1875 C-182.19089844 65.00027344 -182.19089844 65.00027344 -180.6640625 63.7890625 C-129.70751464 23.48422794 -65.03200103 -0.10295025 0 0 Z " fill="#FEFEFE" transform="translate(3759.6875,462.8125)"/>
<path d="M0 0 C1.43085938 0.73283203 1.43085938 0.73283203 2.890625 1.48046875 C16.14933709 8.40058603 27.8232667 17.13280221 39 27 C40.14082031 27.97453125 40.14082031 27.97453125 41.3046875 28.96875 C53.39614365 39.31941286 62.47993581 51.30658108 72 64 C72.33 36.28 72.66 8.56 73 -20 C101.38 -20 129.76 -20 159 -20 C159 66.13 159 152.26 159 241 C130.95 241 102.9 241 74 241 C71.525 222.685 71.525 222.685 69 204 C61.06063746 167.30250206 46.63478498 136.54714905 21 109 C20.08154297 108.00033203 20.08154297 108.00033203 19.14453125 106.98046875 C-5.74506807 80.92334025 -40.68502425 67.2060288 -75.4375 60.75 C-76.31220947 60.58677246 -77.18691895 60.42354492 -78.08813477 60.25537109 C-90.63528477 58.03887709 -103.16993492 57.7594772 -115.875 57.75 C-116.69225555 57.74932526 -117.50951111 57.74865051 -118.35153198 57.74795532 C-167.84367902 57.81265568 -216.21818336 75.00128288 -252.21972656 109.59741211 C-255.79672713 113 -255.79672713 113 -258 113 C-258.38865234 113.88558594 -258.38865234 113.88558594 -258.78515625 114.7890625 C-260.09174716 117.16697393 -261.44545731 118.54447428 -263.4375 120.375 C-314.46493197 170.20069897 -334.12710905 251.9232094 -335.14437866 320.80792236 C-335.18494837 324.91370292 -335.19279244 329.01904323 -335.1875 333.125 C-335.18689575 333.99717163 -335.1862915 334.86934326 -335.18566895 335.76794434 C-335.02996487 419.15317561 -313.28642165 500.63356938 -253.203125 560.80078125 C-221.55010586 590.83182891 -179.96869133 608.57672157 -137 614 C-135.90957397 614.14356934 -135.90957397 614.14356934 -134.79711914 614.29003906 C-126.74231127 615.23259601 -118.66109929 615.24357332 -110.5625 615.25 C-109.41024429 615.25101212 -109.41024429 615.25101212 -108.23471069 615.25204468 C-93.67367384 615.23188878 -79.39952037 614.27025613 -65 612 C-63.5164502 611.76651855 -63.5164502 611.76651855 -62.00292969 611.52832031 C-37.40920984 607.44701735 -13.30848388 599.04657109 9 588 C9.83225098 587.5973291 10.66450195 587.1946582 11.52197266 586.77978516 C34.40923926 575.64881943 55.89223172 561.00504355 74.27197266 543.35058594 C77.79586476 540 77.79586476 540 80 540 C80 539.34 80 538.68 80 538 C81.2578125 536.80078125 81.2578125 536.80078125 83.125 535.3125 C93.17267936 526.76660901 102.04704487 516.49691283 110 506 C117.6342531 509.27428462 123.20091854 517.0877896 128.4921875 523.27734375 C129.74099787 524.70409342 131.07946714 526.05178849 132.4375 527.375 C134 529 134 529 134 531 C134.66 531 135.32 531 136 531 C137.5859375 532.609375 137.5859375 532.609375 139.375 534.75 C141.33757727 537.06903702 143.2588295 539.25219284 145.4375 541.375 C147 543 147 543 147 545 C147.66 545 148.32 545 149 545 C150.234375 546.22265625 150.234375 546.22265625 151.75 548.0625 C154.26990274 551.06161501 156.87508092 553.92788771 159.609375 556.73046875 C160.5669873 557.7213147 160.5669873 557.7213147 161.54394531 558.73217773 C162.84114183 560.07033664 164.14774939 561.39944043 165.46386719 562.71899414 C166.06360352 563.34281982 166.66333984 563.96664551 167.28125 564.609375 C167.82845703 565.16592773 168.37566406 565.72248047 168.93945312 566.29589844 C170 568 170 568 169.82739258 570.01098633 C168.94609845 572.12957684 167.99573768 573.49760927 166.48046875 575.21484375 C165.9592041 575.81167969 165.43793945 576.40851562 164.90087891 577.0234375 C164.33546387 577.65507813 163.77004883 578.28671875 163.1875 578.9375 C162.60145996 579.60136719 162.01541992 580.26523438 161.41162109 580.94921875 C159.61682153 582.97446768 157.81052545 584.98880672 156 587 C155.23405518 587.85489014 155.23405518 587.85489014 154.45263672 588.72705078 C143.96194095 600.39940051 133.05331446 611.92868371 121 622 C119.66388672 623.16982422 119.66388672 623.16982422 118.30078125 624.36328125 C95.12308046 644.55874966 68.7875038 661.6784362 41.08642578 674.98925781 C38.93152124 676.03317365 36.79199032 677.10488388 34.65234375 678.1796875 C-44.97163932 717.66981859 -144.17488575 721.55702136 -228.04956055 693.80541992 C-259.75450423 682.94294801 -289.65260694 668.11714078 -316.12255859 647.45996094 C-317.93086406 646.05376241 -319.75378801 644.66919208 -321.58203125 643.2890625 C-330.59952992 636.4246395 -338.85770285 628.87357448 -347 621 C-347.55494141 620.46697266 -348.10988281 619.93394531 -348.68164062 619.38476562 C-355.65907451 612.660443 -362.00941604 605.62814844 -368 598 C-369.24136719 596.4840625 -369.24136719 596.4840625 -370.5078125 594.9375 C-428.53765226 523.64890299 -448.77037016 430.1958367 -449.25 334.3125 C-449.25067474 333.29630585 -449.25134949 332.28011169 -449.25204468 331.23312378 C-449.18528519 267.28439756 -437.24964332 200.79590933 -407.02441406 143.94726562 C-405.90338623 141.81635095 -404.82190163 139.66775172 -403.7421875 137.515625 C-384.40707647 99.34643521 -355.21368992 61.94452015 -321 36 C-319.50339844 34.81277344 -319.50339844 34.81277344 -317.9765625 33.6015625 C-303.56823821 22.20508547 -288.09741444 12.81805723 -272 4 C-271.30825684 3.62101562 -270.61651367 3.24203125 -269.90380859 2.8515625 C-189.77384553 -40.43773971 -80.69364092 -43.41466625 0 0 Z " fill="#FEFEFE" transform="translate(2163,493)"/>
<path d="M0 0 C2.62355077 3.20493619 5.03278768 6.44692712 7.28515625 9.921875 C8.1963623 11.32348877 8.1963623 11.32348877 9.12597656 12.75341797 C9.7650293 13.74229004 10.40408203 14.73116211 11.0625 15.75 C12.06168457 17.28938232 12.06168457 17.28938232 13.08105469 18.85986328 C15.05664605 21.90489418 17.02870035 24.95218953 19 28 C20.01418032 29.56519657 21.02848868 31.13031019 22.04296875 32.6953125 C24.26401367 36.12347271 26.48184628 39.55369591 28.69824219 42.98486328 C30.92260335 46.42820106 33.1485407 49.87051859 35.375 53.3125 C35.82391602 54.00649902 36.27283203 54.70049805 36.73535156 55.41552734 C40.31607296 60.94856434 43.90689763 66.47499709 47.5 72 C53.79373087 81.67767622 60.06658429 91.36873543 66.33398438 101.06347656 C71.71239512 109.3823469 77.09933164 117.6955585 82.5 126 C88.79373087 135.67767622 95.06658429 145.36873543 101.33398438 155.06347656 C106.71239512 163.3823469 112.09933164 171.6955585 117.5 180 C123.79373087 189.67767622 130.06658429 199.36873543 136.33398438 209.06347656 C141.71239512 217.3823469 147.09933164 225.6955585 152.5 234 C158.79373087 243.67767622 165.06658429 253.36873543 171.33398438 263.06347656 C176.71239512 271.3823469 182.09933164 279.6955585 187.5 288 C193.79373087 297.67767622 200.06658429 307.36873543 206.33398438 317.06347656 C211.71239512 325.3823469 217.09933164 333.6955585 222.5 342 C228.79373087 351.67767622 235.06658429 361.36873543 241.33398438 371.06347656 C246.71239512 379.3823469 252.09933164 387.6955585 257.5 396 C263.79373087 405.67767622 270.06658429 415.36873543 276.33398438 425.06347656 C281.71239512 433.3823469 287.09933164 441.6955585 292.5 450 C298.79373087 459.67767622 305.06658429 469.36873543 311.33398438 479.06347656 C316.71239512 487.3823469 322.09933164 495.6955585 327.5 504 C333.79373087 513.67767622 340.06658429 523.36873543 346.33398438 533.06347656 C351.71239512 541.3823469 357.09933164 549.6955585 362.5 558 C368.79373087 567.67767622 375.06658429 577.36873543 381.33398438 587.06347656 C382.22937882 588.44839687 383.12488751 589.83324332 384.02050781 591.21801758 C384.92125034 592.61085647 385.82164279 594.00392183 386.72167969 595.3972168 C389.27046222 599.33966637 391.83193411 603.27338701 394.40625 607.19921875 C394.9832666 608.0811792 395.5602832 608.96313965 396.15478516 609.87182617 C397.26647594 611.57028648 398.38056909 613.26717789 399.49755859 614.9621582 C400.01141113 615.7480835 400.52526367 616.53400879 401.0546875 617.34375 C401.50312012 618.02630859 401.95155273 618.70886719 402.41357422 619.41210938 C404.73755284 623.20314868 406.86165641 627.1019895 409 631 C397.15330252 631.58222709 385.31005779 632.02483632 373.45191193 632.2953043 C367.94307118 632.42521975 362.4440823 632.60085627 356.94091797 632.88598633 C320.27494248 634.73684428 320.27494248 634.73684428 312.48965454 628.63470459 C306.91760231 623.25924478 303.92973739 616.31619559 301.28433228 609.16590881 C299.2552699 604.16422305 296.25464018 599.91258114 293.1875 595.5 C292.12013545 593.87166791 291.0569688 592.24056797 290 590.60546875 C289.4946875 589.82993652 288.989375 589.0544043 288.46875 588.25537109 C281.67805326 577.82776862 274.94908382 567.36167044 268.25 556.875 C262.43479354 547.77314689 256.56313782 538.71052064 250.64990234 529.67211914 C245.32965492 521.52980922 240.08542119 513.34013342 234.85083008 505.14257812 C229.104578 496.14881127 223.29508468 487.19738283 217.46875 478.25537109 C210.67805326 467.82776862 203.94908382 457.36167044 197.25 446.875 C191.43479354 437.77314689 185.56313782 428.71052064 179.64990234 419.67211914 C174.32965492 411.52980922 169.08542119 403.34013342 163.85083008 395.14257812 C158.11201025 386.16044388 152.30979712 377.22079014 146.49072266 368.29052734 C142.75426613 362.54938174 139.03968149 356.79404158 135.32080078 351.04150391 C134.0265446 349.04102883 132.73038684 347.04180003 131.43359375 345.04296875 C125.96578342 336.61120263 120.53663707 328.15543695 115.125 319.6875 C108.628394 309.52343041 102.07629659 299.3971012 95.49072266 289.29052734 C91.75426613 283.54938174 88.03968149 277.79404158 84.32080078 272.04150391 C83.0265446 270.04102883 81.73038684 268.04180003 80.43359375 266.04296875 C74.96578342 257.61120263 69.53663707 249.15543695 64.125 240.6875 C57.628394 230.52343041 51.07629659 220.3971012 44.49072266 210.29052734 C40.75426613 204.54938174 37.03968149 198.79404158 33.32080078 193.04150391 C32.0265446 191.04102883 30.73038684 189.04180003 29.43359375 187.04296875 C23.13331791 177.32723667 16.88328616 167.58004227 10.6574707 157.81640625 C7.19847335 152.39999848 3.7018641 147.02569572 0.04223633 141.7421875 C-1 140 -1 140 -1 138 C-1.66 138 -2.32 138 -3 138 C-3.26844727 138.5671875 -3.53689453 139.134375 -3.81347656 139.71875 C-5.05813386 142.11177013 -6.4620412 144.27355203 -7.984375 146.5 C-8.58241943 147.37648193 -9.18046387 148.25296387 -9.79663086 149.15600586 C-10.44124268 150.09452393 -11.08585449 151.03304199 -11.75 152 C-12.4210376 152.9804126 -13.0920752 153.9608252 -13.78344727 154.97094727 C-19.27149213 162.97399707 -24.82454315 170.93045317 -30.40234375 178.87109375 C-34.2862227 184.40157443 -38.14376665 189.95022248 -42 195.5 C-47.55453972 203.49159318 -53.12553121 211.47136303 -58.7109375 219.44140625 C-63.1543154 225.78478058 -67.57970045 232.14052689 -72 238.5 C-76.98748876 245.67548671 -81.98496485 252.84373801 -87 260 C-94.69432038 270.9807786 -102.34756282 281.99001024 -110 293 C-118.22129525 304.82843771 -126.44961323 316.65162503 -134.71582031 328.44873047 C-141.83617732 338.61463826 -148.91641693 348.80845249 -156 359 C-164.21978709 370.82626783 -172.44600752 382.64770516 -180.71142578 394.44213867 C-185.15467815 400.7852428 -189.5798679 407.1407678 -194 413.5 C-198.98748876 420.67548671 -203.98496485 427.84373801 -209 435 C-216.69432038 445.9807786 -224.34756282 456.99001024 -232 468 C-240.21978709 479.82626783 -248.44600752 491.64770516 -256.71142578 503.44213867 C-261.7558485 510.64346236 -266.77806106 517.86012714 -271.79296875 525.08203125 C-278.50309649 534.73946456 -285.25603572 544.36576531 -292 554 C-158.35 554.495 -158.35 554.495 -22 555 C-21.34 553.35 -20.68 551.7 -20 550 C-18.78588867 548.08154297 -18.78588867 548.08154297 -17.41796875 546.2421875 C-16.90500244 545.54432129 -16.39203613 544.84645508 -15.86352539 544.12744141 C-15.31043701 543.38413574 -14.75734863 542.64083008 -14.1875 541.875 C-9.53428276 535.53023423 -4.98265306 529.13437133 -0.5625 522.625 C5.62418297 513.52622238 11.91945065 504.50720228 18.24267578 495.50292969 C21.12334042 491.40004363 23.99956062 487.2940492 26.875 483.1875 C27.73339478 481.96172241 27.73339478 481.96172241 28.60913086 480.71118164 C33.76766287 473.34051981 38.90384077 465.95439052 44.03857422 458.56713867 C48.91476547 451.55401102 53.8088249 444.55361744 58.7109375 437.55859375 C63.83393752 430.24498966 68.93218704 422.91429737 74.02807617 415.58178711 C79.01306248 408.41145239 84.01721637 401.25477851 89.03613281 394.1081543 C91.79931789 390.16777558 94.54262444 386.21601238 97.24609375 382.234375 C98.00829224 381.11373657 98.00829224 381.11373657 98.78588867 379.97045898 C99.73670064 378.56905378 100.68370668 377.16505602 101.6262207 375.75805664 C104.77989848 371.11005076 104.77989848 371.11005076 107 370 C107.2902002 370.49064941 107.58040039 370.98129883 107.87939453 371.48681641 C114.26355308 382.25806326 120.7960263 392.91625773 127.54833984 403.46069336 C132.82851786 411.70905761 138.02367656 420.00892207 143.20239258 428.32128906 C143.80075928 429.28131836 144.39912598 430.24134766 145.015625 431.23046875 C145.54446289 432.08020264 146.07330078 432.92993652 146.61816406 433.80541992 C147.71906793 435.55383421 148.85391075 437.28086613 150 439 C149.6642462 442.58137386 147.80402776 445.07852644 145.8125 448 C145.08675781 449.06605469 144.36101563 450.13210938 143.61328125 451.23046875 C139.38478239 457.34636624 135.11735898 463.43510914 130.84375 469.51953125 C126.87825985 475.16750478 122.93771399 480.83264039 119 486.5 C114.01265417 493.67558565 109.01503475 500.84373858 104 508 C96.30567962 518.9807786 88.65243718 529.99001024 81 541 C72.77870475 552.82843771 64.55038677 564.65162503 56.28417969 576.44873047 C51.88583192 582.72835912 47.50232573 589.01820199 43.125 595.3125 C42.46814209 596.25689941 41.81128418 597.20129883 41.13452148 598.17431641 C37.95627339 602.74495828 34.7796913 607.31674746 31.6060791 611.89060974 C30.48169162 613.51087808 29.3568163 615.13080785 28.23193359 616.75073242 C26.80821425 618.80107413 25.38533446 620.85199913 23.96337891 622.90356445 C23.32706543 623.81968506 22.69075195 624.73580566 22.03515625 625.6796875 C21.4719165 626.49163574 20.90867676 627.30358398 20.32836914 628.14013672 C19 630 19 630 18 631 C15.57063227 631.09878023 13.1696988 631.13178544 10.7398138 631.12304783 C9.96707319 631.12420167 9.19433257 631.12535552 8.39817557 631.12654433 C5.77551548 631.12921822 3.15291523 631.12468253 0.53025818 631.12025452 C-1.35563879 631.12069006 -3.2415357 631.12156466 -5.12743229 631.12284368 C-10.33569982 631.12509194 -15.54394699 631.12106286 -20.75221193 631.11606562 C-26.35892703 631.11176602 -31.96564089 631.11320719 -37.57235718 631.1139679 C-47.29499651 631.11449344 -57.01762915 631.11134343 -66.7402668 631.10573006 C-80.79774526 631.09761922 -94.85522046 631.09500026 -108.912701 631.09374207 C-131.7174376 631.09155089 -154.52216983 631.08489759 -177.3269043 631.07543945 C-199.48575827 631.06625978 -221.6446113 631.05917383 -243.8034668 631.05493164 C-244.48611882 631.05480011 -245.16877085 631.05466859 -245.8721093 631.05453308 C-252.72738344 631.05321459 -259.58265758 631.05193877 -266.43793173 631.05069422 C-323.95862362 631.0402475 -381.47931167 631.02259607 -439 631 C-438.21987906 629.57142361 -437.43673379 628.14449853 -436.65234375 626.71826172 C-435.99866821 625.52606522 -435.99866821 625.52606522 -435.33178711 624.30978394 C-433.45589358 621.05632945 -431.27529619 618.1060574 -429 615.125 C-424.7531568 609.44630995 -420.67154471 603.67845224 -416.6875 597.8125 C-412.23282524 591.25905801 -407.73986761 584.73601422 -403.1875 578.25 C-398.1078938 571.01179209 -393.04613617 563.76158695 -388 556.5 C-383.01259985 549.32445196 -378.0150349 542.15626164 -373 535 C-365.30567962 524.0192214 -357.65243718 513.00998976 -350 502 C-341.77870475 490.17156229 -333.55038677 478.34837497 -325.28417969 466.55126953 C-318.16382268 456.38536174 -311.08358307 446.19154751 -304 436 C-295.77870475 424.17156229 -287.55038677 412.34837497 -279.28417969 400.55126953 C-272.16382268 390.38536174 -265.08358307 380.19154751 -258 370 C-249.77870475 358.17156229 -241.55038677 346.34837497 -233.28417969 334.55126953 C-226.16382268 324.38536174 -219.08358307 314.19154751 -212 304 C-203.77870475 292.17156229 -195.55038677 280.34837497 -187.28417969 268.55126953 C-180.16382268 258.38536174 -173.08358307 248.19154751 -166 238 C-157.77870475 226.17156229 -149.55038677 214.34837497 -141.28417969 202.55126953 C-134.16382268 192.38536174 -127.08358307 182.19154751 -120 172 C-111.77870475 160.17156229 -103.55038677 148.34837497 -95.28417969 136.55126953 C-88.16382268 126.38536174 -81.08358307 116.19154751 -74 106 C-65.77870475 94.17156229 -57.55038677 82.34837497 -49.28417969 70.55126953 C-44.88583204 64.27164106 -40.50228021 57.9818295 -36.125 51.6875 C-35.46016602 50.73149902 -34.79533203 49.77549805 -34.11035156 48.79052734 C-30.68943557 43.87038213 -27.27005707 38.94917158 -23.8515625 34.02734375 C-15.9477683 22.65149226 -8.00970004 11.30156539 0 0 Z " fill="#004A98" transform="translate(645,454)"/>
<path d="M0 0 C99.33 0 198.66 0 301 0 C301 26.07 301 52.14 301 79 C267.67 79 234.34 79 200 79 C200 264.13 200 449.26 200 640 C283.16 640 366.32 640 452 640 C452 583.57 452 527.14 452 469 C480.71 469 509.42 469 539 469 C539 551.17 539 633.34 539 718 C361.13 718 183.26 718 0 718 C0 692.26 0 666.52 0 640 C30.69 640 61.38 640 93 640 C93 454.87 93 269.74 93 79 C62.31 79 31.62 79 0 79 C0 52.93 0 26.86 0 0 Z " fill="#FEFEFE" transform="translate(4144,473)"/>
<path d="M0 0 C96.36 0 192.72 0 292 0 C292 26.07 292 52.14 292 79 C261.64 79 231.28 79 200 79 C200 264.13 200 449.26 200 640 C230.36 640 260.72 640 292 640 C292 665.74 292 691.48 292 718 C195.64 718 99.28 718 0 718 C0 692.26 0 666.52 0 640 C30.69 640 61.38 640 93 640 C93 454.87 93 269.74 93 79 C62.31 79 31.62 79 0 79 C0 52.93 0 26.86 0 0 Z " fill="#FEFEFE" transform="translate(2410,473)"/>
<path d="M0 0 C3.78373937 1.26124646 4.24832952 2.52363788 6.3359375 5.86328125 C6.98151611 6.88550781 7.62709473 7.90773438 8.29223633 8.9609375 C9.32320435 10.61996094 9.32320435 10.61996094 10.375 12.3125 C11.09368285 13.45503298 11.81333774 14.59695507 12.53393555 15.73828125 C13.63172801 17.47739941 14.72885612 19.21690058 15.82286072 20.95840454 C19.09946967 26.17411848 22.44435483 31.34310497 25.8125 36.5 C26.86864511 38.12099243 27.92463756 39.74208433 28.98046875 41.36328125 C29.48497559 42.13752441 29.98948242 42.91176758 30.50927734 43.70947266 C32.88798927 47.36441456 35.25700507 51.02560868 37.625 54.6875 C38.07141846 55.37779297 38.51783691 56.06808594 38.9777832 56.77929688 C39.8709892 58.16060689 40.76413722 59.5419544 41.65722656 60.92333984 C43.93723929 64.44948316 46.21870206 67.97468809 48.5 71.5 C49.41667341 72.9166623 50.33334008 74.33332897 51.25 75.75 C51.70375 76.45125 52.1575 77.1525 52.625 77.875 C54.6875 81.0625 54.6875 81.0625 56.75 84.25 C57.20334717 84.95060547 57.65669434 85.65121094 58.1237793 86.37304688 C59.04459589 87.79617161 59.96533098 89.21934907 60.88598633 90.64257812 C63.11350909 94.08586371 65.34222399 97.52836128 67.57421875 100.96875 C72.99831801 109.33379833 78.38312742 117.72311278 83.75 126.125 C90.28609994 136.35406632 96.89320366 146.53474846 103.53515625 156.6953125 C107.95092059 163.4505466 112.33267583 170.22757804 116.71142578 177.00683594 C117.99194785 178.98754495 119.27487502 180.96667404 120.55859375 182.9453125 C125.98835179 191.31788542 131.37807196 199.7151984 136.75 208.125 C143.28609994 218.35406632 149.89320366 228.53474846 156.53515625 238.6953125 C160.95092059 245.4505466 165.33267583 252.22757804 169.71142578 259.00683594 C170.99194785 260.98754495 172.27487502 262.96667404 173.55859375 264.9453125 C178.98835179 273.31788542 184.37807196 281.7151984 189.75 290.125 C196.28609994 300.35406632 202.89320366 310.53474846 209.53515625 320.6953125 C213.9433565 327.43897506 218.31800915 334.20415852 222.68945312 340.97167969 C224.49661915 343.7686125 226.3057558 346.56426815 228.11499023 349.35986328 C229.03911618 350.78783578 229.96310684 352.21589584 230.88696289 353.64404297 C233.1141341 357.08685716 235.34254334 360.52885353 237.57421875 363.96875 C242.99831801 372.33379833 248.38312742 380.72311278 253.75 389.125 C260.28609994 399.35406632 266.89320366 409.53474846 273.53515625 419.6953125 C277.95092059 426.4505466 282.33267583 433.22757804 286.71142578 440.00683594 C287.99194785 441.98754495 289.27487502 443.96667404 290.55859375 445.9453125 C295.98835179 454.31788542 301.37807196 462.7151984 306.75 471.125 C313.28609994 481.35406632 319.89320366 491.53474846 326.53515625 501.6953125 C330.95092059 508.4505466 335.33267583 515.22757804 339.71142578 522.00683594 C340.99194785 523.98754495 342.27487502 525.96667404 343.55859375 527.9453125 C348.98835179 536.31788542 354.37807196 544.7151984 359.75 553.125 C366.28609994 563.35406632 372.89320366 573.53474846 379.53515625 583.6953125 C383.49809051 589.75780736 387.43436652 595.83729867 391.36328125 601.921875 C393.22938655 604.81141912 395.10294969 607.69598452 396.98046875 610.578125 C397.47514648 611.33883301 397.96982422 612.09954102 398.47949219 612.88330078 C399.41742095 614.32537411 400.35676031 615.76653148 401.29785156 617.20654297 C401.72420898 617.86283691 402.15056641 618.51913086 402.58984375 619.1953125 C402.95972412 619.76266113 403.32960449 620.33000977 403.71069336 620.91455078 C405.5548537 623.89747402 407.26421769 626.95272516 409 630 C397.24855626 630.51190501 385.49979741 630.90165456 373.73943901 631.13986778 C368.27652766 631.25427309 362.82128633 631.40904486 357.36279297 631.65966797 C322.15267586 633.23469156 322.15267586 633.23469156 313.71188354 627.93582153 C308.81890269 622.9695513 306.28724836 617.4121494 304.09645081 610.87200928 C302.2422452 606.01516056 299.26235755 601.93513815 296.3125 597.6875 C295.23351393 596.04217901 294.15866345 594.39413077 293.08984375 592.7421875 C292.31423096 591.55254395 292.31423096 591.55254395 291.52294922 590.33886719 C287.7746055 584.58235344 284.05019418 578.8103031 280.32080078 573.04150391 C279.0265446 571.04102883 277.73038684 569.04180003 276.43359375 567.04296875 C271.00666452 558.6741585 265.61940031 550.28084441 260.25 541.875 C253.12325731 530.72157146 245.90671715 519.62881741 238.66503906 508.54980469 C231.79679006 498.03191722 225.01306858 487.46074268 218.25 476.875 C211.12315708 465.72163476 203.90671788 454.62881853 196.66503906 443.54980469 C189.79679006 433.03191722 183.01306858 422.46074268 176.25 411.875 C169.12315708 400.72163476 161.90671788 389.62881853 154.66503906 378.54980469 C147.79679006 368.03191722 141.01306858 357.46074268 134.25 346.875 C127.12315708 335.72163476 119.90671788 324.62881853 112.66503906 313.54980469 C105.79679006 303.03191722 99.01306858 292.46074268 92.25 281.875 C85.12315708 270.72163476 77.90671788 259.62881853 70.66503906 248.54980469 C63.79679006 238.03191722 57.01306858 227.46074268 50.25 216.875 C43.12315708 205.72163476 35.90671788 194.62881853 28.66503906 183.54980469 C26.29015695 179.91296176 23.92355801 176.27082996 21.5625 172.625 C21.14323242 171.97853516 20.72396484 171.33207031 20.29199219 170.66601562 C17.81962455 166.84458324 15.36898612 163.01003096 12.93440247 159.16439819 C11.46904311 156.85028293 10.00033586 154.53829907 8.53170776 152.22625732 C7.80554444 151.08063873 7.08118106 149.93387713 6.3586731 148.78594971 C5.34627695 147.17750383 4.32756674 145.57303743 3.30859375 143.96875 C2.71876709 143.03482422 2.12894043 142.10089844 1.52124023 141.13867188 C0.17522575 138.89193132 0.17522575 138.89193132 -2 138 C-2.32049316 138.47083008 -2.64098633 138.94166016 -2.97119141 139.42675781 C-9.76968954 149.40686649 -16.61874031 159.34863778 -23.55517578 169.23339844 C-28.05350458 175.64404233 -32.53097432 182.06889758 -37 188.5 C-41.98740015 195.67554804 -46.9849651 202.84373836 -52 210 C-59.01329203 220.0088641 -65.99236829 230.04136838 -72.96777344 240.07666016 C-76.9722788 245.83710552 -80.97915393 251.59590312 -84.98632812 257.35449219 C-88.39721952 262.25660254 -91.80592977 267.1602069 -95.2109375 272.06640625 C-98.54226551 276.86617155 -101.88286531 281.65938246 -105.22705078 286.45019531 C-106.86884735 288.81138002 -108.49681617 291.18143455 -110.12109375 293.5546875 C-111.01789954 294.84918675 -111.91500761 296.14347668 -112.8125 297.4375 C-113.39813721 298.30677124 -113.39813721 298.30677124 -113.99560547 299.19360352 C-115.08203125 300.74609375 -115.08203125 300.74609375 -117 303 C-117.99 303 -118.98 303 -120 303 C-121.2800293 301.56079102 -121.2800293 301.56079102 -122.57421875 299.50390625 C-123.06873535 298.73022705 -123.56325195 297.95654785 -124.07275391 297.15942383 C-124.60562012 296.30243896 -125.13848633 295.4454541 -125.6875 294.5625 C-126.53320557 293.23158325 -126.53320557 293.23158325 -127.39599609 291.8737793 C-128.62251912 289.94259762 -129.84465771 288.00862613 -131.06298828 286.07226562 C-133.7118101 281.87100854 -136.39368018 277.69125027 -139.07470703 273.51049805 C-141.11166709 270.33329635 -143.1440181 267.15318312 -145.17578125 263.97265625 C-148.97193723 258.03624554 -152.79475497 252.11743057 -156.63916016 246.2121582 C-157.76546555 244.47867222 -158.88314906 242.73959233 -160 241 C-160.94939453 239.69289063 -160.94939453 239.69289063 -161.91796875 238.359375 C-163 236 -163 236 -162.26342773 233.64697266 C-160.9911502 230.98145903 -159.56882699 228.70123353 -157.8671875 226.2890625 C-157.23425781 225.38607422 -156.60132813 224.48308594 -155.94921875 223.55273438 C-154.92248047 222.10350586 -154.92248047 222.10350586 -153.875 220.625 C-152.41393072 218.54436337 -150.95299694 216.46363157 -149.4921875 214.3828125 C-148.74420898 213.32094727 -147.99623047 212.25908203 -147.22558594 211.16503906 C-143.79767132 206.2901504 -140.39946849 201.39474562 -137 196.5 C-135.66942358 194.58713333 -134.33869384 192.67437329 -133.0078125 190.76171875 C-130.31430219 186.88987992 -127.62168513 183.01742195 -124.9296875 179.14453125 C-118.06561095 169.27082113 -111.18979972 159.40564431 -104.28857422 149.55786133 C-99.84532185 143.2147572 -95.4201321 136.8592322 -91 130.5 C-86.01251124 123.32451329 -81.01503515 116.15626199 -76 109 C-68.30567962 98.0192214 -60.65243718 87.00998976 -53 76 C-44.78531575 64.18107391 -36.56429897 52.36690596 -28.30395508 40.57983398 C-23.04921583 33.07830265 -17.81831518 25.56027615 -12.59179688 18.0390625 C-8.40676516 12.01743414 -4.20918626 6.00477006 0 0 Z " fill="#004A98" transform="translate(1008,455)"/>
</svg>
