<svg xmlns="http://www.w3.org/2000/svg" xmlns:xlink="http://www.w3.org/1999/xlink" width="1920" zoomAndPan="magnify" viewBox="0 0 1440 809.999993" height="1080" preserveAspectRatio="xMidYMid meet" version="1.0"><defs><g/><clipPath id="8df23ccb45"><path d="M 285.949219 0 L 1095.949219 0 L 1095.949219 810 L 285.949219 810 Z M 285.949219 0 " clip-rule="nonzero"/></clipPath><clipPath id="10d8ed375d"><path d="M 690.949219 0 C 467.273438 0 285.949219 181.324219 285.949219 405 C 285.949219 628.675781 467.273438 810 690.949219 810 C 914.625 810 1095.949219 628.675781 1095.949219 405 C 1095.949219 181.324219 914.625 0 690.949219 0 Z M 690.949219 0 " clip-rule="nonzero"/></clipPath><clipPath id="79b5890f18"><path d="M 857 41 L 1094 41 L 1094 423 L 857 423 Z M 857 41 " clip-rule="nonzero"/></clipPath><clipPath id="e14669892a"><path d="M 794.773438 365.90625 L 858.707031 39.101562 L 1147.238281 95.546875 L 1083.304688 422.351562 Z M 794.773438 365.90625 " clip-rule="nonzero"/></clipPath><clipPath id="9e07ff3473"><path d="M 771.839844 481.316406 L 858.375 38.949219 L 1159.417969 97.839844 L 1072.882812 540.207031 Z M 771.839844 481.316406 " clip-rule="nonzero"/></clipPath><clipPath id="9323f9bc31"><path d="M 662.242188 376.292969 L 719.65625 376.292969 L 719.65625 433.707031 L 662.242188 433.707031 Z M 662.242188 376.292969 " clip-rule="nonzero"/></clipPath><clipPath id="7aaf098765"><path d="M 690.949219 376.292969 C 675.09375 376.292969 662.242188 389.144531 662.242188 405 C 662.242188 420.855469 675.09375 433.707031 690.949219 433.707031 C 706.800781 433.707031 719.65625 420.855469 719.65625 405 C 719.65625 389.144531 706.800781 376.292969 690.949219 376.292969 Z M 690.949219 376.292969 " clip-rule="nonzero"/></clipPath><clipPath id="50be4f8a42"><path d="M 662.242188 376.292969 L 719.652344 376.292969 L 719.652344 433.703125 L 662.242188 433.703125 Z M 662.242188 376.292969 " clip-rule="nonzero"/></clipPath><clipPath id="2df478c1b7"><path d="M 690.945312 376.292969 C 675.09375 376.292969 662.242188 389.144531 662.242188 404.996094 C 662.242188 420.851562 675.09375 433.703125 690.945312 433.703125 C 706.796875 433.703125 719.652344 420.851562 719.652344 404.996094 C 719.652344 389.144531 706.796875 376.292969 690.945312 376.292969 Z M 690.945312 376.292969 " clip-rule="nonzero"/></clipPath><clipPath id="a4c74ded64"><path d="M 1052.425781 376.292969 L 1109.839844 376.292969 L 1109.839844 433.707031 L 1052.425781 433.707031 Z M 1052.425781 376.292969 " clip-rule="nonzero"/></clipPath><clipPath id="69a3430703"><path d="M 1081.132812 376.292969 C 1065.277344 376.292969 1052.425781 389.144531 1052.425781 405 C 1052.425781 420.855469 1065.277344 433.707031 1081.132812 433.707031 C 1096.988281 433.707031 1109.839844 420.855469 1109.839844 405 C 1109.839844 389.144531 1096.988281 376.292969 1081.132812 376.292969 Z M 1081.132812 376.292969 " clip-rule="nonzero"/></clipPath><clipPath id="d2d8e58322"><path d="M 1052.425781 376.292969 L 1109.835938 376.292969 L 1109.835938 433.703125 L 1052.425781 433.703125 Z M 1052.425781 376.292969 " clip-rule="nonzero"/></clipPath><clipPath id="8284b73274"><path d="M 1081.128906 376.292969 C 1065.277344 376.292969 1052.425781 389.144531 1052.425781 404.996094 C 1052.425781 420.851562 1065.277344 433.703125 1081.128906 433.703125 C 1096.984375 433.703125 1109.835938 420.851562 1109.835938 404.996094 C 1109.835938 389.144531 1096.984375 376.292969 1081.128906 376.292969 Z M 1081.128906 376.292969 " clip-rule="nonzero"/></clipPath><clipPath id="61ca813518"><path d="M 849.847656 19.851562 L 907.265625 19.851562 L 907.265625 77.265625 L 849.847656 77.265625 Z M 849.847656 19.851562 " clip-rule="nonzero"/></clipPath><clipPath id="0d3cd74511"><path d="M 878.558594 19.851562 C 862.703125 19.851562 849.847656 32.703125 849.847656 48.558594 C 849.847656 64.414062 862.703125 77.265625 878.558594 77.265625 C 894.410156 77.265625 907.265625 64.414062 907.265625 48.558594 C 907.265625 32.703125 894.410156 19.851562 878.558594 19.851562 Z M 878.558594 19.851562 " clip-rule="nonzero"/></clipPath><clipPath id="dbafe92aee"><path d="M 849.847656 19.851562 L 907.257812 19.851562 L 907.257812 77.261719 L 849.847656 77.261719 Z M 849.847656 19.851562 " clip-rule="nonzero"/></clipPath><clipPath id="ee7456dc78"><path d="M 878.554688 19.851562 C 862.699219 19.851562 849.847656 32.703125 849.847656 48.558594 C 849.847656 64.410156 862.699219 77.261719 878.554688 77.261719 C 894.40625 77.261719 907.257812 64.410156 907.257812 48.558594 C 907.257812 32.703125 894.40625 19.851562 878.554688 19.851562 Z M 878.554688 19.851562 " clip-rule="nonzero"/></clipPath><clipPath id="42b72c070f"><path d="M 728.839844 358.621094 L 764.089844 358.621094 L 764.089844 388.621094 L 728.839844 388.621094 Z M 728.839844 358.621094 " clip-rule="nonzero"/></clipPath><clipPath id="9f4f30fb69"><path d="M 739 320 L 795 320 L 795 401 L 739 401 Z M 739 320 " clip-rule="nonzero"/></clipPath><clipPath id="f77c1e2c68"><path d="M 727.339844 387.96875 L 739.320312 320.019531 L 808.011719 332.128906 L 796.03125 400.082031 Z M 727.339844 387.96875 " clip-rule="nonzero"/></clipPath><clipPath id="27d462cc72"><path d="M 721.246094 422.058594 L 739.21875 320.132812 L 808.648438 332.375 L 790.675781 434.300781 Z M 721.246094 422.058594 " clip-rule="nonzero"/></clipPath><clipPath id="ee3f32a653"><path d="M 740 319 L 797 319 L 797 399 L 740 399 Z M 740 319 " clip-rule="nonzero"/></clipPath><clipPath id="233a67051c"><path d="M 728.839844 386.46875 L 740.820312 318.519531 L 809.511719 330.628906 L 797.53125 398.582031 Z M 728.839844 386.46875 " clip-rule="nonzero"/></clipPath><clipPath id="b28c8cffde"><path d="M 722.746094 420.558594 L 740.71875 318.632812 L 810.148438 330.875 L 792.175781 432.800781 Z M 722.746094 420.558594 " clip-rule="nonzero"/></clipPath><clipPath id="cedbeed883"><path d="M 741 319 L 798 319 L 798 399 L 741 399 Z M 741 319 " clip-rule="nonzero"/></clipPath><clipPath id="41edf7f86d"><path d="M 729.792969 386.46875 L 741.773438 318.519531 L 810.464844 330.628906 L 798.484375 398.582031 Z M 729.792969 386.46875 " clip-rule="nonzero"/></clipPath><clipPath id="2fd8b7da88"><path d="M 723.699219 420.558594 L 741.671875 318.632812 L 811.101562 330.875 L 793.128906 432.800781 Z M 723.699219 420.558594 " clip-rule="nonzero"/></clipPath><clipPath id="d6b971eec9"><path d="M 740 318 L 799 318 L 799 400 L 740 400 Z M 740 318 " clip-rule="nonzero"/></clipPath><clipPath id="af1ea00f39"><path d="M 728.839844 387.160156 L 741.082031 317.730469 L 811.988281 330.234375 L 799.746094 399.664062 Z M 728.839844 387.160156 " clip-rule="nonzero"/></clipPath><clipPath id="020c808a03"><path d="M 722.597656 422.09375 L 740.960938 317.953125 L 811.867188 330.453125 L 793.503906 434.597656 Z M 722.597656 422.09375 " clip-rule="nonzero"/></clipPath><clipPath id="dea34de72c"><path d="M 742 316 L 801 316 L 801 400 L 742 400 Z M 742 316 " clip-rule="nonzero"/></clipPath><clipPath id="5948d62aa5"><path d="M 729.792969 386.933594 L 742.296875 316.027344 L 813.941406 328.660156 L 801.4375 399.566406 Z M 729.792969 386.933594 " clip-rule="nonzero"/></clipPath><clipPath id="1c972aa3a5"><path d="M 723.4375 422.503906 L 742.191406 316.144531 L 814.574219 328.90625 L 795.820312 435.265625 Z M 723.4375 422.503906 " clip-rule="nonzero"/></clipPath></defs><g clip-path="url(#8df23ccb45)"><g clip-path="url(#10d8ed375d)"><path stroke-linecap="butt" transform="matrix(0.75, 0, 0, 0.75, 285.947922, 0.00002)" fill="none" stroke-linejoin="miter" d="M 540.001756 -0.0000266667 C 241.767366 -0.0000266667 0.00172868 241.76561 0.00172868 540.000001 C 0.00172868 838.234391 241.767366 1080.000028 540.001756 1080.000028 C 838.236146 1080.000028 1080.001783 838.234391 1080.001783 540.000001 C 1080.001783 241.76561 838.236146 -0.0000266667 540.001756 -0.0000266667 Z M 540.001756 -0.0000266667 " stroke="#ca3838" stroke-width="28" stroke-opacity="1" stroke-miterlimit="4"/></g></g><g clip-path="url(#79b5890f18)"><g clip-path="url(#e14669892a)"><g clip-path="url(#9e07ff3473)"><path fill="#2b7ebd" d="M 858.125 45.578125 C 856.464844 49.269531 858.113281 53.613281 861.804688 55.277344 C 947.4375 93.804688 1016.867188 165.773438 1052.296875 252.730469 C 1087.726562 339.6875 1088.363281 439.683594 1054.042969 527.085938 C 1052.558594 530.859375 1054.417969 535.113281 1058.191406 536.59375 C 1061.960938 538.074219 1066.21875 536.21875 1067.699219 532.449219 C 1076.046875 511.1875 1082.402344 489.226562 1086.773438 466.871094 C 1101.09375 393.683594 1094.101562 316.453125 1065.882812 247.191406 C 1029.046875 156.78125 956.859375 81.953125 867.828125 41.894531 C 864.132812 40.230469 859.789062 41.878906 858.128906 45.574219 Z M 858.125 45.578125 " fill-opacity="1" fill-rule="nonzero"/></g></g></g><path stroke-linecap="butt" transform="matrix(0.75, -0.000000000000000186, 0.000000000000000186, 0.75, 690.947899, 398.625)" fill="none" stroke-linejoin="miter" d="M 0.00175905 8.500001 L 520.246577 8.500001 " stroke="#000000" stroke-width="17" stroke-opacity="1" stroke-miterlimit="4"/><path stroke-linecap="butt" transform="matrix(0.349323, -0.663682, 0.663682, 0.349323, 685.303628, 402.025869)" fill="none" stroke-linejoin="miter" d="M -0.00091737 8.501069 L 498.778614 8.500171 " stroke="#000000" stroke-width="17" stroke-opacity="1" stroke-miterlimit="4"/><g clip-path="url(#9323f9bc31)"><g clip-path="url(#7aaf098765)"><path fill="#2b7ebd" d="M 662.242188 376.292969 L 719.65625 376.292969 L 719.65625 433.707031 L 662.242188 433.707031 Z M 662.242188 376.292969 " fill-opacity="1" fill-rule="nonzero"/></g></g><g clip-path="url(#50be4f8a42)"><g clip-path="url(#2df478c1b7)"><path stroke-linecap="butt" transform="matrix(0.75, 0, 0, 0.75, 662.240253, 376.292346)" fill="none" stroke-linejoin="miter" d="M 38.273415 0.000830508 C 17.137997 0.000830508 0.00257946 17.136248 0.00257946 38.271666 C 0.00257946 59.412292 17.137997 76.547709 38.273415 76.547709 C 59.408832 76.547709 76.549458 59.412292 76.549458 38.271666 C 76.549458 17.136248 59.408832 0.000830508 38.273415 0.000830508 Z M 38.273415 0.000830508 " stroke="#000000" stroke-width="20" stroke-opacity="1" stroke-miterlimit="4"/></g></g><g clip-path="url(#a4c74ded64)"><g clip-path="url(#69a3430703)"><path fill="#2b7ebd" d="M 1052.425781 376.292969 L 1109.839844 376.292969 L 1109.839844 433.707031 L 1052.425781 433.707031 Z M 1052.425781 376.292969 " fill-opacity="1" fill-rule="nonzero"/></g></g><g clip-path="url(#d2d8e58322)"><g clip-path="url(#8284b73274)"><path stroke-linecap="butt" transform="matrix(0.75, 0, 0, 0.75, 1052.424097, 376.292346)" fill="none" stroke-linejoin="miter" d="M 38.273081 0.000830508 C 17.137663 0.000830508 0.0022453 17.136248 0.0022453 38.271666 C 0.0022453 59.412292 17.137663 76.547709 38.273081 76.547709 C 59.413707 76.547709 76.549124 59.412292 76.549124 38.271666 C 76.549124 17.136248 59.413707 0.000830508 38.273081 0.000830508 Z M 38.273081 0.000830508 " stroke="#000000" stroke-width="20" stroke-opacity="1" stroke-miterlimit="4"/></g></g><g clip-path="url(#61ca813518)"><g clip-path="url(#0d3cd74511)"><path fill="#2b7ebd" d="M 849.847656 19.851562 L 907.265625 19.851562 L 907.265625 77.265625 L 849.847656 77.265625 Z M 849.847656 19.851562 " fill-opacity="1" fill-rule="nonzero"/></g></g><g clip-path="url(#dbafe92aee)"><g clip-path="url(#ee7456dc78)"><path stroke-linecap="butt" transform="matrix(0.75, 0, 0, 0.75, 849.849227, 19.85208)" fill="none" stroke-linejoin="miter" d="M 38.273949 -0.000689415 C 17.133323 -0.000689415 -0.00209496 17.134728 -0.00209496 38.275354 C -0.00209496 59.410772 17.133323 76.546189 38.273949 76.546189 C 59.409366 76.546189 76.544784 59.410772 76.544784 38.275354 C 76.544784 17.134728 59.409366 -0.000689415 38.273949 -0.000689415 Z M 38.273949 -0.000689415 " stroke="#000000" stroke-width="20" stroke-opacity="1" stroke-miterlimit="4"/></g></g><g clip-path="url(#42b72c070f)"><path fill="#000000" d="M 764.089844 385.753906 C 761.714844 387.625 759.34375 388.5625 756.972656 388.5625 C 753.582031 388.5625 751.539062 385.742188 750.855469 380.101562 L 750.488281 380.101562 C 747.449219 385.742188 743.726562 388.5625 739.316406 388.5625 C 736.011719 388.5625 733.441406 387.324219 731.601562 384.847656 C 729.761719 382.367188 728.839844 378.832031 728.839844 374.238281 C 728.839844 369.644531 730.160156 365.730469 732.796875 362.90625 C 735.433594 360.085938 738.628906 358.675781 742.375 358.675781 C 745.167969 358.675781 747.355469 359.28125 748.941406 360.488281 C 750.527344 361.699219 751.894531 363.722656 753.046875 366.5625 L 753.546875 366.5625 L 755.875 359.191406 L 761.328125 359.191406 L 761.328125 360.671875 C 759.734375 362.90625 757.605469 367.046875 754.945312 373.089844 C 755.410156 377.160156 755.953125 380.222656 756.574219 382.277344 C 757.195312 384.332031 758.191406 385.359375 759.566406 385.359375 C 760.476562 385.359375 761.550781 384.894531 762.792969 383.96875 L 764.089844 385.75 Z M 750.320312 373.484375 C 749.722656 368.949219 748.84375 365.746094 747.679688 363.875 C 746.515625 362.003906 744.835938 361.066406 742.640625 361.066406 C 740.289062 361.066406 738.417969 362.226562 737.019531 364.554688 C 735.625 366.882812 734.925781 369.980469 734.925781 373.847656 C 734.925781 381.28125 736.957031 385 741.011719 385 C 745.335938 385 748.441406 381.160156 750.324219 373.484375 Z M 750.320312 373.484375 " fill-opacity="1" fill-rule="nonzero"/></g><g clip-path="url(#9f4f30fb69)"><g clip-path="url(#f77c1e2c68)"><g clip-path="url(#27d462cc72)"><path fill="#70c190" d="M 739.207031 321.574219 C 738.84375 322.429688 739.238281 323.421875 740.09375 323.789062 C 759.933594 332.273438 776.195312 348.511719 784.707031 368.339844 C 793.222656 388.164062 793.796875 411.136719 786.285156 431.367188 C 785.960938 432.238281 786.40625 433.210938 787.277344 433.535156 C 788.152344 433.855469 789.121094 433.414062 789.445312 432.539062 C 791.273438 427.621094 792.636719 422.546875 793.546875 417.390625 C 796.523438 400.515625 794.585938 382.800781 787.804688 367.007812 C 778.957031 346.394531 762.046875 329.511719 741.421875 320.6875 C 740.566406 320.320312 739.574219 320.71875 739.207031 321.574219 Z M 739.207031 321.574219 " fill-opacity="1" fill-rule="nonzero"/></g></g></g><g fill="#000000" fill-opacity="1"><g transform="translate(618.151391, 425.265001)"><g><path d="M 34.53125 0 L 27.046875 0 L 24.34375 -8.296875 L 10.5625 -8.296875 L 7.84375 0 L 0.546875 0 L 12.96875 -35.984375 L 22.109375 -35.984375 Z M 17.109375 -28.484375 L 12.484375 -14.28125 L 22.375 -14.28125 L 17.71875 -28.484375 Z M 17.109375 -28.484375 "/></g></g></g><g fill="#000000" fill-opacity="1"><g transform="translate(1118.841622, 423.904866)"><g><path d="M 4.671875 0 L 4.671875 -35.984375 L 20.03125 -35.984375 C 22.25 -35.984375 24.125 -35.632812 25.65625 -34.9375 C 27.1875 -34.238281 28.347656 -33.242188 29.140625 -31.953125 C 29.929688 -30.671875 30.328125 -29.148438 30.328125 -27.390625 C 30.328125 -25.796875 29.941406 -24.390625 29.171875 -23.171875 C 28.398438 -21.960938 27.289062 -20.988281 25.84375 -20.25 L 25.84375 -19.734375 C 28.101562 -19.148438 29.847656 -18.078125 31.078125 -16.515625 C 32.316406 -14.953125 32.9375 -13.039062 32.9375 -10.78125 C 32.9375 -7.332031 31.894531 -4.671875 29.8125 -2.796875 C 27.738281 -0.929688 24.660156 0 20.578125 0 Z M 18.5625 -21.640625 C 21.875 -21.640625 23.53125 -23.128906 23.53125 -26.109375 C 23.53125 -27.640625 23.117188 -28.773438 22.296875 -29.515625 C 21.472656 -30.265625 20.226562 -30.640625 18.5625 -30.640625 L 11.796875 -30.640625 L 11.796875 -21.640625 Z M 19.859375 -5.640625 C 23.785156 -5.640625 25.75 -7.421875 25.75 -10.984375 C 25.75 -14.554688 23.785156 -16.34375 19.859375 -16.34375 L 11.796875 -16.34375 L 11.796875 -5.640625 Z M 19.859375 -5.640625 "/></g></g></g><g fill="#000000" fill-opacity="1"><g transform="translate(920.35268, 59.300482)"><g><path d="M 19.671875 0.515625 C 16.347656 0.515625 13.421875 -0.171875 10.890625 -1.546875 C 8.367188 -2.929688 6.394531 -5.003906 4.96875 -7.765625 C 3.539062 -10.523438 2.828125 -13.929688 2.828125 -17.984375 C 2.828125 -22.046875 3.539062 -25.457031 4.96875 -28.21875 C 6.394531 -30.976562 8.367188 -33.046875 10.890625 -34.421875 C 13.421875 -35.804688 16.347656 -36.5 19.671875 -36.5 C 23.128906 -36.5 26.066406 -35.820312 28.484375 -34.46875 C 30.910156 -33.113281 32.640625 -31.050781 33.671875 -28.28125 L 28.484375 -25.109375 L 27.859375 -25.125 C 27.085938 -27 26.039062 -28.34375 24.71875 -29.15625 C 23.394531 -29.96875 21.710938 -30.375 19.671875 -30.375 C 16.679688 -30.375 14.347656 -29.382812 12.671875 -27.40625 C 11.003906 -25.425781 10.171875 -22.285156 10.171875 -17.984375 C 10.171875 -13.703125 11.003906 -10.570312 12.671875 -8.59375 C 14.347656 -6.625 16.679688 -5.640625 19.671875 -5.640625 C 24.347656 -5.640625 27.207031 -7.910156 28.25 -12.453125 L 28.875 -12.453125 L 34.109375 -9.71875 C 33.128906 -6.3125 31.445312 -3.753906 29.0625 -2.046875 C 26.6875 -0.335938 23.554688 0.515625 19.671875 0.515625 Z M 19.671875 0.515625 "/></g></g></g><g clip-path="url(#ee3f32a653)"><g clip-path="url(#233a67051c)"><g clip-path="url(#b28c8cffde)"><path fill="#70c190" d="M 740.707031 320.074219 C 740.34375 320.929688 740.738281 321.921875 741.59375 322.289062 C 761.433594 330.773438 777.695312 347.011719 786.207031 366.839844 C 794.722656 386.664062 795.296875 409.636719 787.785156 429.867188 C 787.460938 430.738281 787.90625 431.710938 788.777344 432.035156 C 789.652344 432.355469 790.621094 431.914062 790.945312 431.039062 C 792.773438 426.121094 794.136719 421.046875 795.046875 415.890625 C 798.023438 399.015625 796.085938 381.300781 789.304688 365.507812 C 780.457031 344.894531 763.546875 328.011719 742.921875 319.1875 C 742.066406 318.820312 741.074219 319.21875 740.707031 320.074219 Z M 740.707031 320.074219 " fill-opacity="1" fill-rule="nonzero"/></g></g></g><g clip-path="url(#cedbeed883)"><g clip-path="url(#41edf7f86d)"><g clip-path="url(#2fd8b7da88)"><path fill="#70c190" d="M 741.660156 320.074219 C 741.296875 320.929688 741.695312 321.921875 742.546875 322.289062 C 762.386719 330.773438 778.648438 347.011719 787.160156 366.839844 C 795.675781 386.664062 796.25 409.636719 788.738281 429.867188 C 788.414062 430.738281 788.859375 431.710938 789.734375 432.035156 C 790.605469 432.355469 791.574219 431.914062 791.898438 431.039062 C 793.726562 426.121094 795.09375 421.046875 796 415.890625 C 798.976562 399.015625 797.039062 381.300781 790.261719 365.507812 C 781.410156 344.894531 764.503906 328.011719 743.875 319.1875 C 743.019531 318.820312 742.027344 319.21875 741.660156 320.074219 Z M 741.660156 320.074219 " fill-opacity="1" fill-rule="nonzero"/></g></g></g><g clip-path="url(#d6b971eec9)"><g clip-path="url(#af1ea00f39)"><g clip-path="url(#020c808a03)"><path fill="#70c190" d="M 741 319.121094 C 740.625 319.996094 741.03125 321.011719 741.90625 321.386719 C 762.238281 330.082031 778.902344 346.722656 787.625 367.042969 C 796.351562 387.359375 796.941406 410.902344 789.242188 431.632812 C 788.910156 432.527344 789.367188 433.519531 790.261719 433.851562 C 791.15625 434.183594 792.148438 433.730469 792.480469 432.835938 C 794.355469 427.792969 795.753906 422.59375 796.683594 417.3125 C 799.734375 400.015625 797.75 381.863281 790.800781 365.679688 C 781.730469 344.550781 764.40625 327.25 743.265625 318.210938 C 742.390625 317.835938 741.375 318.242188 741 319.117188 Z M 741 319.121094 " fill-opacity="1" fill-rule="nonzero"/></g></g></g><path stroke-linecap="butt" transform="matrix(0.75, 0, 0, 0.75, 763.538512, 398.644277)" fill="none" stroke-linejoin="miter" d="M 0.000734254 2.000339 L 271.052831 2.000339 " stroke="#000000" stroke-width="4" stroke-opacity="1" stroke-miterlimit="4"/><g clip-path="url(#dea34de72c)"><g clip-path="url(#5948d62aa5)"><g clip-path="url(#1c972aa3a5)"><path fill="#70c190" d="M 742.175781 317.640625 C 741.792969 318.535156 742.207031 319.570312 743.101562 319.949219 C 763.804688 328.804688 780.773438 345.75 789.660156 366.441406 C 798.542969 387.132812 799.144531 411.105469 791.304688 432.214844 C 790.964844 433.128906 791.429688 434.140625 792.339844 434.476562 C 793.253906 434.816406 794.265625 434.351562 794.601562 433.441406 C 796.507812 428.304688 797.933594 423.011719 798.882812 417.632812 C 801.988281 400.019531 799.96875 381.535156 792.890625 365.054688 C 783.65625 343.539062 766.011719 325.921875 744.484375 316.714844 C 743.59375 316.332031 742.558594 316.746094 742.175781 317.640625 Z M 742.175781 317.640625 " fill-opacity="1" fill-rule="nonzero"/></g></g></g><path stroke-linecap="butt" transform="matrix(0.338098, -0.66947, 0.66947, 0.338098, 727.340658, 342.746868)" fill="none" stroke-linejoin="miter" d="M 0.00146933 1.999393 L 131.157229 1.999801 " stroke="#000000" stroke-width="4" stroke-opacity="1" stroke-miterlimit="4"/></svg>