<svg xmlns="http://www.w3.org/2000/svg" xmlns:xlink="http://www.w3.org/1999/xlink" width="1920" zoomAndPan="magnify" viewBox="0 0 1440 809.999993" height="1080" preserveAspectRatio="xMidYMid meet" version="1.0"><defs><g/><clipPath id="1ecdd737c3"><path d="M 285.949219 0 L 1095.945312 0 L 1095.945312 810 L 285.949219 810 Z M 285.949219 0 " clip-rule="nonzero"/></clipPath><clipPath id="bac1032ff8"><path d="M 690.945312 0 C 467.273438 0 285.949219 181.324219 285.949219 405 C 285.949219 628.675781 467.273438 810 690.945312 810 C 914.621094 810 1095.945312 628.675781 1095.945312 405 C 1095.945312 181.324219 914.621094 0 690.945312 0 Z M 690.945312 0 " clip-rule="nonzero"/></clipPath><clipPath id="9af064c0ae"><path d="M 854 41 L 1096 41 L 1096 422 L 854 422 Z M 854 41 " clip-rule="nonzero"/></clipPath><clipPath id="ab8f2ea940"><path d="M 795.015625 368.632812 L 855.402344 39.238281 L 1145.839844 92.484375 L 1085.449219 421.878906 Z M 795.015625 368.632812 " clip-rule="nonzero"/></clipPath><clipPath id="4a29343448"><path d="M 773.34375 484.855469 L 855 39.460938 L 1157.832031 94.980469 L 1076.179688 540.375 Z M 773.34375 484.855469 " clip-rule="nonzero"/></clipPath><clipPath id="ab97c2f634"><path d="M 662.242188 376.292969 L 719.65625 376.292969 L 719.65625 433.707031 L 662.242188 433.707031 Z M 662.242188 376.292969 " clip-rule="nonzero"/></clipPath><clipPath id="b67850f006"><path d="M 690.949219 376.292969 C 675.09375 376.292969 662.242188 389.144531 662.242188 405 C 662.242188 420.855469 675.09375 433.707031 690.949219 433.707031 C 706.800781 433.707031 719.65625 420.855469 719.65625 405 C 719.65625 389.144531 706.800781 376.292969 690.949219 376.292969 Z M 690.949219 376.292969 " clip-rule="nonzero"/></clipPath><clipPath id="5c12a47682"><path d="M 662.242188 376.292969 L 719.644531 376.292969 L 719.644531 433.695312 L 662.242188 433.695312 Z M 662.242188 376.292969 " clip-rule="nonzero"/></clipPath><clipPath id="3490233556"><path d="M 690.941406 376.292969 C 675.089844 376.292969 662.242188 389.144531 662.242188 404.996094 C 662.242188 420.847656 675.089844 433.695312 690.941406 433.695312 C 706.792969 433.695312 719.644531 420.847656 719.644531 404.996094 C 719.644531 389.144531 706.792969 376.292969 690.941406 376.292969 Z M 690.941406 376.292969 " clip-rule="nonzero"/></clipPath><clipPath id="822c40d094"><path d="M 1052.425781 376.292969 L 1109.839844 376.292969 L 1109.839844 433.707031 L 1052.425781 433.707031 Z M 1052.425781 376.292969 " clip-rule="nonzero"/></clipPath><clipPath id="0c742b1101"><path d="M 1081.132812 376.292969 C 1065.277344 376.292969 1052.425781 389.144531 1052.425781 405 C 1052.425781 420.855469 1065.277344 433.707031 1081.132812 433.707031 C 1096.988281 433.707031 1109.839844 420.855469 1109.839844 405 C 1109.839844 389.144531 1096.988281 376.292969 1081.132812 376.292969 Z M 1081.132812 376.292969 " clip-rule="nonzero"/></clipPath><clipPath id="84fcd3b536"><path d="M 1052.425781 376.292969 L 1109.828125 376.292969 L 1109.828125 433.695312 L 1052.425781 433.695312 Z M 1052.425781 376.292969 " clip-rule="nonzero"/></clipPath><clipPath id="1db08b5bae"><path d="M 1081.125 376.292969 C 1065.273438 376.292969 1052.425781 389.144531 1052.425781 404.996094 C 1052.425781 420.847656 1065.273438 433.695312 1081.125 433.695312 C 1096.976562 433.695312 1109.828125 420.847656 1109.828125 404.996094 C 1109.828125 389.144531 1096.976562 376.292969 1081.125 376.292969 Z M 1081.125 376.292969 " clip-rule="nonzero"/></clipPath><clipPath id="f01e6283c9"><path d="M 849.847656 19.851562 L 907.265625 19.851562 L 907.265625 77.265625 L 849.847656 77.265625 Z M 849.847656 19.851562 " clip-rule="nonzero"/></clipPath><clipPath id="dd0907caa1"><path d="M 878.558594 19.851562 C 862.703125 19.851562 849.847656 32.703125 849.847656 48.558594 C 849.847656 64.414062 862.703125 77.265625 878.558594 77.265625 C 894.410156 77.265625 907.265625 64.414062 907.265625 48.558594 C 907.265625 32.703125 894.410156 19.851562 878.558594 19.851562 Z M 878.558594 19.851562 " clip-rule="nonzero"/></clipPath><clipPath id="c48f2b33a7"><path d="M 849.847656 19.851562 L 907.253906 19.851562 L 907.253906 77.257812 L 849.847656 77.257812 Z M 849.847656 19.851562 " clip-rule="nonzero"/></clipPath><clipPath id="d10e89d3a4"><path d="M 878.550781 19.851562 C 862.699219 19.851562 849.847656 32.703125 849.847656 48.554688 C 849.847656 64.40625 862.699219 77.257812 878.550781 77.257812 C 894.402344 77.257812 907.253906 64.40625 907.253906 48.554688 C 907.253906 32.703125 894.402344 19.851562 878.550781 19.851562 Z M 878.550781 19.851562 " clip-rule="nonzero"/></clipPath><clipPath id="c848fa4aff"><path d="M 728.839844 358.621094 L 763.949219 358.621094 L 763.949219 388.328125 L 728.839844 388.328125 Z M 728.839844 358.621094 " clip-rule="nonzero"/></clipPath><clipPath id="18e27bd963"><path d="M 737 329 L 787 329 L 787 400 L 737 400 Z M 737 329 " clip-rule="nonzero"/></clipPath><clipPath id="278671ef81"><path d="M 726.855469 389.082031 L 737.484375 328.796875 L 798.65625 339.582031 L 788.027344 399.867188 Z M 726.855469 389.082031 " clip-rule="nonzero"/></clipPath><clipPath id="6fe1eaaf82"><path d="M 721.445312 419.351562 L 737.390625 328.921875 L 798.5625 339.710938 L 782.617188 430.136719 Z M 721.445312 419.351562 " clip-rule="nonzero"/></clipPath><clipPath id="370630d9dd"><path d="M 307.777344 543.945312 L 365.191406 543.945312 L 365.191406 601.359375 L 307.777344 601.359375 Z M 307.777344 543.945312 " clip-rule="nonzero"/></clipPath><clipPath id="5c84c265eb"><path d="M 336.484375 543.945312 C 320.632812 543.945312 307.777344 556.796875 307.777344 572.652344 C 307.777344 588.507812 320.632812 601.359375 336.484375 601.359375 C 352.339844 601.359375 365.191406 588.507812 365.191406 572.652344 C 365.191406 556.796875 352.339844 543.945312 336.484375 543.945312 Z M 336.484375 543.945312 " clip-rule="nonzero"/></clipPath><clipPath id="1212071174"><path d="M 307.777344 543.945312 L 365.183594 543.945312 L 365.183594 601.351562 L 307.777344 601.351562 Z M 307.777344 543.945312 " clip-rule="nonzero"/></clipPath><clipPath id="f2380440cc"><path d="M 336.480469 543.945312 C 320.628906 543.945312 307.777344 556.796875 307.777344 572.648438 C 307.777344 588.5 320.628906 601.351562 336.480469 601.351562 C 352.332031 601.351562 365.183594 588.5 365.183594 572.648438 C 365.183594 556.796875 352.332031 543.945312 336.480469 543.945312 Z M 336.480469 543.945312 " clip-rule="nonzero"/></clipPath><clipPath id="902001294b"><path d="M 403 517 L 423 517 L 423 545 L 403 545 Z M 403 517 " clip-rule="nonzero"/></clipPath><clipPath id="66785c8e3a"><path d="M 400.410156 520.617188 L 415.46875 514.632812 L 425.777344 540.566406 L 410.71875 546.550781 Z M 400.410156 520.617188 " clip-rule="nonzero"/></clipPath><clipPath id="289043acfe"><path d="M 400.410156 520.617188 L 415.46875 514.632812 L 425.777344 540.566406 L 410.71875 546.550781 Z M 400.410156 520.617188 " clip-rule="nonzero"/></clipPath><clipPath id="93597d77f4"><path d="M 737 328 L 787 328 L 787 399 L 737 399 Z M 737 328 " clip-rule="nonzero"/></clipPath><clipPath id="f17e2a6104"><path d="M 726.855469 388.179688 L 737.484375 327.894531 L 798.65625 338.683594 L 788.027344 398.96875 Z M 726.855469 388.179688 " clip-rule="nonzero"/></clipPath><clipPath id="af59291859"><path d="M 721.445312 418.453125 L 737.390625 328.023438 L 798.5625 338.808594 L 782.617188 429.238281 Z M 721.445312 418.453125 " clip-rule="nonzero"/></clipPath><clipPath id="a32d76c40b"><path d="M 735 329 L 786 329 L 786 400 L 735 400 Z M 735 329 " clip-rule="nonzero"/></clipPath><clipPath id="bd2f3ac45e"><path d="M 725.425781 389.082031 L 736.054688 328.796875 L 797.226562 339.582031 L 786.597656 399.867188 Z M 725.425781 389.082031 " clip-rule="nonzero"/></clipPath><clipPath id="c2f8c1f6f2"><path d="M 720.015625 419.351562 L 735.960938 328.921875 L 797.132812 339.710938 L 781.1875 430.136719 Z M 720.015625 419.351562 " clip-rule="nonzero"/></clipPath><clipPath id="b4f78cb3b3"><path d="M 414 505 L 442 505 L 442 544 L 414 544 Z M 414 505 " clip-rule="nonzero"/></clipPath><clipPath id="d914804ef0"><path d="M 408.308594 537.964844 L 414.25 504.273438 L 447.9375 510.214844 L 442 543.902344 Z M 408.308594 537.964844 " clip-rule="nonzero"/></clipPath><clipPath id="2d2c4eb378"><path d="M 405.316406 554.703125 L 414.070312 505.058594 L 447.761719 511 L 439.007812 560.644531 Z M 405.316406 554.703125 " clip-rule="nonzero"/></clipPath><clipPath id="c84b9ffcc5"><path d="M 413 505 L 441 505 L 441 545 L 413 545 Z M 413 505 " clip-rule="nonzero"/></clipPath><clipPath id="e85100bcd4"><path d="M 407.410156 538.863281 L 413.351562 505.175781 L 447.039062 511.113281 L 441.097656 544.804688 Z M 407.410156 538.863281 " clip-rule="nonzero"/></clipPath><clipPath id="769c22ca21"><path d="M 404.417969 555.605469 L 413.171875 505.957031 L 446.859375 511.898438 L 438.105469 561.546875 Z M 404.417969 555.605469 " clip-rule="nonzero"/></clipPath><clipPath id="1b7605d321"><path d="M 412 505 L 440 505 L 440 545 L 412 545 Z M 412 505 " clip-rule="nonzero"/></clipPath><clipPath id="4c60977217"><path d="M 406.507812 538.863281 L 412.449219 505.175781 L 446.140625 511.113281 L 440.199219 544.804688 Z M 406.507812 538.863281 " clip-rule="nonzero"/></clipPath><clipPath id="5999656096"><path d="M 403.515625 555.605469 L 412.269531 505.957031 L 445.960938 511.898438 L 437.207031 561.546875 Z M 403.515625 555.605469 " clip-rule="nonzero"/></clipPath><clipPath id="8661af8a58"><path d="M 411 505 L 439 505 L 439 545 L 411 545 Z M 411 505 " clip-rule="nonzero"/></clipPath><clipPath id="08cd6d8eca"><path d="M 405.609375 538.863281 L 411.550781 505.175781 L 445.238281 511.113281 L 439.296875 544.804688 Z M 405.609375 538.863281 " clip-rule="nonzero"/></clipPath><clipPath id="d930b47437"><path d="M 402.617188 555.605469 L 411.371094 505.957031 L 445.058594 511.898438 L 436.304688 561.546875 Z M 402.617188 555.605469 " clip-rule="nonzero"/></clipPath><clipPath id="032ce898a8"><path d="M 412 503 L 443 503 L 443 546 L 412 546 Z M 412 503 " clip-rule="nonzero"/></clipPath><clipPath id="45b9c1e88c"><path d="M 406.507812 539.230469 L 412.917969 502.882812 L 450.152344 509.449219 L 443.742188 545.796875 Z M 406.507812 539.230469 " clip-rule="nonzero"/></clipPath><clipPath id="1139c6b093"><path d="M 403.238281 557.527344 L 412.929688 502.558594 L 450.164062 509.125 L 440.472656 564.089844 Z M 403.238281 557.527344 " clip-rule="nonzero"/></clipPath><clipPath id="7cd69c606f"><path d="M 412 500 L 445 500 L 445 547 L 412 547 Z M 412 500 " clip-rule="nonzero"/></clipPath><clipPath id="1abc1adabe"><path d="M 405.613281 539.269531 L 412.488281 500.261719 L 451.5 507.140625 L 444.621094 546.148438 Z M 405.613281 539.269531 " clip-rule="nonzero"/></clipPath><clipPath id="a8e95006e1"><path d="M 402.136719 558.703125 L 412.457031 500.1875 L 452.351562 507.222656 L 442.03125 565.734375 Z M 402.136719 558.703125 " clip-rule="nonzero"/></clipPath><clipPath id="b668db78c1"><path d="M 734 323 L 788 323 L 788 400 L 734 400 Z M 734 323 " clip-rule="nonzero"/></clipPath><clipPath id="931fab4997"><path d="M 723.054688 388.203125 L 734.46875 323.484375 L 800.960938 335.207031 L 789.546875 399.925781 Z M 723.054688 388.203125 " clip-rule="nonzero"/></clipPath><clipPath id="8eabdbb431"><path d="M 717.207031 420.910156 L 734.40625 323.390625 L 800.894531 335.113281 L 783.699219 432.636719 Z M 717.207031 420.910156 " clip-rule="nonzero"/></clipPath><clipPath id="52a05ca31f"><path d="M 733 320 L 789 320 L 789 400 L 733 400 Z M 733 320 " clip-rule="nonzero"/></clipPath><clipPath id="3f6517b833"><path d="M 722.0625 387.011719 L 733.785156 320.519531 L 802.050781 332.558594 L 790.324219 399.050781 Z M 722.0625 387.011719 " clip-rule="nonzero"/></clipPath><clipPath id="c0a905fc47"><path d="M 716.066406 420.558594 L 733.730469 320.378906 L 801.992188 332.414062 L 784.328125 432.597656 Z M 716.066406 420.558594 " clip-rule="nonzero"/></clipPath><clipPath id="bc5a09833e"><path d="M 737 320 L 791 320 L 791 400 L 737 400 Z M 737 320 " clip-rule="nonzero"/></clipPath><clipPath id="8adb164eab"><path d="M 724.378906 386.746094 L 737.246094 320.464844 L 805.292969 333.675781 L 792.425781 399.957031 Z M 724.378906 386.746094 " clip-rule="nonzero"/></clipPath><clipPath id="3964f64aa3"><path d="M 717.8125 420.160156 L 737.195312 320.300781 L 805.246094 333.507812 L 785.859375 433.371094 Z M 717.8125 420.160156 " clip-rule="nonzero"/></clipPath></defs><g clip-path="url(#1ecdd737c3)"><g clip-path="url(#bac1032ff8)"><path stroke-linecap="butt" transform="matrix(0.900232, 0, 0, 0.900232, 285.947922, 0.00002)" fill="none" stroke-linejoin="miter" d="M 449.88091 -0.0000222165 C 201.420774 -0.0000222165 0.0014402 201.419311 0.0014402 449.883786 C 0.0014402 698.348261 201.420774 899.767595 449.88091 899.767595 C 698.345385 899.767595 899.764718 698.348261 899.764718 449.883786 C 899.764718 201.419311 698.345385 -0.0000222165 449.88091 -0.0000222165 Z M 449.88091 -0.0000222165 " stroke="#ca3838" stroke-width="23.327307" stroke-opacity="1" stroke-miterlimit="4"/></g></g><g clip-path="url(#9af064c0ae)"><g clip-path="url(#ab8f2ea940)"><g clip-path="url(#4a29343448)"><path fill="#2b7ebd" d="M 854.84375 46.054688 C 853.21875 49.785156 854.925781 54.128906 858.65625 55.753906 C 945.144531 93.441406 1015.757812 164.917969 1052.386719 251.859375 C 1089.019531 338.800781 1090.855469 439.253906 1057.414062 527.476562 C 1055.96875 531.28125 1057.886719 535.535156 1061.691406 536.980469 C 1065.5 538.421875 1069.753906 536.503906 1071.199219 532.699219 C 1079.332031 511.242188 1085.453125 489.101562 1089.582031 466.589844 C 1103.09375 392.886719 1095.148438 315.382812 1065.972656 246.132812 C 1027.886719 155.742188 954.46875 81.425781 864.546875 42.238281 C 860.8125 40.613281 856.46875 42.320312 854.84375 46.050781 Z M 854.84375 46.054688 " fill-opacity="1" fill-rule="nonzero"/></g></g></g><path stroke-linecap="butt" transform="matrix(0.900232, -0.000000000000000447, 0.000000000000000447, 0.900232, 690.947899, 398.69833)" fill="none" stroke-linejoin="miter" d="M 0.0014655 7.000048 L 433.426851 7.000048 " stroke="#2b7ebd" stroke-width="14" stroke-opacity="1" stroke-miterlimit="4"/><path stroke-linecap="butt" transform="matrix(0.419295, -0.796624, 0.796624, 0.419295, 685.368716, 402.060235)" fill="none" stroke-linejoin="miter" d="M -0.000658889 7.000634 L 415.541603 6.999883 " stroke="#2b7ebd" stroke-width="14" stroke-opacity="1" stroke-miterlimit="4"/><g clip-path="url(#ab97c2f634)"><g clip-path="url(#b67850f006)"><path fill="#2b7ebd" d="M 662.242188 376.292969 L 719.65625 376.292969 L 719.65625 433.707031 L 662.242188 433.707031 Z M 662.242188 376.292969 " fill-opacity="1" fill-rule="nonzero"/></g></g><g clip-path="url(#5c12a47682)"><g clip-path="url(#3490233556)"><path stroke-linecap="butt" transform="matrix(0.900232, 0, 0, 0.900232, 662.240253, 376.292375)" fill="none" stroke-linejoin="miter" d="M 31.881936 0.000659919 C 14.273637 0.000659919 0.00214899 14.276487 0.00214899 31.884786 C 0.00214899 49.493086 14.273637 63.764574 31.881936 63.764574 C 49.490236 63.764574 63.766063 49.493086 63.766063 31.884786 C 63.766063 14.276487 49.490236 0.000659919 31.881936 0.000659919 Z M 31.881936 0.000659919 " stroke="#000000" stroke-width="16.662361" stroke-opacity="1" stroke-miterlimit="4"/></g></g><g clip-path="url(#822c40d094)"><g clip-path="url(#0c742b1101)"><path fill="#2b7ebd" d="M 1052.425781 376.292969 L 1109.839844 376.292969 L 1109.839844 433.707031 L 1052.425781 433.707031 Z M 1052.425781 376.292969 " fill-opacity="1" fill-rule="nonzero"/></g></g><g clip-path="url(#84fcd3b536)"><g clip-path="url(#1db08b5bae)"><path stroke-linecap="butt" transform="matrix(0.900232, 0, 0, 0.900232, 1052.424217, 376.292375)" fill="none" stroke-linejoin="miter" d="M 31.881525 0.000659919 C 14.273225 0.000659919 0.0017373 14.276487 0.0017373 31.884786 C 0.0017373 49.493086 14.273225 63.764574 31.881525 63.764574 C 49.489824 63.764574 63.765651 49.493086 63.765651 31.884786 C 63.765651 14.276487 49.489824 0.000659919 31.881525 0.000659919 Z M 31.881525 0.000659919 " stroke="#000000" stroke-width="16.662361" stroke-opacity="1" stroke-miterlimit="4"/></g></g><g clip-path="url(#f01e6283c9)"><g clip-path="url(#dd0907caa1)"><path fill="#2b7ebd" d="M 849.847656 19.851562 L 907.265625 19.851562 L 907.265625 77.265625 L 849.847656 77.265625 Z M 849.847656 19.851562 " fill-opacity="1" fill-rule="nonzero"/></g></g><g clip-path="url(#c48f2b33a7)"><g clip-path="url(#d10e89d3a4)"><path stroke-linecap="butt" transform="matrix(0.900232, 0, 0, 0.900232, 849.849275, 19.852078)" fill="none" stroke-linejoin="miter" d="M 31.882328 -0.000572231 C 14.274028 -0.000572231 -0.00179867 14.275255 -0.00179867 31.883554 C -0.00179867 49.491854 14.274028 63.767681 31.882328 63.767681 C 49.490627 63.767681 63.766454 49.491854 63.766454 31.883554 C 63.766454 14.275255 49.490627 -0.000572231 31.882328 -0.000572231 Z M 31.882328 -0.000572231 " stroke="#000000" stroke-width="16.662361" stroke-opacity="1" stroke-miterlimit="4"/></g></g><g clip-path="url(#c848fa4aff)"><path fill="#000000" d="M 763.949219 385.492188 C 761.585938 387.347656 759.222656 388.273438 756.859375 388.273438 C 753.480469 388.273438 751.449219 385.484375 750.765625 379.894531 L 750.402344 379.894531 C 747.375 385.484375 743.664062 388.273438 739.273438 388.273438 C 735.980469 388.273438 733.421875 387.046875 731.589844 384.59375 C 729.757812 382.136719 728.839844 378.636719 728.839844 374.085938 C 728.839844 369.535156 730.152344 365.65625 732.78125 362.863281 C 735.410156 360.070312 738.589844 358.671875 742.320312 358.671875 C 745.101562 358.671875 747.28125 359.269531 748.859375 360.46875 C 750.441406 361.664062 751.804688 363.667969 752.953125 366.484375 L 753.449219 366.484375 L 755.769531 359.179688 L 761.199219 359.179688 L 761.199219 360.648438 C 759.609375 362.863281 757.488281 366.964844 754.839844 372.949219 C 755.304688 376.980469 755.84375 380.015625 756.464844 382.046875 C 757.082031 384.085938 758.074219 385.101562 759.445312 385.101562 C 760.351562 385.101562 761.417969 384.640625 762.65625 383.722656 L 763.949219 385.488281 Z M 750.238281 373.339844 C 749.640625 368.847656 748.761719 365.675781 747.601562 363.820312 C 746.445312 361.964844 744.769531 361.039062 742.585938 361.039062 C 740.246094 361.039062 738.378906 362.1875 736.988281 364.496094 C 735.597656 366.800781 734.902344 369.867188 734.902344 373.699219 C 734.902344 381.0625 736.921875 384.746094 740.964844 384.746094 C 745.269531 384.746094 748.363281 380.941406 750.238281 373.339844 Z M 750.238281 373.339844 " fill-opacity="1" fill-rule="nonzero"/></g><g clip-path="url(#18e27bd963)"><g clip-path="url(#278671ef81)"><g clip-path="url(#6fe1eaaf82)"><path fill="#2b7ebd" d="M 737.390625 330.121094 C 737.066406 330.878906 737.417969 331.761719 738.179688 332.085938 C 755.796875 339.621094 770.234375 354.039062 777.792969 371.644531 C 785.355469 389.253906 785.867188 409.652344 779.195312 427.617188 C 778.90625 428.390625 779.300781 429.253906 780.078125 429.539062 C 780.851562 429.828125 781.714844 429.433594 782.003906 428.65625 C 783.625 424.289062 784.835938 419.785156 785.644531 415.207031 C 788.285156 400.21875 786.566406 384.488281 780.546875 370.464844 C 772.6875 352.160156 757.671875 337.167969 739.355469 329.332031 C 738.59375 329.007812 737.714844 329.359375 737.390625 330.121094 Z M 737.390625 330.121094 " fill-opacity="1" fill-rule="nonzero"/></g></g></g><path stroke-linecap="butt" transform="matrix(0.878248, -0.197734, 0.197734, 0.878248, 363.11413, 560.19844)" fill="none" stroke-linejoin="miter" d="M 0.0015196 7.002026 L 784.082882 6.997767 " stroke="#edd956" stroke-width="14" stroke-opacity="1" stroke-miterlimit="4"/><g clip-path="url(#370630d9dd)"><g clip-path="url(#5c84c265eb)"><path fill="#2b7ebd" d="M 307.777344 543.945312 L 365.191406 543.945312 L 365.191406 601.359375 L 307.777344 601.359375 Z M 307.777344 543.945312 " fill-opacity="1" fill-rule="nonzero"/></g></g><g clip-path="url(#1212071174)"><g clip-path="url(#f2380440cc)"><path stroke-linecap="butt" transform="matrix(0.900232, 0, 0, 0.900232, 307.778048, 543.946001)" fill="none" stroke-linejoin="miter" d="M 31.883345 -0.000764397 C 14.275045 -0.000764397 -0.000781785 14.275062 -0.000781785 31.883362 C -0.000781785 49.491662 14.275045 63.767488 31.883345 63.767488 C 49.491644 63.767488 63.767471 49.491662 63.767471 31.883362 C 63.767471 14.275062 49.491644 -0.000764397 31.883345 -0.000764397 Z M 31.883345 -0.000764397 " stroke="#000000" stroke-width="16.662361" stroke-opacity="1" stroke-miterlimit="4"/></g></g><path stroke-linecap="butt" transform="matrix(0.647202, -0.625738, 0.625738, 0.647202, 352.744061, 548.168488)" fill="none" stroke-linejoin="miter" d="M 0.000371488 7.000849 L 773.784232 6.998622 " stroke="#edd956" stroke-width="14" stroke-opacity="1" stroke-miterlimit="4"/><g clip-path="url(#902001294b)"><g clip-path="url(#66785c8e3a)"><g clip-path="url(#289043acfe)"><path fill="#000000" d="M 407.941406 517.632812 C 409.964844 516.828125 412.140625 517.332031 414.472656 519.152344 C 416.800781 520.960938 418.71875 523.761719 420.226562 527.558594 C 421.855469 531.652344 422.390625 535.179688 421.832031 538.132812 C 421.269531 541.085938 420.007812 542.953125 418.046875 543.734375 C 416.117188 544.5 413.960938 544.03125 411.582031 542.332031 C 409.207031 540.613281 407.238281 537.789062 405.675781 533.863281 C 404.109375 529.921875 403.566406 526.441406 404.042969 523.421875 C 404.535156 520.398438 405.832031 518.46875 407.941406 517.632812 Z M 416.730469 528.492188 C 413.71875 520.921875 410.886719 517.667969 408.226562 518.722656 C 405.496094 519.808594 405.636719 524.136719 408.644531 531.703125 Z M 409.089844 532.816406 C 410.644531 536.734375 412.160156 539.480469 413.632812 541.058594 C 415.101562 542.625 416.453125 543.160156 417.683594 542.671875 C 420.355469 541.609375 420.183594 537.253906 417.171875 529.605469 Z M 409.089844 532.816406 " fill-opacity="1" fill-rule="nonzero"/></g></g></g><g fill="#000000" fill-opacity="1"><g transform="translate(618.151391, 425.265001)"><g><path d="M 34.53125 0 L 27.046875 0 L 24.34375 -8.296875 L 10.5625 -8.296875 L 7.84375 0 L 0.546875 0 L 12.96875 -35.984375 L 22.109375 -35.984375 Z M 17.109375 -28.484375 L 12.484375 -14.28125 L 22.375 -14.28125 L 17.71875 -28.484375 Z M 17.109375 -28.484375 "/></g></g></g><g fill="#000000" fill-opacity="1"><g transform="translate(1118.841622, 423.904866)"><g><path d="M 4.671875 0 L 4.671875 -35.984375 L 20.03125 -35.984375 C 22.25 -35.984375 24.125 -35.632812 25.65625 -34.9375 C 27.1875 -34.238281 28.347656 -33.242188 29.140625 -31.953125 C 29.929688 -30.671875 30.328125 -29.148438 30.328125 -27.390625 C 30.328125 -25.796875 29.941406 -24.390625 29.171875 -23.171875 C 28.398438 -21.960938 27.289062 -20.988281 25.84375 -20.25 L 25.84375 -19.734375 C 28.101562 -19.148438 29.847656 -18.078125 31.078125 -16.515625 C 32.316406 -14.953125 32.9375 -13.039062 32.9375 -10.78125 C 32.9375 -7.332031 31.894531 -4.671875 29.8125 -2.796875 C 27.738281 -0.929688 24.660156 0 20.578125 0 Z M 18.5625 -21.640625 C 21.875 -21.640625 23.53125 -23.128906 23.53125 -26.109375 C 23.53125 -27.640625 23.117188 -28.773438 22.296875 -29.515625 C 21.472656 -30.265625 20.226562 -30.640625 18.5625 -30.640625 L 11.796875 -30.640625 L 11.796875 -21.640625 Z M 19.859375 -5.640625 C 23.785156 -5.640625 25.75 -7.421875 25.75 -10.984375 C 25.75 -14.554688 23.785156 -16.34375 19.859375 -16.34375 L 11.796875 -16.34375 L 11.796875 -5.640625 Z M 19.859375 -5.640625 "/></g></g></g><g fill="#000000" fill-opacity="1"><g transform="translate(920.35268, 59.300481)"><g><path d="M 19.671875 0.515625 C 16.347656 0.515625 13.421875 -0.171875 10.890625 -1.546875 C 8.367188 -2.929688 6.394531 -5.003906 4.96875 -7.765625 C 3.539062 -10.523438 2.828125 -13.929688 2.828125 -17.984375 C 2.828125 -22.046875 3.539062 -25.457031 4.96875 -28.21875 C 6.394531 -30.976562 8.367188 -33.046875 10.890625 -34.421875 C 13.421875 -35.804688 16.347656 -36.5 19.671875 -36.5 C 23.128906 -36.5 26.066406 -35.820312 28.484375 -34.46875 C 30.910156 -33.113281 32.640625 -31.050781 33.671875 -28.28125 L 28.484375 -25.109375 L 27.859375 -25.125 C 27.085938 -27 26.039062 -28.34375 24.71875 -29.15625 C 23.394531 -29.96875 21.710938 -30.375 19.671875 -30.375 C 16.679688 -30.375 14.347656 -29.382812 12.671875 -27.40625 C 11.003906 -25.425781 10.171875 -22.285156 10.171875 -17.984375 C 10.171875 -13.703125 11.003906 -10.570312 12.671875 -8.59375 C 14.347656 -6.625 16.679688 -5.640625 19.671875 -5.640625 C 24.347656 -5.640625 27.207031 -7.910156 28.25 -12.453125 L 28.875 -12.453125 L 34.109375 -9.71875 C 33.128906 -6.3125 31.445312 -3.753906 29.0625 -2.046875 C 26.6875 -0.335938 23.554688 0.515625 19.671875 0.515625 Z M 19.671875 0.515625 "/></g></g></g><g clip-path="url(#93597d77f4)"><g clip-path="url(#f17e2a6104)"><g clip-path="url(#af59291859)"><path fill="#2b7ebd" d="M 737.390625 329.21875 C 737.066406 329.980469 737.417969 330.859375 738.179688 331.183594 C 755.796875 338.71875 770.234375 353.140625 777.792969 370.746094 C 785.355469 388.351562 785.867188 408.753906 779.195312 426.714844 C 778.90625 427.492188 779.300781 428.351562 780.078125 428.640625 C 780.851562 428.925781 781.714844 428.53125 782.003906 427.757812 C 783.625 423.386719 784.835938 418.882812 785.644531 414.304688 C 788.285156 399.320312 786.566406 383.589844 780.546875 369.566406 C 772.6875 351.257812 757.671875 336.265625 739.355469 328.433594 C 738.59375 328.105469 737.714844 328.460938 737.390625 329.21875 Z M 737.390625 329.21875 " fill-opacity="1" fill-rule="nonzero"/></g></g></g><g clip-path="url(#a32d76c40b)"><g clip-path="url(#bd2f3ac45e)"><g clip-path="url(#c2f8c1f6f2)"><path fill="#2b7ebd" d="M 735.960938 330.121094 C 735.636719 330.878906 735.988281 331.761719 736.75 332.085938 C 754.367188 339.621094 768.804688 354.039062 776.367188 371.644531 C 783.925781 389.253906 784.4375 409.652344 777.765625 427.617188 C 777.476562 428.390625 777.875 429.253906 778.648438 429.539062 C 779.421875 429.828125 780.285156 429.433594 780.574219 428.65625 C 782.195312 424.289062 783.410156 419.785156 784.214844 415.207031 C 786.859375 400.21875 785.136719 384.488281 779.117188 370.464844 C 771.257812 352.160156 756.242188 337.167969 737.925781 329.332031 C 737.167969 329.007812 736.285156 329.359375 735.960938 330.121094 Z M 735.960938 330.121094 " fill-opacity="1" fill-rule="nonzero"/></g></g></g><g clip-path="url(#b4f78cb3b3)"><g clip-path="url(#d914804ef0)"><g clip-path="url(#2d2c4eb378)"><path fill="#edd956" d="M 414.136719 505.359375 C 413.957031 505.78125 414.148438 506.265625 414.570312 506.445312 C 424.3125 510.613281 432.296875 518.585938 436.480469 528.324219 C 440.660156 538.058594 440.941406 549.339844 437.253906 559.273438 C 437.09375 559.703125 437.3125 560.179688 437.742188 560.339844 C 438.167969 560.5 438.644531 560.28125 438.804688 559.851562 C 439.703125 557.433594 440.375 554.945312 440.820312 552.414062 C 442.28125 544.125 441.328125 535.425781 438 527.671875 C 433.652344 517.546875 425.351562 509.257812 415.222656 504.921875 C 414.800781 504.742188 414.316406 504.9375 414.136719 505.359375 Z M 414.136719 505.359375 " fill-opacity="1" fill-rule="nonzero"/></g></g></g><g clip-path="url(#c84b9ffcc5)"><g clip-path="url(#e85100bcd4)"><g clip-path="url(#769c22ca21)"><path fill="#edd956" d="M 413.234375 506.257812 C 413.054688 506.679688 413.25 507.167969 413.671875 507.347656 C 423.414062 511.511719 431.398438 519.488281 435.578125 529.222656 C 439.757812 538.960938 440.042969 550.242188 436.351562 560.175781 C 436.195312 560.605469 436.414062 561.082031 436.839844 561.238281 C 437.269531 561.398438 437.746094 561.179688 437.90625 560.75 C 438.800781 558.335938 439.472656 555.84375 439.917969 553.3125 C 441.378906 545.023438 440.429688 536.324219 437.101562 528.570312 C 432.753906 518.445312 424.449219 510.15625 414.320312 505.824219 C 413.902344 505.644531 413.414062 505.839844 413.234375 506.257812 Z M 413.234375 506.257812 " fill-opacity="1" fill-rule="nonzero"/></g></g></g><g clip-path="url(#1b7605d321)"><g clip-path="url(#4c60977217)"><g clip-path="url(#5999656096)"><path fill="#edd956" d="M 412.335938 506.257812 C 412.15625 506.679688 412.351562 507.167969 412.769531 507.347656 C 422.511719 511.511719 430.496094 519.488281 434.679688 529.222656 C 438.859375 538.960938 439.140625 550.242188 435.453125 560.175781 C 435.292969 560.605469 435.511719 561.082031 435.941406 561.238281 C 436.371094 561.398438 436.847656 561.179688 437.003906 560.75 C 437.902344 558.335938 438.574219 555.84375 439.019531 553.3125 C 440.480469 545.023438 439.53125 536.324219 436.199219 528.570312 C 431.851562 518.445312 423.550781 510.15625 413.421875 505.824219 C 413 505.644531 412.515625 505.839844 412.335938 506.257812 Z M 412.335938 506.257812 " fill-opacity="1" fill-rule="nonzero"/></g></g></g><g clip-path="url(#8661af8a58)"><g clip-path="url(#08cd6d8eca)"><g clip-path="url(#d930b47437)"><path fill="#edd956" d="M 411.433594 506.257812 C 411.253906 506.679688 411.449219 507.167969 411.871094 507.347656 C 421.613281 511.511719 429.597656 519.488281 433.777344 529.222656 C 437.957031 538.960938 438.242188 550.242188 434.550781 560.175781 C 434.394531 560.605469 434.613281 561.082031 435.039062 561.238281 C 435.46875 561.398438 435.945312 561.179688 436.105469 560.75 C 437 558.335938 437.671875 555.84375 438.117188 553.3125 C 439.582031 545.023438 438.628906 536.324219 435.300781 528.570312 C 430.953125 518.445312 422.652344 510.15625 412.519531 505.824219 C 412.101562 505.644531 411.613281 505.839844 411.433594 506.257812 Z M 411.433594 506.257812 " fill-opacity="1" fill-rule="nonzero"/></g></g></g><g clip-path="url(#032ce898a8)"><g clip-path="url(#45b9c1e88c)"><g clip-path="url(#1139c6b093)"><path fill="#edd956" d="M 412.875 503.609375 C 412.675781 504.066406 412.890625 504.597656 413.347656 504.796875 C 423.996094 509.347656 432.71875 518.0625 437.289062 528.699219 C 441.855469 539.339844 442.164062 551.664062 438.132812 562.519531 C 437.960938 562.988281 438.199219 563.507812 438.667969 563.683594 C 439.136719 563.855469 439.65625 563.617188 439.832031 563.148438 C 440.8125 560.507812 441.542969 557.785156 442.03125 555.019531 C 443.628906 545.964844 442.589844 536.460938 438.949219 527.984375 C 434.203125 516.925781 425.128906 507.867188 414.0625 503.132812 C 413.601562 502.933594 413.070312 503.148438 412.875 503.609375 Z M 412.875 503.609375 " fill-opacity="1" fill-rule="nonzero"/></g></g></g><g clip-path="url(#7cd69c606f)"><g clip-path="url(#1abc1adabe)"><g clip-path="url(#a8e95006e1)"><path fill="#edd956" d="M 412.371094 501.425781 C 412.164062 501.914062 412.390625 502.476562 412.878906 502.6875 C 424.1875 507.523438 433.457031 516.777344 438.308594 528.082031 C 443.160156 539.382812 443.488281 552.476562 439.207031 564.007812 C 439.023438 564.503906 439.277344 565.058594 439.773438 565.242188 C 440.269531 565.425781 440.824219 565.171875 441.007812 564.675781 C 442.050781 561.871094 442.828125 558.980469 443.347656 556.039062 C 445.042969 546.421875 443.9375 536.324219 440.074219 527.320312 C 435.027344 515.570312 425.390625 505.949219 413.632812 500.917969 C 413.144531 500.710938 412.582031 500.9375 412.371094 501.425781 Z M 412.371094 501.425781 " fill-opacity="1" fill-rule="nonzero"/></g></g></g><g clip-path="url(#b668db78c1)"><g clip-path="url(#931fab4997)"><g clip-path="url(#8eabdbb431)"><path fill="#2b7ebd" d="M 734.4375 324.488281 C 734.085938 325.308594 734.46875 326.257812 735.289062 326.609375 C 754.328125 334.753906 769.929688 350.335938 778.101562 369.359375 C 786.269531 388.386719 786.820312 410.429688 779.613281 429.84375 C 779.300781 430.679688 779.730469 431.609375 780.566406 431.921875 C 781.40625 432.230469 782.335938 431.804688 782.648438 430.96875 C 784.398438 426.246094 785.710938 421.378906 786.582031 416.433594 C 789.4375 400.238281 787.578125 383.238281 781.074219 368.082031 C 772.578125 348.300781 756.355469 332.101562 736.5625 323.636719 C 735.742188 323.285156 734.789062 323.664062 734.4375 324.488281 Z M 734.4375 324.488281 " fill-opacity="1" fill-rule="nonzero"/></g></g></g><g clip-path="url(#52a05ca31f)"><g clip-path="url(#3f6517b833)"><g clip-path="url(#c0a905fc47)"><path fill="#2b7ebd" d="M 733.738281 321.675781 C 733.378906 322.519531 733.769531 323.496094 734.609375 323.855469 C 754.132812 332.203125 770.136719 348.183594 778.511719 367.695312 C 786.890625 387.207031 787.457031 409.8125 780.0625 429.71875 C 779.746094 430.578125 780.183594 431.53125 781.042969 431.851562 C 781.902344 432.167969 782.855469 431.730469 783.175781 430.871094 C 784.972656 426.03125 786.316406 421.039062 787.210938 415.964844 C 790.140625 399.359375 788.234375 381.925781 781.5625 366.386719 C 772.851562 346.101562 756.214844 329.484375 735.914062 320.804688 C 735.074219 320.445312 734.097656 320.835938 733.738281 321.675781 Z M 733.738281 321.675781 " fill-opacity="1" fill-rule="nonzero"/></g></g></g><g clip-path="url(#bc5a09833e)"><g clip-path="url(#8adb164eab)"><g clip-path="url(#3964f64aa3)"><path fill="#2b7ebd" d="M 737.171875 321.667969 C 736.796875 322.503906 737.171875 323.484375 738.007812 323.859375 C 757.371094 332.535156 773.082031 348.777344 781.117188 368.417969 C 789.152344 388.054688 789.328125 410.652344 781.601562 430.414062 C 781.269531 431.265625 781.691406 432.226562 782.542969 432.5625 C 783.394531 432.894531 784.355469 432.472656 784.691406 431.621094 C 786.570312 426.8125 788 421.847656 788.980469 416.796875 C 792.191406 400.253906 790.585938 382.800781 784.1875 367.160156 C 775.832031 346.742188 759.496094 329.855469 739.363281 320.832031 C 738.527344 320.457031 737.546875 320.832031 737.171875 321.667969 Z M 737.171875 321.667969 " fill-opacity="1" fill-rule="nonzero"/></g></g></g></svg>