<svg xmlns="http://www.w3.org/2000/svg" xmlns:xlink="http://www.w3.org/1999/xlink" width="1920" zoomAndPan="magnify" viewBox="0 0 1440 809.999993" height="1080" preserveAspectRatio="xMidYMid meet" version="1.0"><defs><g/><clipPath id="faec867a22"><path d="M 98.300781 259.707031 L 437.300781 259.707031 L 437.300781 598.707031 L 98.300781 598.707031 Z M 98.300781 259.707031 " clip-rule="nonzero"/></clipPath><clipPath id="31231148ac"><path d="M 267.964844 259.707031 C 174.261719 259.707031 98.300781 335.667969 98.300781 429.371094 C 98.300781 523.074219 174.261719 599.035156 267.964844 599.035156 C 361.667969 599.035156 437.628906 523.074219 437.628906 429.371094 C 437.628906 335.667969 361.667969 259.707031 267.964844 259.707031 Z M 267.964844 259.707031 " clip-rule="nonzero"/></clipPath><clipPath id="597f0e7f0d"><path d="M 816.421875 134.1875 L 1406.671875 134.1875 L 1406.671875 724.4375 L 816.421875 724.4375 Z M 816.421875 134.1875 " clip-rule="nonzero"/></clipPath><clipPath id="eabcd1b6b3"><path d="M 1111.605469 134.1875 C 948.582031 134.1875 816.421875 266.347656 816.421875 429.371094 C 816.421875 592.398438 948.582031 724.554688 1111.605469 724.554688 C 1274.632812 724.554688 1406.789062 592.398438 1406.789062 429.371094 C 1406.789062 266.347656 1274.632812 134.1875 1111.605469 134.1875 Z M 1111.605469 134.1875 " clip-rule="nonzero"/></clipPath><clipPath id="c2afbe9331"><path d="M 261 387 L 305 387 L 305 430 L 261 430 Z M 261 387 " clip-rule="nonzero"/></clipPath><clipPath id="64f4421fd3"><path d="M 261.988281 392.355469 L 299.914062 387.382812 L 304.789062 424.566406 L 266.863281 429.539062 Z M 261.988281 392.355469 " clip-rule="nonzero"/></clipPath><clipPath id="656626f927"><path d="M 261.992188 392.355469 L 300.203125 387.347656 L 305.054688 424.355469 L 266.84375 429.363281 Z M 261.992188 392.355469 " clip-rule="nonzero"/></clipPath><clipPath id="29839d7a0a"><path d="M 245.304688 406.710938 L 290.632812 406.710938 L 290.632812 452.035156 L 245.304688 452.035156 Z M 245.304688 406.710938 " clip-rule="nonzero"/></clipPath><clipPath id="c6de3fa55a"><path d="M 267.96875 406.710938 C 255.453125 406.710938 245.304688 416.855469 245.304688 429.375 C 245.304688 441.890625 255.453125 452.035156 267.96875 452.035156 C 280.488281 452.035156 290.632812 441.890625 290.632812 429.375 C 290.632812 416.855469 280.488281 406.710938 267.96875 406.710938 Z M 267.96875 406.710938 " clip-rule="nonzero"/></clipPath><clipPath id="5398fc0469"><path d="M 245.304688 406.710938 L 290.304688 406.710938 L 290.304688 451.710938 L 245.304688 451.710938 Z M 245.304688 406.710938 " clip-rule="nonzero"/></clipPath><clipPath id="ced7fb9a9a"><path d="M 267.964844 406.710938 C 255.449219 406.710938 245.304688 416.855469 245.304688 429.367188 C 245.304688 441.882812 255.449219 452.027344 267.964844 452.027344 C 280.476562 452.027344 290.621094 441.882812 290.621094 429.367188 C 290.621094 416.855469 280.476562 406.710938 267.964844 406.710938 Z M 267.964844 406.710938 " clip-rule="nonzero"/></clipPath><clipPath id="bece306aec"><path d="M 222.640625 237.042969 L 267.96875 237.042969 L 267.96875 282.371094 L 222.640625 282.371094 Z M 222.640625 237.042969 " clip-rule="nonzero"/></clipPath><clipPath id="83263509c0"><path d="M 245.304688 237.042969 C 232.789062 237.042969 222.640625 247.1875 222.640625 259.707031 C 222.640625 272.222656 232.789062 282.371094 245.304688 282.371094 C 257.824219 282.371094 267.96875 272.222656 267.96875 259.707031 C 267.96875 247.1875 257.824219 237.042969 245.304688 237.042969 Z M 245.304688 237.042969 " clip-rule="nonzero"/></clipPath><clipPath id="965a68c48e"><path d="M 222.640625 237.042969 L 267.640625 237.042969 L 267.640625 282.042969 L 222.640625 282.042969 Z M 222.640625 237.042969 " clip-rule="nonzero"/></clipPath><clipPath id="c8cebb2d55"><path d="M 245.300781 237.042969 C 232.785156 237.042969 222.640625 247.1875 222.640625 259.699219 C 222.640625 272.214844 232.785156 282.359375 245.300781 282.359375 C 257.8125 282.359375 267.957031 272.214844 267.957031 259.699219 C 267.957031 247.1875 257.8125 237.042969 245.300781 237.042969 Z M 245.300781 237.042969 " clip-rule="nonzero"/></clipPath><clipPath id="a4479234f9"><path d="M 1087.902344 406.710938 L 1133.230469 406.710938 L 1133.230469 452.035156 L 1087.902344 452.035156 Z M 1087.902344 406.710938 " clip-rule="nonzero"/></clipPath><clipPath id="e27777c863"><path d="M 1110.566406 406.710938 C 1098.050781 406.710938 1087.902344 416.855469 1087.902344 429.375 C 1087.902344 441.890625 1098.050781 452.035156 1110.566406 452.035156 C 1123.082031 452.035156 1133.230469 441.890625 1133.230469 429.375 C 1133.230469 416.855469 1123.082031 406.710938 1110.566406 406.710938 Z M 1110.566406 406.710938 " clip-rule="nonzero"/></clipPath><clipPath id="b249f6b2c7"><path d="M 1087.902344 406.710938 L 1132.902344 406.710938 L 1132.902344 451.710938 L 1087.902344 451.710938 Z M 1087.902344 406.710938 " clip-rule="nonzero"/></clipPath><clipPath id="3e2ee8f533"><path d="M 1110.5625 406.710938 C 1098.046875 406.710938 1087.902344 416.855469 1087.902344 429.367188 C 1087.902344 441.882812 1098.046875 452.027344 1110.5625 452.027344 C 1123.074219 452.027344 1133.21875 441.882812 1133.21875 429.367188 C 1133.21875 416.855469 1123.074219 406.710938 1110.5625 406.710938 Z M 1110.5625 406.710938 " clip-rule="nonzero"/></clipPath><clipPath id="8baeba2204"><path d="M 1042.574219 111.523438 L 1087.902344 111.523438 L 1087.902344 156.851562 L 1042.574219 156.851562 Z M 1042.574219 111.523438 " clip-rule="nonzero"/></clipPath><clipPath id="f4363aff4a"><path d="M 1065.238281 111.523438 C 1052.722656 111.523438 1042.574219 121.671875 1042.574219 134.1875 C 1042.574219 146.707031 1052.722656 156.851562 1065.238281 156.851562 C 1077.753906 156.851562 1087.902344 146.707031 1087.902344 134.1875 C 1087.902344 121.671875 1077.753906 111.523438 1065.238281 111.523438 Z M 1065.238281 111.523438 " clip-rule="nonzero"/></clipPath><clipPath id="1b9f5aa417"><path d="M 1042.574219 111.523438 L 1087.574219 111.523438 L 1087.574219 156.523438 L 1042.574219 156.523438 Z M 1042.574219 111.523438 " clip-rule="nonzero"/></clipPath><clipPath id="2ae2a49590"><path d="M 1065.234375 111.523438 C 1052.71875 111.523438 1042.574219 121.667969 1042.574219 134.183594 C 1042.574219 146.695312 1052.71875 156.839844 1065.234375 156.839844 C 1077.746094 156.839844 1087.890625 146.695312 1087.890625 134.183594 C 1087.890625 121.667969 1077.746094 111.523438 1065.234375 111.523438 Z M 1065.234375 111.523438 " clip-rule="nonzero"/></clipPath><clipPath id="10c28f3101"><path d="M 1057 299 L 1099 299 L 1099 342 L 1057 342 Z M 1057 299 " clip-rule="nonzero"/></clipPath><clipPath id="cdd6e65926"><path d="M 1057.617188 304.550781 L 1093.3125 299.871094 L 1098.1875 337.054688 L 1062.492188 341.734375 Z M 1057.617188 304.550781 " clip-rule="nonzero"/></clipPath><clipPath id="ba7a8bae4b"><path d="M 1057.617188 304.550781 L 1093.601562 299.835938 L 1098.453125 336.84375 L 1062.46875 341.558594 Z M 1057.617188 304.550781 " clip-rule="nonzero"/></clipPath><clipPath id="ff3dadcc3e"><path d="M 1073.28125 282.371094 L 1118.609375 282.371094 L 1118.609375 327.699219 L 1073.28125 327.699219 Z M 1073.28125 282.371094 " clip-rule="nonzero"/></clipPath><clipPath id="00fd30842a"><path d="M 1095.945312 282.371094 C 1083.425781 282.371094 1073.28125 292.515625 1073.28125 305.035156 C 1073.28125 317.550781 1083.425781 327.699219 1095.945312 327.699219 C 1108.460938 327.699219 1118.609375 317.550781 1118.609375 305.035156 C 1118.609375 292.515625 1108.460938 282.371094 1095.945312 282.371094 Z M 1095.945312 282.371094 " clip-rule="nonzero"/></clipPath><clipPath id="27e5776833"><path d="M 1073.28125 282.371094 L 1118.28125 282.371094 L 1118.28125 327.371094 L 1073.28125 327.371094 Z M 1073.28125 282.371094 " clip-rule="nonzero"/></clipPath><clipPath id="3e8d2420cd"><path d="M 1095.9375 282.371094 C 1083.425781 282.371094 1073.28125 292.515625 1073.28125 305.027344 C 1073.28125 317.542969 1083.425781 327.6875 1095.9375 327.6875 C 1108.453125 327.6875 1118.597656 317.542969 1118.597656 305.027344 C 1118.597656 292.515625 1108.453125 282.371094 1095.9375 282.371094 Z M 1095.9375 282.371094 " clip-rule="nonzero"/></clipPath><clipPath id="c198492495"><path d="M 1085 151 L 1146 151 L 1146 411 L 1085 411 Z M 1085 151 " clip-rule="nonzero"/></clipPath><clipPath id="d632c66b77"><path d="M 1166.296875 404.90625 L 1129.339844 411.25 L 1085.0625 153.273438 L 1122.023438 146.929688 Z M 1166.296875 404.90625 " clip-rule="nonzero"/></clipPath><clipPath id="5713b9915b"><path d="M 1166.296875 404.90625 L 1129.339844 411.25 L 1085.0625 153.273438 L 1122.023438 146.929688 Z M 1166.296875 404.90625 " clip-rule="nonzero"/></clipPath><clipPath id="918bc00fa9"><path d="M 1166.296875 404.90625 L 1129.339844 411.25 L 1085.0625 153.273438 L 1122.023438 146.929688 Z M 1166.296875 404.90625 " clip-rule="nonzero"/></clipPath></defs><path fill="#000000" d="M 267.316406 253.679688 L 298.453125 248.914062 L 299.246094 254.105469 L 268.109375 258.871094 M 303.640625 248.121094 L 334.777344 243.355469 L 335.574219 248.542969 L 304.4375 253.308594 M 339.96875 242.558594 L 371.105469 237.792969 L 371.898438 242.980469 L 340.761719 247.75 M 376.296875 237 L 407.433594 232.230469 L 408.226562 237.421875 L 377.089844 242.1875 M 412.621094 231.4375 L 443.757812 226.671875 L 444.554688 231.859375 L 413.417969 236.625 M 448.949219 225.875 L 480.085938 221.109375 L 480.878906 226.300781 L 449.742188 231.066406 M 485.277344 220.316406 L 516.414062 215.546875 L 517.207031 220.738281 L 486.070312 225.503906 M 521.601562 214.753906 L 552.738281 209.988281 L 553.535156 215.175781 L 522.398438 219.945312 M 557.929688 209.191406 L 589.066406 204.425781 L 589.859375 209.617188 L 558.722656 214.382812 M 594.257812 203.632812 L 625.394531 198.867188 L 626.1875 204.054688 L 595.050781 208.820312 M 630.582031 198.070312 L 661.71875 193.304688 L 662.515625 198.496094 L 631.378906 203.261719 M 666.910156 192.511719 L 698.046875 187.742188 L 698.839844 192.933594 L 667.703125 197.699219 M 703.238281 186.949219 L 734.375 182.183594 L 735.167969 187.371094 L 704.03125 192.140625 M 739.5625 181.386719 L 770.699219 176.621094 L 771.496094 181.8125 L 740.359375 186.578125 M 775.890625 175.828125 L 807.027344 171.0625 L 807.820312 176.25 L 776.683594 181.015625 M 812.21875 170.265625 L 843.355469 165.5 L 844.148438 170.6875 L 813.011719 175.457031 M 848.542969 164.707031 L 879.679688 159.9375 L 880.476562 165.128906 L 849.339844 169.894531 M 884.871094 159.144531 L 916.007812 154.378906 L 916.800781 159.566406 L 885.664062 164.332031 M 921.195312 153.582031 L 952.335938 148.816406 L 953.128906 154.007812 L 921.992188 158.773438 M 957.523438 148.023438 L 988.660156 143.257812 L 989.457031 148.445312 L 958.320312 153.210938 M 993.851562 142.460938 L 1024.988281 137.695312 L 1025.78125 142.882812 L 994.644531 147.652344 M 1030.175781 136.902344 L 1042.4375 135.023438 L 1043.230469 140.214844 L 1030.972656 142.089844 " fill-opacity="1" fill-rule="nonzero"/><path stroke-linecap="butt" transform="matrix(0.75, 0, 0, 0.75, 290.633399, 426.748295)" fill="none" stroke-linejoin="miter" d="M -0.000781735 3.502274 L 1063.025313 3.502274 " stroke="#000000" stroke-width="7" stroke-opacity="1" stroke-miterlimit="4"/><path fill="#000000" d="M 289.96875 423.320312 L 321.101562 418.511719 L 321.902344 423.703125 L 290.773438 428.507812 M 326.289062 417.710938 L 357.421875 412.90625 L 358.222656 418.09375 L 327.089844 422.898438 M 362.609375 412.105469 L 393.742188 407.296875 L 394.542969 412.484375 L 363.410156 417.292969 M 398.929688 406.496094 L 430.058594 401.691406 L 430.863281 406.878906 L 399.730469 411.683594 M 435.25 400.886719 L 466.378906 396.082031 L 467.179688 401.269531 L 436.050781 406.078125 M 471.570312 395.28125 L 502.699219 390.472656 L 503.5 395.664062 L 472.371094 400.46875 M 507.886719 389.671875 L 539.019531 384.867188 L 539.820312 390.054688 L 508.6875 394.863281 M 544.207031 384.066406 L 575.339844 379.257812 L 576.140625 384.445312 L 545.007812 389.253906 M 580.527344 378.457031 L 611.660156 373.652344 L 612.460938 378.839844 L 581.328125 383.644531 M 616.847656 372.851562 L 647.976562 368.042969 L 648.78125 373.230469 L 617.648438 378.039062 M 653.167969 367.242188 L 684.296875 362.433594 L 685.097656 367.625 L 653.96875 372.429688 M 689.488281 361.632812 L 720.617188 356.828125 L 721.417969 362.015625 L 690.289062 366.824219 M 725.804688 356.027344 L 756.9375 351.21875 L 757.738281 356.410156 L 726.605469 361.214844 M 762.125 350.417969 L 793.257812 345.613281 L 794.058594 350.800781 L 762.925781 355.605469 M 798.445312 344.8125 L 829.578125 340.003906 L 830.378906 345.191406 L 799.246094 350 M 834.765625 339.203125 L 865.894531 334.398438 L 866.695312 339.585938 L 835.566406 344.390625 M 871.085938 333.59375 L 902.214844 328.789062 L 903.015625 333.976562 L 871.886719 338.785156 M 907.402344 327.988281 L 938.535156 323.179688 L 939.335938 328.371094 L 908.207031 333.175781 M 943.722656 322.378906 L 974.855469 317.574219 L 975.65625 322.761719 L 944.523438 327.570312 M 980.042969 316.773438 L 1011.175781 311.964844 L 1011.976562 317.152344 L 980.84375 321.960938 M 1016.363281 311.164062 L 1047.496094 306.359375 L 1048.296875 311.546875 L 1017.164062 316.351562 M 1052.683594 305.558594 L 1072.878906 302.4375 L 1073.679688 307.628906 L 1053.484375 310.746094 " fill-opacity="1" fill-rule="nonzero"/><g clip-path="url(#faec867a22)"><g clip-path="url(#31231148ac)"><path stroke-linecap="butt" transform="matrix(0.75, 0, 0, 0.75, 98.302252, 259.705963)" fill="none" stroke-linejoin="miter" d="M 226.216786 0.00142442 C 101.279288 0.00142442 -0.00196057 101.282673 -0.00196057 226.220171 C -0.00196057 351.15767 101.279288 452.438918 226.216786 452.438918 C 351.154285 452.438918 452.435533 351.15767 452.435533 226.220171 C 452.435533 101.282673 351.154285 0.00142442 226.216786 0.00142442 Z M 226.216786 0.00142442 " stroke="#000000" stroke-width="10" stroke-opacity="1" stroke-miterlimit="4"/></g></g><g clip-path="url(#597f0e7f0d)"><g clip-path="url(#eabcd1b6b3)"><path stroke-linecap="butt" transform="matrix(0.75, 0, 0, 0.75, 816.422125, 134.189046)" fill="none" stroke-linejoin="miter" d="M 393.577811 -0.0020614 C 176.213217 -0.0020614 -0.000333532 176.211489 -0.000333532 393.576083 C -0.000333532 610.945886 176.213217 787.154228 393.577811 787.154228 C 610.947614 787.154228 787.155956 610.945886 787.155956 393.576083 C 787.155956 176.211489 610.947614 -0.0020614 393.577811 -0.0020614 Z M 393.577811 -0.0020614 " stroke="#000000" stroke-width="10" stroke-opacity="1" stroke-miterlimit="4"/></g></g><g clip-path="url(#c2afbe9331)"><g clip-path="url(#64f4421fd3)"><g clip-path="url(#656626f927)"><path stroke-linecap="butt" transform="matrix(0.743636, -0.0974925, 0.0974925, 0.743636, 261.99175, 392.356143)" fill="none" stroke-linejoin="miter" d="M 0.000695395 -0.000815069 L 51.384293 0.0014749 L 51.383963 49.767436 L 0.000365381 49.765146 Z M 0.000695395 -0.000815069 " stroke="#000000" stroke-width="8" stroke-opacity="1" stroke-miterlimit="4"/></g></g></g><g clip-path="url(#29839d7a0a)"><g clip-path="url(#c6de3fa55a)"><path fill="#0097b2" d="M 245.304688 406.710938 L 290.632812 406.710938 L 290.632812 452.035156 L 245.304688 452.035156 Z M 245.304688 406.710938 " fill-opacity="1" fill-rule="nonzero"/></g></g><g clip-path="url(#5398fc0469)"><g clip-path="url(#ced7fb9a9a)"><path stroke-linecap="butt" transform="matrix(0.75, 0, 0, 0.75, 245.305775, 406.709472)" fill="none" stroke-linejoin="miter" d="M 30.212094 0.00195461 C 13.524593 0.00195461 -0.00144958 13.527997 -0.00144958 30.210289 C -0.00144958 46.89779 13.524593 60.423833 30.212094 60.423833 C 46.894386 60.423833 60.420428 46.89779 60.420428 30.210289 C 60.420428 13.527997 46.894386 0.00195461 30.212094 0.00195461 Z M 30.212094 0.00195461 " stroke="#000000" stroke-width="10" stroke-opacity="1" stroke-miterlimit="4"/></g></g><g clip-path="url(#bece306aec)"><g clip-path="url(#83263509c0)"><path fill="#0097b2" d="M 222.640625 237.042969 L 267.96875 237.042969 L 267.96875 282.371094 L 222.640625 282.371094 Z M 222.640625 237.042969 " fill-opacity="1" fill-rule="nonzero"/></g></g><g clip-path="url(#965a68c48e)"><g clip-path="url(#c8cebb2d55)"><path stroke-linecap="butt" transform="matrix(0.75, 0, 0, 0.75, 222.641964, 237.042152)" fill="none" stroke-linejoin="miter" d="M 30.211758 0.0010889 C 13.524257 0.0010889 -0.0017851 13.527131 -0.0017851 30.209424 C -0.0017851 46.896925 13.524257 60.422967 30.211758 60.422967 C 46.894051 60.422967 60.420093 46.896925 60.420093 30.209424 C 60.420093 13.527131 46.894051 0.0010889 30.211758 0.0010889 Z M 30.211758 0.0010889 " stroke="#000000" stroke-width="10" stroke-opacity="1" stroke-miterlimit="4"/></g></g><g clip-path="url(#a4479234f9)"><g clip-path="url(#e27777c863)"><path fill="#0097b2" d="M 1087.902344 406.710938 L 1133.230469 406.710938 L 1133.230469 452.035156 L 1087.902344 452.035156 Z M 1087.902344 406.710938 " fill-opacity="1" fill-rule="nonzero"/></g></g><g clip-path="url(#b249f6b2c7)"><g clip-path="url(#3e2ee8f533)"><path stroke-linecap="butt" transform="matrix(0.75, 0, 0, 0.75, 1087.902479, 406.709472)" fill="none" stroke-linejoin="miter" d="M 30.213362 0.00195461 C 13.525861 0.00195461 -0.000180988 13.527997 -0.000180988 30.210289 C -0.000180988 46.89779 13.525861 60.423833 30.213362 60.423833 C 46.895655 60.423833 60.421697 46.89779 60.421697 30.210289 C 60.421697 13.527997 46.895655 0.00195461 30.213362 0.00195461 Z M 30.213362 0.00195461 " stroke="#000000" stroke-width="10" stroke-opacity="1" stroke-miterlimit="4"/></g></g><g clip-path="url(#8baeba2204)"><g clip-path="url(#f4363aff4a)"><path fill="#0097b2" d="M 1042.574219 111.523438 L 1087.902344 111.523438 L 1087.902344 156.851562 L 1042.574219 156.851562 Z M 1042.574219 111.523438 " fill-opacity="1" fill-rule="nonzero"/></g></g><g clip-path="url(#1b9f5aa417)"><g clip-path="url(#2ae2a49590)"><path stroke-linecap="butt" transform="matrix(0.75, 0, 0, 0.75, 1042.574954, 111.52525)" fill="none" stroke-linejoin="miter" d="M 30.212563 -0.00241612 C 13.525062 -0.00241612 -0.000980029 13.523626 -0.000980029 30.211127 C -0.000980029 46.89342 13.525062 60.419462 30.212563 60.419462 C 46.894856 60.419462 60.420898 46.89342 60.420898 30.211127 C 60.420898 13.523626 46.894856 -0.00241612 30.212563 -0.00241612 Z M 30.212563 -0.00241612 " stroke="#000000" stroke-width="10" stroke-opacity="1" stroke-miterlimit="4"/></g></g><g clip-path="url(#10c28f3101)"><g clip-path="url(#cdd6e65926)"><g clip-path="url(#ba7a8bae4b)"><path stroke-linecap="butt" transform="matrix(0.743636, -0.0974925, 0.0974925, 0.743636, 1057.617385, 304.551773)" fill="none" stroke-linejoin="miter" d="M -0.0000892844 -0.00134492 L 48.38917 0.00234787 L 48.38884 49.768308 L -0.000419299 49.764616 Z M -0.0000892844 -0.00134492 " stroke="#000000" stroke-width="8" stroke-opacity="1" stroke-miterlimit="4"/></g></g></g><path stroke-linecap="butt" transform="matrix(-0.123839, -0.739705, 0.739705, -0.123839, 1108.34467, 407.078784)" fill="none" stroke-linejoin="miter" d="M 0.000593665 2.99836 L 342.208317 2.997905 " stroke="#000000" stroke-width="6" stroke-opacity="1" stroke-miterlimit="4"/><g clip-path="url(#ff3dadcc3e)"><g clip-path="url(#00fd30842a)"><path fill="#a6a6a6" d="M 1073.28125 282.371094 L 1118.609375 282.371094 L 1118.609375 327.699219 L 1073.28125 327.699219 Z M 1073.28125 282.371094 " fill-opacity="1" fill-rule="nonzero"/></g></g><g clip-path="url(#27e5776833)"><g clip-path="url(#3e8d2420cd)"><path stroke-linecap="butt" transform="matrix(0.75, 0, 0, 0.75, 1073.280312, 282.369762)" fill="none" stroke-linejoin="miter" d="M 30.209585 0.00177594 C 13.527293 0.00177594 0.00125036 13.527818 0.00125036 30.210111 C 0.00125036 46.897612 13.527293 60.423654 30.209585 60.423654 C 46.897086 60.423654 60.423128 46.897612 60.423128 30.210111 C 60.423128 13.527818 46.897086 0.00177594 30.209585 0.00177594 Z M 30.209585 0.00177594 " stroke="#000000" stroke-width="10" stroke-opacity="1" stroke-miterlimit="4"/></g></g><path stroke-linecap="butt" transform="matrix(-0.0993014, -0.743397, 0.743397, -0.0993014, 262.735159, 407.201568)" fill="none" stroke-linejoin="miter" d="M 0.00183332 2.999563 L 167.786107 3.000989 " stroke="#000000" stroke-width="6" stroke-opacity="1" stroke-miterlimit="4"/><g clip-path="url(#c198492495)"><g clip-path="url(#d632c66b77)"><g clip-path="url(#5713b9915b)"><g clip-path="url(#918bc00fa9)"><path fill="#000000" d="M 1137.070312 277.242188 C 1135.832031 278.675781 1134.65625 280.152344 1133.660156 281.757812 C 1131.414062 285.328125 1129.699219 289.230469 1128.492188 293.316406 C 1127.285156 297.398438 1126.628906 301.597656 1126.359375 305.890625 C 1126.132812 310.125 1126.277344 314.347656 1126.71875 318.46875 C 1127.550781 326.714844 1129.28125 334.644531 1130.679688 342.160156 C 1132.074219 349.671875 1133.269531 356.953125 1134.242188 363.847656 C 1134.722656 367.269531 1135.132812 370.59375 1135.519531 373.769531 C 1135.683594 375.332031 1135.84375 376.898438 1136.050781 378.402344 C 1136.195312 379.863281 1136.339844 381.324219 1136.417969 382.691406 C 1136.578125 385.480469 1136.597656 388.078125 1136.414062 390.390625 C 1136.351562 391.570312 1136.21875 392.65625 1136.085938 393.738281 C 1135.894531 394.78125 1135.804688 395.804688 1135.535156 396.703125 C 1134.6875 400.40625 1133.414062 402.851562 1132.339844 404.3125 C 1132.210938 404.492188 1132.085938 404.675781 1131.949219 404.804688 C 1131.8125 404.933594 1131.683594 405.113281 1131.597656 405.234375 C 1131.375 405.484375 1131.207031 405.726562 1131.027344 405.917969 C 1130.710938 406.238281 1130.523438 406.375 1130.523438 406.375 C 1129.804688 407.136719 1129.269531 407.707031 1129.097656 408.265625 C 1128.929688 408.824219 1129.0625 409.28125 1129.671875 409.441406 C 1130.230469 409.613281 1130.832031 409.71875 1131.433594 409.828125 C 1131.757812 409.878906 1132.035156 409.9375 1132.359375 409.988281 C 1132.679688 409.988281 1132.953125 410.046875 1133.269531 410.046875 C 1133.914062 410.09375 1134.550781 410.089844 1135.226562 410.027344 C 1135.984375 410.109375 1136.601562 410.003906 1137.269531 409.890625 C 1137.628906 409.828125 1138.074219 409.644531 1138.605469 409.34375 C 1139.078125 408.996094 1139.589844 408.589844 1140.128906 408.019531 C 1140.675781 407.5 1141.140625 406.835938 1141.601562 406.121094 C 1141.804688 405.765625 1142.0625 405.402344 1142.214844 405.058594 C 1142.367188 404.714844 1142.5625 404.308594 1142.707031 403.914062 C 1142.707031 403.914062 1142.808594 403.578125 1143.027344 403.007812 C 1143.238281 402.386719 1143.457031 401.5 1143.785156 400.328125 C 1144.339844 398.003906 1144.863281 394.570312 1144.996094 390.40625 C 1145.128906 386.242188 1144.699219 381.269531 1143.933594 375.882812 C 1143.1875 370.59375 1142.269531 364.644531 1141.121094 358.257812 C 1139.972656 351.871094 1138.640625 345.039062 1137.109375 337.976562 C 1135.582031 330.910156 1133.972656 323.699219 1133.195312 316.398438 C 1132.421875 309.101562 1132.570312 301.640625 1134.664062 294.699219 C 1135.65625 291.234375 1137.097656 287.910156 1138.972656 284.933594 C 1140.136719 283.085938 1141.535156 281.359375 1143.023438 279.832031 L 1143.066406 279.769531 C 1143.464844 279.328125 1143.808594 278.847656 1143.976562 278.285156 C 1144.210938 277.503906 1144.285156 276.695312 1144.101562 275.929688 C 1143.96875 275.15625 1143.679688 274.410156 1143.195312 273.75 C 1142.851562 273.277344 1142.359375 272.882812 1141.84375 272.652344 L 1141.785156 272.609375 C 1139.820312 271.671875 1137.980469 270.503906 1136.261719 269.152344 C 1133.503906 266.96875 1131.046875 264.367188 1128.945312 261.382812 C 1124.707031 255.523438 1122.027344 248.550781 1120.328125 241.410156 C 1118.613281 234.21875 1117.726562 226.882812 1116.824219 219.765625 C 1115.910156 212.59375 1114.9375 205.699219 1113.839844 199.304688 C 1112.796875 192.898438 1111.683594 187.039062 1110.617188 181.753906 C 1109.542969 176.414062 1108.300781 171.636719 1106.777344 167.703125 C 1105.3125 163.8125 1103.625 160.757812 1102.328125 158.753906 C 1101.625 157.757812 1101.125 156.992188 1100.71875 156.480469 C 1100.3125 155.964844 1100.113281 155.734375 1100.113281 155.734375 C 1099.847656 155.410156 1099.585938 155.132812 1099.269531 154.816406 C 1098.957031 154.550781 1098.648438 154.285156 1098.335938 154.019531 C 1097.664062 153.5 1097.050781 153.019531 1096.3125 152.722656 C 1095.625 152.417969 1094.996094 152.152344 1094.4375 151.984375 C 1093.835938 151.875 1093.355469 151.851562 1092.996094 151.910156 C 1092.328125 152.027344 1091.65625 152.140625 1091.007812 152.359375 C 1090.355469 152.578125 1089.753906 152.785156 1089.15625 152.996094 C 1088.855469 153.101562 1088.566406 153.257812 1088.316406 153.351562 C 1088.027344 153.507812 1087.734375 153.664062 1087.496094 153.8125 C 1086.964844 154.113281 1086.433594 154.417969 1085.964844 154.765625 C 1085.441406 155.121094 1085.46875 155.59375 1085.816406 156.0625 C 1086.160156 156.535156 1086.859375 156.894531 1087.789062 157.371094 C 1087.789062 157.371094 1088.011719 157.4375 1088.417969 157.636719 C 1088.648438 157.753906 1088.882812 157.875 1089.183594 158.085938 C 1089.355469 158.164062 1089.476562 158.25 1089.65625 158.378906 C 1089.828125 158.453125 1090.007812 158.582031 1090.191406 158.710938 C 1091.6875 159.726562 1093.757812 161.601562 1095.742188 164.820312 C 1096.292969 165.574219 1096.71875 166.511719 1097.246094 167.429688 C 1097.734375 168.40625 1098.21875 169.386719 1098.671875 170.476562 C 1099.574219 172.65625 1100.472656 175.105469 1101.242188 177.734375 C 1101.625 179.046875 1101.976562 180.476562 1102.328125 181.902344 C 1102.6875 183.378906 1103.054688 184.910156 1103.371094 186.445312 C 1104.066406 189.566406 1104.789062 192.839844 1105.472656 196.226562 C 1106.847656 203 1108.199219 210.253906 1109.347656 217.863281 C 1110.535156 225.410156 1111.546875 233.464844 1113.511719 241.519531 C 1114.46875 245.546875 1115.742188 249.578125 1117.367188 253.492188 C 1119.042969 257.398438 1121.074219 261.191406 1123.570312 264.640625 C 1126.019531 268.09375 1128.9375 271.203125 1132.296875 273.8125 C 1133.769531 274.996094 1135.382812 276.046875 1137.015625 276.933594 Z M 1137.070312 277.242188 " fill-opacity="1" fill-rule="nonzero"/></g></g></g></g><g fill="#000000" fill-opacity="1"><g transform="translate(1143.514028, 441.773238)"><g><path d="M 31.75 0 L 24.875 0 L 22.375 -7.625 L 9.703125 -7.625 L 7.21875 0 L 0.5 0 L 11.921875 -33.078125 L 20.328125 -33.078125 Z M 15.734375 -26.1875 L 11.46875 -13.125 L 20.5625 -13.125 L 16.296875 -26.1875 Z M 15.734375 -26.1875 "/></g></g></g><g fill="#000000" fill-opacity="1"><g transform="translate(624.448433, 482.166391)"><g><path d="M 11.671875 0.46875 C 9.972656 0.46875 8.410156 0.269531 6.984375 -0.125 C 5.566406 -0.519531 4.359375 -1.066406 3.359375 -1.765625 C 2.359375 -2.472656 1.613281 -3.28125 1.125 -4.1875 L 4.609375 -7.9375 L 5.09375 -7.9375 C 5.925781 -6.820312 6.90625 -5.984375 8.03125 -5.421875 C 9.164062 -4.867188 10.394531 -4.59375 11.71875 -4.59375 C 12.9375 -4.59375 13.851562 -4.8125 14.46875 -5.25 C 15.09375 -5.6875 15.40625 -6.3125 15.40625 -7.125 C 15.40625 -7.757812 15.179688 -8.289062 14.734375 -8.71875 C 14.296875 -9.15625 13.578125 -9.492188 12.578125 -9.734375 L 9.28125 -10.515625 C 6.800781 -11.109375 4.992188 -12.007812 3.859375 -13.21875 C 2.722656 -14.4375 2.15625 -15.984375 2.15625 -17.859375 C 2.15625 -19.410156 2.550781 -20.757812 3.34375 -21.90625 C 4.132812 -23.050781 5.25 -23.925781 6.6875 -24.53125 C 8.125 -25.132812 9.800781 -25.4375 11.71875 -25.4375 C 13.96875 -25.4375 15.832031 -25.109375 17.3125 -24.453125 C 18.789062 -23.804688 19.941406 -22.941406 20.765625 -21.859375 L 17.421875 -18.234375 L 16.96875 -18.234375 C 16.28125 -19.023438 15.5 -19.597656 14.625 -19.953125 C 13.757812 -20.316406 12.789062 -20.5 11.71875 -20.5 C 9.25 -20.5 8.015625 -19.726562 8.015625 -18.1875 C 8.015625 -17.539062 8.242188 -17.015625 8.703125 -16.609375 C 9.160156 -16.203125 9.972656 -15.867188 11.140625 -15.609375 L 14.203125 -14.9375 C 16.742188 -14.394531 18.597656 -13.519531 19.765625 -12.3125 C 20.929688 -11.113281 21.515625 -9.503906 21.515625 -7.484375 C 21.515625 -5.898438 21.125 -4.503906 20.34375 -3.296875 C 19.5625 -2.097656 18.429688 -1.171875 16.953125 -0.515625 C 15.472656 0.140625 13.710938 0.46875 11.671875 0.46875 Z M 11.671875 0.46875 "/></g></g></g><g fill="#000000" fill-opacity="1"><g transform="translate(225.088387, 226.778295)"><g><path d="M 10.84375 -14.53125 L 10.84375 -5.46875 L 26.640625 -5.46875 L 26.640625 0 L 4.296875 0 L 4.296875 -33.078125 L 26.265625 -33.078125 L 26.265625 -27.609375 L 10.84375 -27.609375 L 10.84375 -19.875 L 24.328125 -19.875 L 24.328125 -14.53125 Z M 10.84375 -14.53125 "/></g></g></g><g fill="#000000" fill-opacity="1"><g transform="translate(213.838618, 357.405091)"><g><path d="M 3.59375 0 L 3.59375 -24.953125 L 9.6875 -24.953125 L 9.6875 -21.25 L 10.15625 -21.15625 C 10.757812 -22.539062 11.550781 -23.554688 12.53125 -24.203125 C 13.507812 -24.859375 14.703125 -25.1875 16.109375 -25.1875 C 17.523438 -25.1875 18.601562 -24.945312 19.34375 -24.46875 L 18.28125 -19.046875 L 17.8125 -18.96875 C 17.40625 -19.132812 17.007812 -19.253906 16.625 -19.328125 C 16.25 -19.398438 15.789062 -19.4375 15.25 -19.4375 C 13.5 -19.4375 12.160156 -18.820312 11.234375 -17.59375 C 10.316406 -16.363281 9.859375 -14.390625 9.859375 -11.671875 L 9.859375 0 Z M 3.59375 0 "/></g></g></g><g fill="#000000" fill-opacity="1"><g transform="translate(628.374969, 179.217485)"><g><path d="M 10.84375 0 L 4.296875 0 L 4.296875 -33.078125 L 10.84375 -33.078125 Z M 10.84375 0 "/></g></g></g><g fill="#000000" fill-opacity="1"><g transform="translate(1047.541323, 95.690275)"><g><path d="M 16.203125 -33.078125 C 21.578125 -33.078125 25.675781 -31.6875 28.5 -28.90625 C 31.332031 -26.132812 32.75 -22.015625 32.75 -16.546875 C 32.75 -11.078125 31.332031 -6.953125 28.5 -4.171875 C 25.675781 -1.390625 21.578125 0 16.203125 0 L 4.296875 0 L 4.296875 -33.078125 Z M 15.8125 -5.5 C 19.226562 -5.5 21.78125 -6.367188 23.46875 -8.109375 C 25.15625 -9.847656 26 -12.660156 26 -16.546875 C 26 -20.421875 25.15625 -23.226562 23.46875 -24.96875 C 21.78125 -26.707031 19.226562 -27.578125 15.8125 -27.578125 L 10.84375 -27.578125 L 10.84375 -5.5 Z M 15.8125 -5.5 "/></g></g></g><g fill="#000000" fill-opacity="1"><g transform="translate(204.969066, 447.778424)"><g><path d="M 4.296875 0 L 4.296875 -33.078125 L 18.421875 -33.078125 C 20.453125 -33.078125 22.171875 -32.753906 23.578125 -32.109375 C 24.992188 -31.472656 26.0625 -30.5625 26.78125 -29.375 C 27.507812 -28.195312 27.875 -26.800781 27.875 -25.1875 C 27.875 -23.71875 27.519531 -22.425781 26.8125 -21.3125 C 26.101562 -20.195312 25.085938 -19.300781 23.765625 -18.625 L 23.765625 -18.140625 C 25.847656 -17.597656 27.453125 -16.609375 28.578125 -15.171875 C 29.710938 -13.742188 30.28125 -11.988281 30.28125 -9.90625 C 30.28125 -6.738281 29.320312 -4.296875 27.40625 -2.578125 C 25.5 -0.859375 22.671875 0 18.921875 0 Z M 17.0625 -19.890625 C 20.113281 -19.890625 21.640625 -21.265625 21.640625 -24.015625 C 21.640625 -25.410156 21.257812 -26.453125 20.5 -27.140625 C 19.75 -27.828125 18.601562 -28.171875 17.0625 -28.171875 L 10.84375 -28.171875 L 10.84375 -19.890625 Z M 18.265625 -5.1875 C 21.867188 -5.1875 23.671875 -6.820312 23.671875 -10.09375 C 23.671875 -13.382812 21.867188 -15.03125 18.265625 -15.03125 L 10.84375 -15.03125 L 10.84375 -5.1875 Z M 18.265625 -5.1875 "/></g></g></g><g fill="#000000" fill-opacity="1"><g transform="translate(1042.657798, 286.452723)"><g><path d="M 17.859375 -2.90625 C 14.867188 -2.34375 12.113281 -2.460938 9.59375 -3.265625 C 7.070312 -4.078125 4.925781 -5.609375 3.15625 -7.859375 C 1.394531 -10.117188 0.171875 -13.078125 -0.515625 -16.734375 C -1.210938 -20.390625 -1.148438 -23.585938 -0.328125 -26.328125 C 0.484375 -29.078125 1.910156 -31.289062 3.953125 -32.96875 C 6.003906 -34.644531 8.523438 -35.765625 11.515625 -36.328125 C 14.640625 -36.921875 17.410156 -36.816406 19.828125 -36.015625 C 22.242188 -35.210938 24.15625 -33.644531 25.5625 -31.3125 L 21.4375 -27.546875 L 20.859375 -27.46875 C 19.847656 -29.03125 18.675781 -30.0625 17.34375 -30.5625 C 16.007812 -31.070312 14.414062 -31.148438 12.5625 -30.796875 C 9.863281 -30.296875 7.925781 -29.003906 6.75 -26.921875 C 5.582031 -24.847656 5.367188 -21.867188 6.109375 -17.984375 C 6.835938 -14.117188 8.125 -11.4375 9.96875 -9.9375 C 11.820312 -8.445312 14.097656 -7.953125 16.796875 -8.453125 C 21.023438 -9.253906 23.222656 -11.800781 23.390625 -16.09375 L 23.9375 -16.1875 L 29.140625 -14.625 C 28.835938 -11.375 27.757812 -8.773438 25.90625 -6.828125 C 24.050781 -4.878906 21.367188 -3.570312 17.859375 -2.90625 Z M 17.859375 -2.90625 "/></g></g></g><g fill="#000000" fill-opacity="1"><g transform="translate(229.446236, 366.132717)"><g><path d="M 0.84375 -1.375 C 0.84375 -2.332031 0.945312 -3.140625 1.15625 -3.796875 C 1.363281 -4.460938 1.707031 -5.066406 2.1875 -5.609375 C 2.664062 -6.148438 3.335938 -6.734375 4.203125 -7.359375 L 6.53125 -9.046875 C 7.164062 -9.492188 7.660156 -9.882812 8.015625 -10.21875 C 8.367188 -10.550781 8.632812 -10.898438 8.8125 -11.265625 C 8.988281 -11.628906 9.078125 -12.046875 9.078125 -12.515625 C 9.078125 -13.222656 8.863281 -13.765625 8.4375 -14.140625 C 8.007812 -14.523438 7.363281 -14.71875 6.5 -14.71875 C 5.675781 -14.71875 4.941406 -14.519531 4.296875 -14.125 C 3.660156 -13.738281 3.132812 -13.207031 2.71875 -12.53125 L 2.484375 -12.46875 L 0.59375 -14.578125 C 1.207031 -15.503906 2.015625 -16.242188 3.015625 -16.796875 C 4.015625 -17.359375 5.222656 -17.640625 6.640625 -17.640625 C 7.941406 -17.640625 9.03125 -17.425781 9.90625 -17 C 10.78125 -16.570312 11.425781 -15.984375 11.84375 -15.234375 C 12.269531 -14.492188 12.484375 -13.644531 12.484375 -12.6875 C 12.484375 -11.863281 12.3125 -11.109375 11.96875 -10.421875 C 11.625 -9.742188 11.144531 -9.113281 10.53125 -8.53125 C 9.925781 -7.957031 9.144531 -7.335938 8.1875 -6.671875 L 6.140625 -5.234375 C 5.515625 -4.785156 5.078125 -4.390625 4.828125 -4.046875 C 4.585938 -3.703125 4.46875 -3.3125 4.46875 -2.875 L 12.328125 -2.875 L 12.328125 0 L 0.84375 0 Z M 0.84375 -1.375 "/></g></g></g><g fill="#000000" fill-opacity="1"><g transform="translate(1167.276873, 295.519928)"><g><path d="M 0.921875 0 L 0.921875 -2.84375 L 5.109375 -2.84375 L 5.109375 -13.671875 L 4.84375 -13.734375 C 4.25 -13.453125 3.660156 -13.226562 3.078125 -13.0625 C 2.503906 -12.894531 1.851562 -12.765625 1.125 -12.671875 L 1.125 -15.609375 C 3.050781 -16.015625 4.609375 -16.609375 5.796875 -17.390625 L 8.515625 -17.390625 L 8.515625 -2.84375 L 12.265625 -2.84375 L 12.265625 0 Z M 0.921875 0 "/></g></g></g><g fill="#000000" fill-opacity="1"><g transform="translate(1150.227066, 287.583348)"><g><path d="M 3.078125 0 L 3.078125 -21.390625 L 8.296875 -21.390625 L 8.296875 -18.203125 L 8.703125 -18.140625 C 9.222656 -19.328125 9.898438 -20.195312 10.734375 -20.75 C 11.578125 -21.300781 12.601562 -21.578125 13.8125 -21.578125 C 15.019531 -21.578125 15.941406 -21.375 16.578125 -20.96875 L 15.671875 -16.328125 L 15.265625 -16.25 C 14.910156 -16.394531 14.570312 -16.5 14.25 -16.5625 C 13.925781 -16.625 13.535156 -16.65625 13.078125 -16.65625 C 11.578125 -16.65625 10.429688 -16.128906 9.640625 -15.078125 C 8.847656 -14.023438 8.453125 -12.332031 8.453125 -10 L 8.453125 0 Z M 3.078125 0 "/></g></g></g><g fill="#000000" fill-opacity="1"><g transform="translate(1061.608126, 390.351828)"><g><path d="M 3.078125 0 L 3.078125 -21.390625 L 8.296875 -21.390625 L 8.296875 -18.203125 L 8.703125 -18.140625 C 9.222656 -19.328125 9.898438 -20.195312 10.734375 -20.75 C 11.578125 -21.300781 12.601562 -21.578125 13.8125 -21.578125 C 15.019531 -21.578125 15.941406 -21.375 16.578125 -20.96875 L 15.671875 -16.328125 L 15.265625 -16.25 C 14.910156 -16.394531 14.570312 -16.5 14.25 -16.5625 C 13.925781 -16.625 13.535156 -16.65625 13.078125 -16.65625 C 11.578125 -16.65625 10.429688 -16.128906 9.640625 -15.078125 C 8.847656 -14.023438 8.453125 -12.332031 8.453125 -10 L 8.453125 0 Z M 3.078125 0 "/></g></g></g><g fill="#000000" fill-opacity="1"><g transform="translate(1076.930588, 399.239354)"><g><path d="M 0.84375 -1.375 C 0.84375 -2.332031 0.945312 -3.140625 1.15625 -3.796875 C 1.363281 -4.460938 1.707031 -5.066406 2.1875 -5.609375 C 2.664062 -6.148438 3.335938 -6.734375 4.203125 -7.359375 L 6.53125 -9.046875 C 7.164062 -9.492188 7.660156 -9.882812 8.015625 -10.21875 C 8.367188 -10.550781 8.632812 -10.898438 8.8125 -11.265625 C 8.988281 -11.628906 9.078125 -12.046875 9.078125 -12.515625 C 9.078125 -13.222656 8.863281 -13.765625 8.4375 -14.140625 C 8.007812 -14.523438 7.363281 -14.71875 6.5 -14.71875 C 5.675781 -14.71875 4.941406 -14.519531 4.296875 -14.125 C 3.660156 -13.738281 3.132812 -13.207031 2.71875 -12.53125 L 2.484375 -12.46875 L 0.59375 -14.578125 C 1.207031 -15.503906 2.015625 -16.242188 3.015625 -16.796875 C 4.015625 -17.359375 5.222656 -17.640625 6.640625 -17.640625 C 7.941406 -17.640625 9.03125 -17.425781 9.90625 -17 C 10.78125 -16.570312 11.425781 -15.984375 11.84375 -15.234375 C 12.269531 -14.492188 12.484375 -13.644531 12.484375 -12.6875 C 12.484375 -11.863281 12.3125 -11.109375 11.96875 -10.421875 C 11.625 -9.742188 11.144531 -9.113281 10.53125 -8.53125 C 9.925781 -7.957031 9.144531 -7.335938 8.1875 -6.671875 L 6.140625 -5.234375 C 5.515625 -4.785156 5.078125 -4.390625 4.828125 -4.046875 C 4.585938 -3.703125 4.46875 -3.3125 4.46875 -2.875 L 12.328125 -2.875 L 12.328125 0 L 0.84375 0 Z M 0.84375 -1.375 "/></g></g></g><g fill="#000000" fill-opacity="1"><g transform="translate(1015.924985, 397.686151)"><g><path d="M 0.921875 0 L 0.921875 -2.84375 L 5.109375 -2.84375 L 5.109375 -13.671875 L 4.84375 -13.734375 C 4.25 -13.453125 3.660156 -13.226562 3.078125 -13.0625 C 2.503906 -12.894531 1.851562 -12.765625 1.125 -12.671875 L 1.125 -15.609375 C 3.050781 -16.015625 4.609375 -16.609375 5.796875 -17.390625 L 8.515625 -17.390625 L 8.515625 -2.84375 L 12.265625 -2.84375 L 12.265625 0 Z M 0.921875 0 "/></g></g></g><g fill="#000000" fill-opacity="1"><g transform="translate(998.875177, 389.749574)"><g><path d="M 3.078125 0 L 3.078125 -21.390625 L 8.296875 -21.390625 L 8.296875 -18.203125 L 8.703125 -18.140625 C 9.222656 -19.328125 9.898438 -20.195312 10.734375 -20.75 C 11.578125 -21.300781 12.601562 -21.578125 13.8125 -21.578125 C 15.019531 -21.578125 15.941406 -21.375 16.578125 -20.96875 L 15.671875 -16.328125 L 15.265625 -16.25 C 14.910156 -16.394531 14.570312 -16.5 14.25 -16.5625 C 13.925781 -16.625 13.535156 -16.65625 13.078125 -16.65625 C 11.578125 -16.65625 10.429688 -16.128906 9.640625 -15.078125 C 8.847656 -14.023438 8.453125 -12.332031 8.453125 -10 L 8.453125 0 Z M 3.078125 0 "/></g></g></g><g fill="#000000" fill-opacity="1"><g transform="translate(1035.075285, 396.642577)"><g><path d="M 15.84375 -13.3125 L 1.96875 -13.3125 L 1.96875 -18.828125 L 15.84375 -18.828125 Z M 15.84375 -13.3125 "/></g></g></g></svg>