<svg xmlns="http://www.w3.org/2000/svg" xmlns:xlink="http://www.w3.org/1999/xlink" width="1920" zoomAndPan="magnify" viewBox="0 0 1440 809.999993" height="1080" preserveAspectRatio="xMidYMid meet" version="1.0"><defs><g/><clipPath id="68b6519845"><path d="M 815 686 L 873 686 L 873 740 L 815 740 Z M 815 686 " clip-rule="nonzero"/></clipPath><clipPath id="380ec3fd5f"><path d="M 833.804688 686.636719 L 872.039062 711.757812 L 853.917969 739.335938 L 815.683594 714.214844 Z M 833.804688 686.636719 " clip-rule="nonzero"/></clipPath><clipPath id="c39bf79177"><path d="M 833.804688 686.636719 L 872.195312 711.859375 L 854.261719 739.15625 L 815.871094 713.933594 Z M 833.804688 686.636719 " clip-rule="nonzero"/></clipPath><clipPath id="bac5f965e6"><path d="M 58.503906 146.664062 L 417.003906 146.664062 L 417.003906 505.164062 L 58.503906 505.164062 Z M 58.503906 146.664062 " clip-rule="nonzero"/></clipPath><clipPath id="d4b29779fa"><path d="M 237.835938 146.664062 C 138.792969 146.664062 58.503906 226.957031 58.503906 325.996094 C 58.503906 425.039062 138.792969 505.328125 237.835938 505.328125 C 336.878906 505.328125 417.167969 425.039062 417.167969 325.996094 C 417.167969 226.957031 336.878906 146.664062 237.835938 146.664062 Z M 237.835938 146.664062 " clip-rule="nonzero"/></clipPath><clipPath id="c5c250998b"><path d="M 799.027344 21.792969 L 1407.277344 21.792969 L 1407.277344 630.042969 L 799.027344 630.042969 Z M 799.027344 21.792969 " clip-rule="nonzero"/></clipPath><clipPath id="058767141c"><path d="M 1103.226562 21.792969 C 935.222656 21.792969 799.027344 157.988281 799.027344 325.996094 C 799.027344 494 935.222656 630.195312 1103.226562 630.195312 C 1271.234375 630.195312 1407.429688 494 1407.429688 325.996094 C 1407.429688 157.988281 1271.234375 21.792969 1103.226562 21.792969 Z M 1103.226562 21.792969 " clip-rule="nonzero"/></clipPath><clipPath id="d34d552a81"><path d="M 234 299 L 291 299 L 291 352 L 234 352 Z M 234 299 " clip-rule="nonzero"/></clipPath><clipPath id="9ccc10de3e"><path d="M 252.683594 299.203125 L 290.917969 324.328125 L 272.796875 351.90625 L 234.5625 326.785156 Z M 252.683594 299.203125 " clip-rule="nonzero"/></clipPath><clipPath id="83a3313d40"><path d="M 252.683594 299.203125 L 291.074219 324.429688 L 273.140625 351.726562 L 234.75 326.5 Z M 252.683594 299.203125 " clip-rule="nonzero"/></clipPath><clipPath id="b43cd8830a"><path d="M 212.886719 300.875 L 262.785156 300.875 L 262.785156 350.777344 L 212.886719 350.777344 Z M 212.886719 300.875 " clip-rule="nonzero"/></clipPath><clipPath id="8133b0bfff"><path d="M 237.835938 300.875 C 224.054688 300.875 212.886719 312.046875 212.886719 325.824219 C 212.886719 339.605469 224.054688 350.777344 237.835938 350.777344 C 251.617188 350.777344 262.785156 339.605469 262.785156 325.824219 C 262.785156 312.046875 251.617188 300.875 237.835938 300.875 Z M 237.835938 300.875 " clip-rule="nonzero"/></clipPath><clipPath id="6d4c09e883"><path d="M 212.886719 300.875 L 262.785156 300.875 L 262.785156 350.773438 L 212.886719 350.773438 Z M 212.886719 300.875 " clip-rule="nonzero"/></clipPath><clipPath id="ccfc73b4b6"><path d="M 237.835938 300.875 C 224.054688 300.875 212.886719 312.046875 212.886719 325.824219 C 212.886719 339.605469 224.054688 350.773438 237.835938 350.773438 C 251.613281 350.773438 262.785156 339.605469 262.785156 325.824219 C 262.785156 312.046875 251.613281 300.875 237.835938 300.875 Z M 237.835938 300.875 " clip-rule="nonzero"/></clipPath><clipPath id="e9d8089c65"><path d="M 307.597656 146.664062 L 357.5 146.664062 L 357.5 196.566406 L 307.597656 196.566406 Z M 307.597656 146.664062 " clip-rule="nonzero"/></clipPath><clipPath id="612f74e68d"><path d="M 332.546875 146.664062 C 318.769531 146.664062 307.597656 157.835938 307.597656 171.617188 C 307.597656 185.394531 318.769531 196.566406 332.546875 196.566406 C 346.328125 196.566406 357.5 185.394531 357.5 171.617188 C 357.5 157.835938 346.328125 146.664062 332.546875 146.664062 Z M 332.546875 146.664062 " clip-rule="nonzero"/></clipPath><clipPath id="074505dbd5"><path d="M 307.597656 146.664062 L 357.496094 146.664062 L 357.496094 196.5625 L 307.597656 196.5625 Z M 307.597656 146.664062 " clip-rule="nonzero"/></clipPath><clipPath id="5cc21b073b"><path d="M 332.546875 146.664062 C 318.769531 146.664062 307.597656 157.835938 307.597656 171.613281 C 307.597656 185.394531 318.769531 196.5625 332.546875 196.5625 C 346.324219 196.5625 357.496094 185.394531 357.496094 171.613281 C 357.496094 157.835938 346.324219 146.664062 332.546875 146.664062 Z M 332.546875 146.664062 " clip-rule="nonzero"/></clipPath><clipPath id="f3ec100299"><path d="M 1078.28125 304.007812 L 1128.183594 304.007812 L 1128.183594 353.910156 L 1078.28125 353.910156 Z M 1078.28125 304.007812 " clip-rule="nonzero"/></clipPath><clipPath id="26beb27452"><path d="M 1103.230469 304.007812 C 1089.453125 304.007812 1078.28125 315.179688 1078.28125 328.957031 C 1078.28125 342.738281 1089.453125 353.910156 1103.230469 353.910156 C 1117.011719 353.910156 1128.183594 342.738281 1128.183594 328.957031 C 1128.183594 315.179688 1117.011719 304.007812 1103.230469 304.007812 Z M 1103.230469 304.007812 " clip-rule="nonzero"/></clipPath><clipPath id="ba9f8f02ef"><path d="M 1078.28125 304.007812 L 1128.179688 304.007812 L 1128.179688 353.90625 L 1078.28125 353.90625 Z M 1078.28125 304.007812 " clip-rule="nonzero"/></clipPath><clipPath id="f2df9b8426"><path d="M 1103.230469 304.007812 C 1089.453125 304.007812 1078.28125 315.179688 1078.28125 328.957031 C 1078.28125 342.738281 1089.453125 353.90625 1103.230469 353.90625 C 1117.007812 353.90625 1128.179688 342.738281 1128.179688 328.957031 C 1128.179688 315.179688 1117.007812 304.007812 1103.230469 304.007812 Z M 1103.230469 304.007812 " clip-rule="nonzero"/></clipPath><clipPath id="ccfc4716ca"><path d="M 917.058594 559.085938 L 966.960938 559.085938 L 966.960938 608.984375 L 917.058594 608.984375 Z M 917.058594 559.085938 " clip-rule="nonzero"/></clipPath><clipPath id="ed53e78b68"><path d="M 942.007812 559.085938 C 928.230469 559.085938 917.058594 570.253906 917.058594 584.035156 C 917.058594 597.816406 928.230469 608.984375 942.007812 608.984375 C 955.789062 608.984375 966.960938 597.816406 966.960938 584.035156 C 966.960938 570.253906 955.789062 559.085938 942.007812 559.085938 Z M 942.007812 559.085938 " clip-rule="nonzero"/></clipPath><clipPath id="29fa3d9bfd"><path d="M 917.058594 559.085938 L 966.957031 559.085938 L 966.957031 608.984375 L 917.058594 608.984375 Z M 917.058594 559.085938 " clip-rule="nonzero"/></clipPath><clipPath id="d96a1f270c"><path d="M 942.007812 559.085938 C 928.230469 559.085938 917.058594 570.253906 917.058594 584.035156 C 917.058594 597.8125 928.230469 608.984375 942.007812 608.984375 C 955.785156 608.984375 966.957031 597.8125 966.957031 584.035156 C 966.957031 570.253906 955.785156 559.085938 942.007812 559.085938 Z M 942.007812 559.085938 " clip-rule="nonzero"/></clipPath><clipPath id="77aafef61c"><path d="M 833.753906 699.226562 L 883.652344 699.226562 L 883.652344 749.128906 L 833.753906 749.128906 Z M 833.753906 699.226562 " clip-rule="nonzero"/></clipPath><clipPath id="03a155ac65"><path d="M 858.703125 699.226562 C 844.921875 699.226562 833.753906 710.398438 833.753906 724.179688 C 833.753906 737.957031 844.921875 749.128906 858.703125 749.128906 C 872.484375 749.128906 883.652344 737.957031 883.652344 724.179688 C 883.652344 710.398438 872.484375 699.226562 858.703125 699.226562 Z M 858.703125 699.226562 " clip-rule="nonzero"/></clipPath><clipPath id="1d8ae3b4c8"><path d="M 833.753906 699.226562 L 883.652344 699.226562 L 883.652344 749.125 L 833.753906 749.125 Z M 833.753906 699.226562 " clip-rule="nonzero"/></clipPath><clipPath id="ee4f6bffde"><path d="M 858.703125 699.226562 C 844.921875 699.226562 833.753906 710.398438 833.753906 724.175781 C 833.753906 737.957031 844.921875 749.125 858.703125 749.125 C 872.480469 749.125 883.652344 737.957031 883.652344 724.175781 C 883.652344 710.398438 872.480469 699.226562 858.703125 699.226562 Z M 858.703125 699.226562 " clip-rule="nonzero"/></clipPath></defs><path fill="#000000" d="M 354.683594 183.425781 L 380.773438 201.082031 L 377.832031 205.429688 L 351.742188 187.777344 M 385.121094 204.023438 L 411.210938 221.675781 L 408.265625 226.023438 L 382.179688 208.371094 M 415.558594 224.621094 L 441.644531 242.273438 L 438.703125 246.621094 L 412.613281 228.96875 M 445.992188 245.214844 L 472.082031 262.871094 L 469.140625 267.21875 L 443.050781 249.5625 M 476.429688 265.8125 L 502.519531 283.464844 L 499.574219 287.8125 L 473.488281 270.160156 M 506.867188 286.40625 L 532.953125 304.0625 L 530.011719 308.410156 L 503.925781 290.753906 M 537.300781 307.003906 L 563.390625 324.65625 L 560.449219 329.003906 L 534.359375 311.351562 M 567.738281 327.601562 L 593.828125 345.253906 L 590.882812 349.601562 L 564.796875 331.949219 M 598.175781 348.195312 L 624.261719 365.851562 L 621.320312 370.199219 L 595.234375 352.542969 M 628.609375 368.792969 L 654.699219 386.445312 L 651.757812 390.792969 L 625.667969 373.140625 M 659.046875 389.386719 L 685.136719 407.042969 L 682.191406 411.390625 L 656.105469 393.734375 M 689.484375 409.984375 L 715.570312 427.636719 L 712.628906 431.984375 L 686.542969 414.332031 M 719.917969 430.582031 L 746.007812 448.234375 L 743.066406 452.582031 L 716.976562 434.929688 M 750.355469 451.175781 L 776.445312 468.828125 L 773.503906 473.179688 L 747.414062 455.523438 M 780.792969 471.773438 L 806.878906 489.425781 L 803.9375 493.773438 L 777.851562 476.121094 M 811.230469 492.367188 L 837.316406 510.023438 L 834.375 514.371094 L 808.285156 496.714844 M 841.664062 512.964844 L 867.753906 530.617188 L 864.8125 534.964844 L 838.722656 517.3125 M 872.101562 533.558594 L 898.1875 551.214844 L 895.246094 555.5625 L 869.160156 537.910156 M 902.539062 554.15625 L 922.8125 567.878906 L 919.871094 572.226562 L 899.59375 558.503906 " fill-opacity="1" fill-rule="nonzero"/><path stroke-linecap="butt" transform="matrix(0.749995, 0.00271511, -0.00271511, 0.749995, 262.795863, 323.29137)" fill="none" stroke-linejoin="miter" d="M -0.0015968 3.50216 L 1087.333701 3.498137 " stroke="#000000" stroke-width="7" stroke-opacity="1" stroke-miterlimit="4"/><g clip-path="url(#68b6519845)"><g clip-path="url(#380ec3fd5f)"><g clip-path="url(#c39bf79177)"><path stroke-linecap="butt" transform="matrix(0.626812, 0.411833, -0.411833, 0.626812, 833.804028, 686.636289)" fill="none" stroke-linejoin="miter" d="M 0.0010489 -0.000004275 L 61.247697 -0.001225 L 61.249082 43.546622 L 0.00243418 43.547842 Z M 0.0010489 -0.000004275 " stroke="#000000" stroke-width="8" stroke-opacity="1" stroke-miterlimit="4"/></g></g></g><path fill="#000000" d="M 260.039062 337.511719 L 286.226562 355.019531 L 283.308594 359.382812 L 257.121094 341.878906 M 290.589844 357.9375 L 316.78125 375.441406 L 313.863281 379.804688 L 287.675781 362.300781 M 321.144531 378.359375 L 347.332031 395.867188 L 344.414062 400.230469 L 318.226562 382.722656 M 351.695312 398.78125 L 377.882812 416.289062 L 374.964844 420.652344 L 348.777344 403.148438 M 382.25 419.207031 L 408.4375 436.710938 L 405.519531 441.078125 L 379.332031 423.570312 M 412.800781 439.628906 L 438.988281 457.136719 L 436.070312 461.5 L 409.882812 443.996094 M 443.355469 460.054688 L 469.542969 477.558594 L 466.625 481.921875 L 440.4375 464.417969 M 473.90625 480.476562 L 500.09375 497.980469 L 497.175781 502.347656 L 470.988281 484.839844 M 504.457031 500.898438 L 530.644531 518.40625 L 527.726562 522.769531 L 501.539062 505.265625 M 535.011719 521.324219 L 561.199219 538.828125 L 558.28125 543.195312 L 532.09375 525.6875 M 565.5625 541.746094 L 591.75 559.253906 L 588.832031 563.617188 L 562.644531 546.109375 M 596.117188 562.171875 L 622.304688 579.675781 L 619.386719 584.039062 L 593.199219 566.535156 M 626.667969 582.59375 L 652.855469 600.097656 L 649.9375 604.464844 L 623.75 586.957031 M 657.21875 603.015625 L 683.40625 620.523438 L 680.492188 624.886719 L 654.300781 607.382812 M 687.773438 623.441406 L 713.960938 640.945312 L 711.042969 645.308594 L 684.855469 627.804688 M 718.324219 643.863281 L 744.511719 661.371094 L 741.59375 665.734375 L 715.40625 648.226562 M 748.878906 664.285156 L 775.066406 681.792969 L 772.148438 686.15625 L 745.960938 668.652344 M 779.429688 684.710938 L 805.617188 702.214844 L 802.699219 706.582031 L 776.511719 689.074219 M 809.980469 705.132812 L 835.210938 722 L 832.292969 726.363281 L 807.066406 709.5 " fill-opacity="1" fill-rule="nonzero"/><g clip-path="url(#bac5f965e6)"><g clip-path="url(#d4b29779fa)"><path stroke-linecap="butt" transform="matrix(0.75, 0, 0, 0.75, 58.503066, 146.665853)" fill="none" stroke-linejoin="miter" d="M 239.110508 -0.0023879 C 107.053209 -0.0023879 0.00112076 107.054909 0.00112076 239.106999 C 0.00112076 371.164297 107.053209 478.216386 239.110508 478.216386 C 371.167806 478.216386 478.219895 371.164297 478.219895 239.106999 C 478.219895 107.054909 371.167806 -0.0023879 239.110508 -0.0023879 Z M 239.110508 -0.0023879 " stroke="#000000" stroke-width="10" stroke-opacity="1" stroke-miterlimit="4"/></g></g><g clip-path="url(#c5c250998b)"><g clip-path="url(#058767141c)"><path stroke-linecap="butt" transform="matrix(0.75, 0, 0, 0.75, 799.026182, 21.793144)" fill="none" stroke-linejoin="miter" d="M 405.600528 -0.000233698 C 181.595308 -0.000233698 0.00154897 181.593525 0.00154897 405.603953 C 0.00154897 629.609173 181.595308 811.202932 405.600528 811.202932 C 629.610956 811.202932 811.204715 629.609173 811.204715 405.603953 C 811.204715 181.593525 629.610956 -0.000233698 405.600528 -0.000233698 Z M 405.600528 -0.000233698 " stroke="#000000" stroke-width="10" stroke-opacity="1" stroke-miterlimit="4"/></g></g><g clip-path="url(#d34d552a81)"><g clip-path="url(#9ccc10de3e)"><g clip-path="url(#83a3313d40)"><path stroke-linecap="butt" transform="matrix(0.626812, 0.411833, -0.411833, 0.626812, 252.682698, 299.204712)" fill="none" stroke-linejoin="miter" d="M -0.000163319 -0.00242479 L 61.249345 0.00070735 L 61.25073 43.548554 L 0.00122196 43.545422 Z M -0.000163319 -0.00242479 " stroke="#000000" stroke-width="8" stroke-opacity="1" stroke-miterlimit="4"/></g></g></g><g clip-path="url(#b43cd8830a)"><g clip-path="url(#8133b0bfff)"><path fill="#0097b2" d="M 212.886719 300.875 L 262.785156 300.875 L 262.785156 350.777344 L 212.886719 350.777344 Z M 212.886719 300.875 " fill-opacity="1" fill-rule="nonzero"/></g></g><g clip-path="url(#6d4c09e883)"><g clip-path="url(#ccfc73b4b6)"><path stroke-linecap="butt" transform="matrix(0.75, 0, 0, 0.75, 212.885693, 300.87563)" fill="none" stroke-linejoin="miter" d="M 33.266994 -0.000840618 C 14.891993 -0.000840618 0.00136752 14.894993 0.00136752 33.264786 C 0.00136752 51.639787 14.891993 66.530413 33.266994 66.530413 C 51.636787 66.530413 66.532621 51.639787 66.532621 33.264786 C 66.532621 14.894993 51.636787 -0.000840618 33.266994 -0.000840618 Z M 33.266994 -0.000840618 " stroke="#000000" stroke-width="10" stroke-opacity="1" stroke-miterlimit="4"/></g></g><g clip-path="url(#e9d8089c65)"><g clip-path="url(#612f74e68d)"><path fill="#0097b2" d="M 307.597656 146.664062 L 357.5 146.664062 L 357.5 196.566406 L 307.597656 196.566406 Z M 307.597656 146.664062 " fill-opacity="1" fill-rule="nonzero"/></g></g><g clip-path="url(#074505dbd5)"><g clip-path="url(#5cc21b073b)"><path stroke-linecap="butt" transform="matrix(0.75, 0, 0, 0.75, 307.597726, 146.665853)" fill="none" stroke-linejoin="miter" d="M 33.265534 -0.0023879 C 14.895741 -0.0023879 -0.0000929299 14.893446 -0.0000929299 33.263239 C -0.0000929299 51.63824 14.895741 66.528865 33.265534 66.528865 C 51.635326 66.528865 66.53116 51.63824 66.53116 33.263239 C 66.53116 14.893446 51.635326 -0.0023879 33.265534 -0.0023879 Z M 33.265534 -0.0023879 " stroke="#000000" stroke-width="10" stroke-opacity="1" stroke-miterlimit="4"/></g></g><g clip-path="url(#f3ec100299)"><g clip-path="url(#26beb27452)"><path fill="#0097b2" d="M 1078.28125 304.007812 L 1128.183594 304.007812 L 1128.183594 353.910156 L 1078.28125 353.910156 Z M 1078.28125 304.007812 " fill-opacity="1" fill-rule="nonzero"/></g></g><g clip-path="url(#ba9f8f02ef)"><g clip-path="url(#f2df9b8426)"><path stroke-linecap="butt" transform="matrix(0.75, 0, 0, 0.75, 1078.281504, 304.008403)" fill="none" stroke-linejoin="miter" d="M 33.265288 -0.000787474 C 14.895495 -0.000787474 -0.000338634 14.895047 -0.000338634 33.264839 C -0.000338634 51.63984 14.895495 66.530466 33.265288 66.530466 C 51.640289 66.530466 66.530915 51.63984 66.530915 33.264839 C 66.530915 14.895047 51.640289 -0.000787474 33.265288 -0.000787474 Z M 33.265288 -0.000787474 " stroke="#000000" stroke-width="10" stroke-opacity="1" stroke-miterlimit="4"/></g></g><g clip-path="url(#ccfc4716ca)"><g clip-path="url(#ed53e78b68)"><path fill="#0097b2" d="M 917.058594 559.085938 L 966.960938 559.085938 L 966.960938 608.984375 L 917.058594 608.984375 Z M 917.058594 559.085938 " fill-opacity="1" fill-rule="nonzero"/></g></g><g clip-path="url(#29fa3d9bfd)"><g clip-path="url(#d96a1f270c)"><path stroke-linecap="butt" transform="matrix(0.75, 0, 0, 0.75, 917.058704, 559.085032)" fill="none" stroke-linejoin="miter" d="M 33.26548 0.0012075 C 14.895687 0.0012075 -0.000147115 14.891833 -0.000147115 33.266834 C -0.000147115 51.636627 14.895687 66.532461 33.26548 66.532461 C 51.635272 66.532461 66.531106 51.636627 66.531106 33.266834 C 66.531106 14.891833 51.635272 0.0012075 33.26548 0.0012075 Z M 33.26548 0.0012075 " stroke="#000000" stroke-width="10" stroke-opacity="1" stroke-miterlimit="4"/></g></g><path fill="#000000" d="M 1091.800781 351.253906 L 1077.375 374.078125 L 1073.570312 371.675781 L 1087.996094 348.851562 M 1074.96875 377.882812 L 1060.546875 400.707031 L 1056.742188 398.300781 L 1071.167969 375.476562 M 1058.140625 404.507812 L 1043.714844 427.332031 L 1039.910156 424.929688 L 1054.335938 402.105469 M 1041.3125 431.136719 L 1026.886719 453.960938 L 1023.082031 451.554688 L 1037.507812 428.730469 M 1024.480469 457.765625 L 1010.054688 480.585938 L 1006.25 478.183594 L 1020.675781 455.359375 M 1007.652344 484.390625 L 993.226562 507.214844 L 989.421875 504.808594 L 1003.847656 481.988281 M 990.820312 511.019531 L 976.394531 533.839844 L 972.59375 531.4375 L 987.015625 508.613281 M 973.992188 537.644531 L 959.566406 560.46875 L 955.761719 558.0625 L 970.1875 535.242188 " fill-opacity="1" fill-rule="nonzero"/><g clip-path="url(#77aafef61c)"><g clip-path="url(#03a155ac65)"><path fill="#a6a6a6" d="M 833.753906 699.226562 L 883.652344 699.226562 L 883.652344 749.128906 L 833.753906 749.128906 Z M 833.753906 699.226562 " fill-opacity="1" fill-rule="nonzero"/></g></g><g clip-path="url(#1d8ae3b4c8)"><g clip-path="url(#ee4f6bffde)"><path stroke-linecap="butt" transform="matrix(0.75, 0, 0, 0.75, 833.752884, 699.228489)" fill="none" stroke-linejoin="miter" d="M 33.266989 -0.00256843 C 14.891988 -0.00256843 0.00136263 14.893266 0.00136263 33.263058 C 0.00136263 51.638059 14.891988 66.528685 33.266989 66.528685 C 51.636782 66.528685 66.532616 51.638059 66.532616 33.263058 C 66.532616 14.893266 51.636782 -0.00256843 33.266989 -0.00256843 Z M 33.266989 -0.00256843 " stroke="#000000" stroke-width="10" stroke-opacity="1" stroke-miterlimit="4"/></g></g><path fill="#000000" d="M 248.976562 303.382812 L 263.109375 280.375 L 266.941406 282.730469 L 252.8125 305.738281 M 265.464844 276.542969 L 279.59375 253.535156 L 283.429688 255.890625 L 269.296875 278.898438 M 281.949219 249.699219 L 296.078125 226.691406 L 299.914062 229.046875 L 285.785156 252.054688 M 298.433594 222.859375 L 312.566406 199.851562 L 316.398438 202.207031 L 302.269531 225.214844 M 314.921875 196.015625 L 317.570312 191.703125 L 321.40625 194.054688 L 318.753906 198.371094 " fill-opacity="1" fill-rule="nonzero"/><g fill="#000000" fill-opacity="1"><g transform="translate(170.177982, 342.609917)"><g><path d="M 34.953125 0 L 27.375 0 L 24.640625 -8.390625 L 10.6875 -8.390625 L 7.953125 0 L 0.546875 0 L 13.125 -36.421875 L 22.375 -36.421875 Z M 17.3125 -28.828125 L 12.625 -14.453125 L 22.640625 -14.453125 L 17.9375 -28.828125 Z M 17.3125 -28.828125 "/></g></g></g><g fill="#000000" fill-opacity="1"><g transform="translate(591.621775, 433.011629)"><g><path d="M 13.578125 0.515625 C 11.398438 0.515625 9.476562 -0.0078125 7.8125 -1.0625 C 6.144531 -2.113281 4.835938 -3.707031 3.890625 -5.84375 C 2.941406 -7.976562 2.46875 -10.601562 2.46875 -13.71875 C 2.46875 -16.863281 2.953125 -19.5 3.921875 -21.625 C 4.890625 -23.757812 6.234375 -25.351562 7.953125 -26.40625 C 9.671875 -27.46875 11.660156 -28 13.921875 -28 C 15.628906 -28 17.109375 -27.703125 18.359375 -27.109375 C 19.617188 -26.523438 20.679688 -25.609375 21.546875 -24.359375 L 22.0625 -24.484375 L 22.0625 -38.515625 L 28.96875 -38.515625 L 28.96875 0 L 22.0625 0 L 22.0625 -3.5625 L 21.546875 -3.65625 C 20.785156 -2.363281 19.738281 -1.34375 18.40625 -0.59375 C 17.082031 0.144531 15.472656 0.515625 13.578125 0.515625 Z M 15.8125 -5.328125 C 17.757812 -5.328125 19.296875 -6.019531 20.421875 -7.40625 C 21.554688 -8.789062 22.125 -10.894531 22.125 -13.71875 C 22.125 -16.539062 21.554688 -18.648438 20.421875 -20.046875 C 19.296875 -21.441406 17.757812 -22.140625 15.8125 -22.140625 C 13.789062 -22.140625 12.242188 -21.460938 11.171875 -20.109375 C 10.097656 -18.753906 9.5625 -16.625 9.5625 -13.71875 C 9.5625 -10.832031 10.097656 -8.710938 11.171875 -7.359375 C 12.242188 -6.003906 13.789062 -5.328125 15.8125 -5.328125 Z M 15.8125 -5.328125 "/></g></g></g><g fill="#000000" fill-opacity="1"><g transform="translate(316.875282, 135.366469)"><g><path d="M 11.9375 -16 L 11.9375 -6.03125 L 29.3125 -6.03125 L 29.3125 0 L 4.734375 0 L 4.734375 -36.421875 L 28.921875 -36.421875 L 28.921875 -30.390625 L 11.9375 -30.390625 L 11.9375 -21.875 L 26.78125 -21.875 L 26.78125 -16 Z M 11.9375 -16 "/></g></g></g><g fill="#000000" fill-opacity="1"><g transform="translate(1133.796375, 339.477025)"><g><path d="M 4.734375 0 L 4.734375 -36.421875 L 20.28125 -36.421875 C 22.519531 -36.421875 24.414062 -36.066406 25.96875 -35.359375 C 27.519531 -34.648438 28.691406 -33.644531 29.484375 -32.34375 C 30.285156 -31.039062 30.6875 -29.5 30.6875 -27.71875 C 30.6875 -26.113281 30.296875 -24.695312 29.515625 -23.46875 C 28.734375 -22.238281 27.613281 -21.25 26.15625 -20.5 L 26.15625 -19.984375 C 28.445312 -19.378906 30.210938 -18.285156 31.453125 -16.703125 C 32.703125 -15.128906 33.328125 -13.195312 33.328125 -10.90625 C 33.328125 -7.414062 32.273438 -4.722656 30.171875 -2.828125 C 28.078125 -0.941406 24.960938 0 20.828125 0 Z M 18.78125 -21.890625 C 22.132812 -21.890625 23.8125 -23.398438 23.8125 -26.421875 C 23.8125 -27.972656 23.394531 -29.125 22.5625 -29.875 C 21.738281 -30.632812 20.476562 -31.015625 18.78125 -31.015625 L 11.9375 -31.015625 L 11.9375 -21.890625 Z M 20.109375 -5.703125 C 24.078125 -5.703125 26.0625 -7.503906 26.0625 -11.109375 C 26.0625 -14.734375 24.078125 -16.546875 20.109375 -16.546875 L 11.9375 -16.546875 L 11.9375 -5.703125 Z M 20.109375 -5.703125 "/></g></g></g><g fill="#000000" fill-opacity="1"><g transform="translate(927.148547, 656.664587)"><g><path d="M 19.890625 0.515625 C 16.535156 0.515625 13.582031 -0.175781 11.03125 -1.5625 C 8.476562 -2.957031 6.476562 -5.050781 5.03125 -7.84375 C 3.582031 -10.644531 2.859375 -14.097656 2.859375 -18.203125 C 2.859375 -22.304688 3.582031 -25.753906 5.03125 -28.546875 C 6.476562 -31.347656 8.476562 -33.445312 11.03125 -34.84375 C 13.582031 -36.238281 16.535156 -36.9375 19.890625 -36.9375 C 23.398438 -36.9375 26.378906 -36.25 28.828125 -34.875 C 31.273438 -33.507812 33.019531 -31.421875 34.0625 -28.609375 L 28.8125 -25.40625 L 28.1875 -25.421875 C 27.40625 -27.316406 26.347656 -28.675781 25.015625 -29.5 C 23.679688 -30.320312 21.972656 -30.734375 19.890625 -30.734375 C 16.867188 -30.734375 14.507812 -29.734375 12.8125 -27.734375 C 11.125 -25.734375 10.28125 -22.554688 10.28125 -18.203125 C 10.28125 -13.867188 11.125 -10.703125 12.8125 -8.703125 C 14.507812 -6.703125 16.867188 -5.703125 19.890625 -5.703125 C 24.628906 -5.703125 27.53125 -8 28.59375 -12.59375 L 29.203125 -12.59375 L 34.515625 -9.84375 C 33.515625 -6.382812 31.8125 -3.789062 29.40625 -2.0625 C 27 -0.34375 23.828125 0.515625 19.890625 0.515625 Z M 19.890625 0.515625 "/></g></g></g><g fill="#000000" fill-opacity="1"><g transform="translate(687.634085, 310.186831)"><g><path d="M 12.859375 0.515625 C 10.972656 0.515625 9.25 0.296875 7.6875 -0.140625 C 6.132812 -0.578125 4.804688 -1.179688 3.703125 -1.953125 C 2.597656 -2.722656 1.78125 -3.609375 1.25 -4.609375 L 5.078125 -8.75 L 5.609375 -8.75 C 6.515625 -7.519531 7.59375 -6.597656 8.84375 -5.984375 C 10.09375 -5.367188 11.445312 -5.0625 12.90625 -5.0625 C 14.25 -5.0625 15.257812 -5.300781 15.9375 -5.78125 C 16.625 -6.257812 16.96875 -6.945312 16.96875 -7.84375 C 16.96875 -8.539062 16.722656 -9.125 16.234375 -9.59375 C 15.742188 -10.070312 14.945312 -10.445312 13.84375 -10.71875 L 10.21875 -11.578125 C 7.488281 -12.222656 5.492188 -13.210938 4.234375 -14.546875 C 2.984375 -15.890625 2.359375 -17.59375 2.359375 -19.65625 C 2.359375 -21.363281 2.796875 -22.847656 3.671875 -24.109375 C 4.546875 -25.367188 5.773438 -26.332031 7.359375 -27 C 8.941406 -27.664062 10.789062 -28 12.90625 -28 C 15.375 -28 17.421875 -27.640625 19.046875 -26.921875 C 20.679688 -26.210938 21.957031 -25.257812 22.875 -24.0625 L 19.1875 -20.078125 L 18.6875 -20.078125 C 17.914062 -20.941406 17.050781 -21.570312 16.09375 -21.96875 C 15.144531 -22.363281 14.082031 -22.5625 12.90625 -22.5625 C 10.175781 -22.5625 8.8125 -21.71875 8.8125 -20.03125 C 8.8125 -19.3125 9.066406 -18.726562 9.578125 -18.28125 C 10.085938 -17.832031 10.976562 -17.46875 12.25 -17.1875 L 15.640625 -16.4375 C 18.429688 -15.84375 20.46875 -14.882812 21.75 -13.5625 C 23.039062 -12.238281 23.6875 -10.46875 23.6875 -8.25 C 23.6875 -6.5 23.253906 -4.957031 22.390625 -3.625 C 21.523438 -2.300781 20.28125 -1.28125 18.65625 -0.5625 C 17.03125 0.15625 15.097656 0.515625 12.859375 0.515625 Z M 12.859375 0.515625 "/></g></g></g><g fill="#000000" fill-opacity="1"><g transform="translate(890.24211, 752.299749)"><g><path d="M 17.828125 -36.421875 C 23.742188 -36.421875 28.257812 -34.890625 31.375 -31.828125 C 34.488281 -28.773438 36.046875 -24.234375 36.046875 -18.203125 C 36.046875 -12.191406 34.488281 -7.65625 31.375 -4.59375 C 28.257812 -1.53125 23.742188 0 17.828125 0 L 4.734375 0 L 4.734375 -36.421875 Z M 17.40625 -6.046875 C 21.164062 -6.046875 23.972656 -7.003906 25.828125 -8.921875 C 27.691406 -10.847656 28.625 -13.941406 28.625 -18.203125 C 28.625 -22.472656 27.691406 -25.566406 25.828125 -27.484375 C 23.972656 -29.398438 21.164062 -30.359375 17.40625 -30.359375 L 11.9375 -30.359375 L 11.9375 -6.046875 Z M 17.40625 -6.046875 "/></g></g></g><path fill="#000000" d="M 931.1875 606.636719 L 917.394531 629.847656 L 913.523438 627.546875 L 927.320312 604.339844 M 915.09375 633.714844 L 901.296875 656.925781 L 897.429688 654.625 L 911.226562 631.414062 M 898.996094 660.792969 L 885.203125 684 L 881.332031 681.703125 L 895.128906 658.492188 M 882.902344 687.871094 L 873.386719 703.878906 L 869.515625 701.582031 L 879.035156 685.570312 " fill-opacity="1" fill-rule="nonzero"/><g fill="#000000" fill-opacity="1"><g transform="translate(1060.152374, 490.985275)"><g><path d="M 0.921875 0 L 0.921875 -2.84375 L 5.109375 -2.84375 L 5.109375 -13.671875 L 4.84375 -13.734375 C 4.25 -13.453125 3.660156 -13.226562 3.078125 -13.0625 C 2.503906 -12.894531 1.851562 -12.765625 1.125 -12.671875 L 1.125 -15.609375 C 3.050781 -16.015625 4.609375 -16.609375 5.796875 -17.390625 L 8.515625 -17.390625 L 8.515625 -2.84375 L 12.265625 -2.84375 L 12.265625 0 Z M 0.921875 0 "/></g></g></g><g fill="#000000" fill-opacity="1"><g transform="translate(1043.102567, 483.048778)"><g><path d="M 3.078125 0 L 3.078125 -21.390625 L 8.296875 -21.390625 L 8.296875 -18.203125 L 8.703125 -18.140625 C 9.222656 -19.328125 9.898438 -20.195312 10.734375 -20.75 C 11.578125 -21.300781 12.601562 -21.578125 13.8125 -21.578125 C 15.019531 -21.578125 15.941406 -21.375 16.578125 -20.96875 L 15.671875 -16.328125 L 15.265625 -16.25 C 14.910156 -16.394531 14.570312 -16.5 14.25 -16.5625 C 13.925781 -16.625 13.535156 -16.65625 13.078125 -16.65625 C 11.578125 -16.65625 10.429688 -16.128906 9.640625 -15.078125 C 8.847656 -14.023438 8.453125 -12.332031 8.453125 -10 L 8.453125 0 Z M 3.078125 0 "/></g></g></g><g fill="#000000" fill-opacity="1"><g transform="translate(224.853342, 241.271876)"><g><path d="M 3.078125 0 L 3.078125 -21.390625 L 8.296875 -21.390625 L 8.296875 -18.203125 L 8.703125 -18.140625 C 9.222656 -19.328125 9.898438 -20.195312 10.734375 -20.75 C 11.578125 -21.300781 12.601562 -21.578125 13.8125 -21.578125 C 15.019531 -21.578125 15.941406 -21.375 16.578125 -20.96875 L 15.671875 -16.328125 L 15.265625 -16.25 C 14.910156 -16.394531 14.570312 -16.5 14.25 -16.5625 C 13.925781 -16.625 13.535156 -16.65625 13.078125 -16.65625 C 11.578125 -16.65625 10.429688 -16.128906 9.640625 -15.078125 C 8.847656 -14.023438 8.453125 -12.332031 8.453125 -10 L 8.453125 0 Z M 3.078125 0 "/></g></g></g><g fill="#000000" fill-opacity="1"><g transform="translate(240.17573, 250.159459)"><g><path d="M 0.84375 -1.375 C 0.84375 -2.332031 0.945312 -3.140625 1.15625 -3.796875 C 1.363281 -4.460938 1.707031 -5.066406 2.1875 -5.609375 C 2.664062 -6.148438 3.335938 -6.734375 4.203125 -7.359375 L 6.53125 -9.046875 C 7.164062 -9.492188 7.660156 -9.882812 8.015625 -10.21875 C 8.367188 -10.550781 8.632812 -10.898438 8.8125 -11.265625 C 8.988281 -11.628906 9.078125 -12.046875 9.078125 -12.515625 C 9.078125 -13.222656 8.863281 -13.765625 8.4375 -14.140625 C 8.007812 -14.523438 7.363281 -14.71875 6.5 -14.71875 C 5.675781 -14.71875 4.941406 -14.519531 4.296875 -14.125 C 3.660156 -13.738281 3.132812 -13.207031 2.71875 -12.53125 L 2.484375 -12.46875 L 0.59375 -14.578125 C 1.207031 -15.503906 2.015625 -16.242188 3.015625 -16.796875 C 4.015625 -17.359375 5.222656 -17.640625 6.640625 -17.640625 C 7.941406 -17.640625 9.03125 -17.425781 9.90625 -17 C 10.78125 -16.570312 11.425781 -15.984375 11.84375 -15.234375 C 12.269531 -14.492188 12.484375 -13.644531 12.484375 -12.6875 C 12.484375 -11.863281 12.3125 -11.109375 11.96875 -10.421875 C 11.625 -9.742188 11.144531 -9.113281 10.53125 -8.53125 C 9.925781 -7.957031 9.144531 -7.335938 8.1875 -6.671875 L 6.140625 -5.234375 C 5.515625 -4.785156 5.078125 -4.390625 4.828125 -4.046875 C 4.585938 -3.703125 4.46875 -3.3125 4.46875 -2.875 L 12.328125 -2.875 L 12.328125 0 L 0.84375 0 Z M 0.84375 -1.375 "/></g></g></g><g fill="#000000" fill-opacity="1"><g transform="translate(848.341593, 644.22389)"><g><path d="M 3.078125 0 L 3.078125 -21.390625 L 8.296875 -21.390625 L 8.296875 -18.203125 L 8.703125 -18.140625 C 9.222656 -19.328125 9.898438 -20.195312 10.734375 -20.75 C 11.578125 -21.300781 12.601562 -21.578125 13.8125 -21.578125 C 15.019531 -21.578125 15.941406 -21.375 16.578125 -20.96875 L 15.671875 -16.328125 L 15.265625 -16.25 C 14.910156 -16.394531 14.570312 -16.5 14.25 -16.5625 C 13.925781 -16.625 13.535156 -16.65625 13.078125 -16.65625 C 11.578125 -16.65625 10.429688 -16.128906 9.640625 -15.078125 C 8.847656 -14.023438 8.453125 -12.332031 8.453125 -10 L 8.453125 0 Z M 3.078125 0 "/></g></g></g><g fill="#000000" fill-opacity="1"><g transform="translate(863.663983, 653.111363)"><g><path d="M 0.84375 -1.375 C 0.84375 -2.332031 0.945312 -3.140625 1.15625 -3.796875 C 1.363281 -4.460938 1.707031 -5.066406 2.1875 -5.609375 C 2.664062 -6.148438 3.335938 -6.734375 4.203125 -7.359375 L 6.53125 -9.046875 C 7.164062 -9.492188 7.660156 -9.882812 8.015625 -10.21875 C 8.367188 -10.550781 8.632812 -10.898438 8.8125 -11.265625 C 8.988281 -11.628906 9.078125 -12.046875 9.078125 -12.515625 C 9.078125 -13.222656 8.863281 -13.765625 8.4375 -14.140625 C 8.007812 -14.523438 7.363281 -14.71875 6.5 -14.71875 C 5.675781 -14.71875 4.941406 -14.519531 4.296875 -14.125 C 3.660156 -13.738281 3.132812 -13.207031 2.71875 -12.53125 L 2.484375 -12.46875 L 0.59375 -14.578125 C 1.207031 -15.503906 2.015625 -16.242188 3.015625 -16.796875 C 4.015625 -17.359375 5.222656 -17.640625 6.640625 -17.640625 C 7.941406 -17.640625 9.03125 -17.425781 9.90625 -17 C 10.78125 -16.570312 11.425781 -15.984375 11.84375 -15.234375 C 12.269531 -14.492188 12.484375 -13.644531 12.484375 -12.6875 C 12.484375 -11.863281 12.3125 -11.109375 11.96875 -10.421875 C 11.625 -9.742188 11.144531 -9.113281 10.53125 -8.53125 C 9.925781 -7.957031 9.144531 -7.335938 8.1875 -6.671875 L 6.140625 -5.234375 C 5.515625 -4.785156 5.078125 -4.390625 4.828125 -4.046875 C 4.585938 -3.703125 4.46875 -3.3125 4.46875 -2.875 L 12.328125 -2.875 L 12.328125 0 L 0.84375 0 Z M 0.84375 -1.375 "/></g></g></g></svg>